<svg xmlns="http://www.w3.org/2000/svg" aria-hidden="true" style="position:absolute;width:0;height:0;overflow:hidden">
  <defs>
    <symbol id="icon-broadcast-small" viewBox="0 0 32 32">
      <path d="M13.373 11.788a5.006 5.006 0 0 1 2.765-.831c1.32 0 2.586.519 3.519 1.444s1.458 2.179 1.458 3.486c0 .975-.292 1.928-.839 2.739s-1.324 1.443-2.233 1.816a5.014 5.014 0 0 1-5.423-1.069 4.894 4.894 0 0 1-1.079-5.374 4.934 4.934 0 0 1 1.833-2.213zm10.183 10.675a9.786 9.786 0 0 0 2.399-8.194 9.832 9.832 0 0 0-2.399-4.955 1 1 0 0 0-1.651.221.967.967 0 0 0-.036.761.99.99 0 0 0 .204.332c1.307 1.446 2.03 3.318 2.03 5.259s-.723 3.813-2.03 5.259a.979.979 0 0 0 .089 1.38 1 1 0 0 0 1.395-.066zM8.278 17.184a7.822 7.822 0 0 1 1.924-6.554.981.981 0 0 0-.079-1.394 1.002 1.002 0 0 0-1.407.079c-1.634 1.807-2.538 4.148-2.538 6.574s.904 4.767 2.538 6.574a1.003 1.003 0 0 0 1.395.066.977.977 0 0 0 .088-1.38 7.86 7.86 0 0 1-1.92-3.964zm18.523 9.058a14.669 14.669 0 0 0 4.266-10.354 14.667 14.667 0 0 0-4.266-10.354 1 1 0 0 0-1.41-.011.985.985 0 0 0-.012 1.397c2.372 2.395 3.701 5.616 3.701 8.971s-1.329 6.576-3.701 8.971a.97.97 0 0 0-.225 1.088.979.979 0 0 0 .551.536 1.006 1.006 0 0 0 1.093-.244zM7.108 25.181a.988.988 0 0 0-.213-.322v-.002c-2.372-2.395-3.701-5.616-3.701-8.971s1.329-6.577 3.701-8.971a.97.97 0 0 0 .225-1.088.979.979 0 0 0-.551-.536.988.988 0 0 0-.773.017.997.997 0 0 0-.321.227c-2.739 2.763-4.274 6.481-4.274 10.354s1.535 7.591 4.274 10.354a1.017 1.017 0 0 0 .701.296.982.982 0 0 0 .382-.072.985.985 0 0 0 .551-1.284zm11.768-9.059c.036-.063.055-.133.054-.205s-.019-.143-.054-.205-.087-.115-.15-.152l-3.872-2.333a.434.434 0 0 0-.595.146.418.418 0 0 0-.059.212v4.665c0 .075.02.148.059.212a.435.435 0 0 0 .378.208.447.447 0 0 0 .217-.062l3.872-2.333a.42.42 0 0 0 .15-.152z"/>
    </symbol>
    <symbol id="icon-broadcast-large" viewBox="0 0 32 32">
      <path d="M13.373 11.788a5.008 5.008 0 0 1 2.765-.831c1.32 0 2.586.519 3.519 1.444s1.458 2.179 1.458 3.486c0 .975-.292 1.928-.839 2.739s-1.324 1.443-2.233 1.816-1.91.471-2.875.281-1.852-.66-2.548-1.349a4.895 4.895 0 0 1-1.079-5.373 4.94 4.94 0 0 1 1.833-2.213zm10.183 10.675a9.783 9.783 0 0 0 2.399-8.193 9.836 9.836 0 0 0-2.399-4.955 1 1 0 0 0-1.651.221.967.967 0 0 0-.036.761.99.99 0 0 0 .204.332c1.307 1.446 2.03 3.318 2.03 5.259s-.723 3.813-2.03 5.259a.979.979 0 0 0 .088 1.38 1 1 0 0 0 1.395-.066zM8.278 17.184a7.822 7.822 0 0 1 1.924-6.554.981.981 0 0 0-.079-1.394 1.002 1.002 0 0 0-1.407.079c-1.634 1.807-2.538 4.148-2.538 6.574s.904 4.767 2.538 6.574a1.003 1.003 0 0 0 1.395.066.979.979 0 0 0 .088-1.38 7.86 7.86 0 0 1-1.92-3.964zm18.523 9.058a14.669 14.669 0 0 0 4.266-10.354 14.667 14.667 0 0 0-4.266-10.354 1 1 0 0 0-1.41-.011.984.984 0 0 0-.011 1.397c2.372 2.395 3.701 5.616 3.701 8.971s-1.329 6.577-3.701 8.971a.97.97 0 0 0-.225 1.088.994.994 0 0 0 1.324.519c.121-.054.23-.131.321-.227zM7.108 25.181a.978.978 0 0 0-.213-.322v-.002c-2.372-2.395-3.701-5.616-3.701-8.971s1.329-6.577 3.701-8.971a.97.97 0 0 0 .225-1.088.979.979 0 0 0-.551-.536.988.988 0 0 0-.773.017.997.997 0 0 0-.321.227c-2.739 2.763-4.274 6.481-4.274 10.354s1.535 7.591 4.274 10.354a.993.993 0 0 0 1.083.223 1.001 1.001 0 0 0 .544-.529.976.976 0 0 0 .007-.755zm11.768-9.059c.036-.063.055-.133.054-.205s-.019-.143-.054-.205a.413.413 0 0 0-.15-.152l-3.872-2.333a.434.434 0 0 0-.595.146.418.418 0 0 0-.059.212v4.665c0 .075.02.148.059.212a.435.435 0 0 0 .378.208.447.447 0 0 0 .217-.062l3.872-2.333a.42.42 0 0 0 .15-.152z"/>
    </symbol>
    <symbol id="icon-x-icon" viewBox="0 0 32 32">
      <path d="M8.391 8.391a1.333 1.333 0 0 1 1.886 0l5.724 5.724 5.724-5.724a1.333 1.333 0 1 1 1.886 1.886l-5.724 5.724 5.724 5.724a1.333 1.333 0 1 1-1.886 1.886l-5.724-5.724-5.724 5.724a1.333 1.333 0 1 1-1.886-1.886l5.724-5.724-5.724-5.724a1.333 1.333 0 0 1 0-1.886z"/>
    </symbol>
  </defs>
</svg>
