<svg width="40" height="40" viewBox="0 0 40 40" fill="none" xmlns="http://www.w3.org/2000/svg">
<circle cx="20" cy="20" r="20" fill="url(#paint0_radial_46_631)"/>
<g clip-path="url(#clip0_46_631)">
<path d="M20.0916 9.68597C23.4846 9.68597 23.8534 9.68597 25.1811 9.75926C26.4351 9.83255 27.0989 10.0524 27.5415 10.199C28.1316 10.4189 28.5741 10.7121 29.0167 11.1518C29.4593 11.5916 29.7543 12.0314 29.9756 12.6177C30.1231 13.0575 30.3444 13.7171 30.4182 14.9631C30.4182 16.2091 30.4182 16.5755 30.4182 19.947C30.4182 23.3185 30.4182 23.685 30.3444 25.0043C30.2706 26.2503 30.0493 26.9099 29.9018 27.3497C29.6805 27.936 29.3855 28.3758 28.9429 28.8155C28.5004 29.2553 28.0578 29.5485 27.4677 29.7683C27.0251 29.9149 26.3613 30.1348 25.1074 30.2081C23.8534 30.2081 23.4846 30.2081 20.0916 30.2081C16.6986 30.2081 16.3298 30.2081 15.0021 30.1348C13.7482 30.0615 13.0843 29.8416 12.6418 29.695C12.0517 29.4752 11.6091 29.182 11.1665 28.7422C10.724 28.3025 10.4289 27.8627 10.2076 27.2764C10.0601 26.8366 9.83884 26.177 9.76508 24.931C9.76508 23.685 9.76508 23.3185 9.76508 19.947C9.76508 16.5755 9.76508 16.2091 9.83884 14.8898C9.9126 13.6438 10.1339 12.9842 10.2814 12.5444C10.5027 11.9581 10.7977 11.5183 11.2403 11.0785C11.6829 10.6388 12.1254 10.3456 12.7155 10.1257C13.1581 9.97914 13.8219 9.75926 15.0759 9.68597C16.3298 9.68597 16.6986 9.68597 20.0916 9.68597ZM20.0916 7.48717C16.6986 7.48717 16.256 7.48717 14.9283 7.56046C13.6006 7.63375 12.7155 7.85363 11.9041 8.14681C11.0928 8.43998 10.3552 8.87974 9.69131 9.61267C9.02747 10.3456 8.5849 11.0052 8.21609 11.8115C7.92105 12.6177 7.69977 13.4972 7.62601 14.8165C7.55225 16.1358 7.55225 16.5755 7.55225 19.947C7.55225 23.3185 7.55225 23.7583 7.62601 25.0776C7.69977 26.3968 7.92105 27.2764 8.21609 28.0826C8.51114 28.8888 8.9537 29.6217 9.69131 30.2814C10.3552 30.941 11.0928 31.3808 11.9041 31.7473C12.7155 32.0404 13.6006 32.2603 14.9283 32.3336C16.256 32.4069 16.6986 32.4069 20.0916 32.4069C23.4846 32.4069 23.9272 32.4069 25.2549 32.3336C26.5826 32.2603 27.4677 32.0404 28.2791 31.7473C29.0905 31.4541 29.8281 31.0143 30.4919 30.2814C31.1558 29.6217 31.5983 28.8888 31.9671 28.0826C32.2622 27.2764 32.4835 26.3968 32.5572 25.0776C32.631 23.7583 32.631 23.3185 32.631 19.947C32.631 16.5755 32.631 16.1358 32.5572 14.8165C32.4835 13.4972 32.2622 12.6177 31.9671 11.8115C31.6721 11.0052 31.2295 10.2723 30.4919 9.61267C29.7543 8.95303 29.0905 8.51327 28.2791 8.14681C27.4677 7.85363 26.5826 7.63375 25.2549 7.56046C23.9272 7.48717 23.4846 7.48717 20.0916 7.48717Z" fill="white"/>
<path d="M20.0916 13.3506C16.4036 13.3506 13.4531 16.2824 13.4531 19.947C13.4531 23.6117 16.4036 26.5434 20.0916 26.5434C23.7797 26.5434 26.7301 23.6117 26.7301 19.947C26.7301 16.2824 23.7797 13.3506 20.0916 13.3506ZM20.0916 24.3446C17.6575 24.3446 15.666 22.3657 15.666 19.947C15.666 17.5284 17.6575 15.5494 20.0916 15.5494C22.5257 15.5494 24.5173 17.5284 24.5173 19.947C24.5173 22.3657 22.5257 24.3446 20.0916 24.3446Z" fill="white"/>
<path d="M26.7301 14.8165C27.5448 14.8165 28.2053 14.1602 28.2053 13.3506C28.2053 12.5411 27.5448 11.8848 26.7301 11.8848C25.9154 11.8848 25.2549 12.5411 25.2549 13.3506C25.2549 14.1602 25.9154 14.8165 26.7301 14.8165Z" fill="white"/>
</g>
<defs>
<radialGradient id="paint0_radial_46_631" cx="0" cy="0" r="1" gradientUnits="userSpaceOnUse" gradientTransform="translate(8.26863 48.0831) rotate(-49.945) scale(60.5613 40.0059)">
<stop offset="0.073" stop-color="#EACC7B"/>
<stop offset="0.184" stop-color="#ECAA59"/>
<stop offset="0.307" stop-color="#EF802E"/>
<stop offset="0.358" stop-color="#EF6D3A"/>
<stop offset="0.46" stop-color="#F04B50"/>
<stop offset="0.516" stop-color="#F03E58"/>
<stop offset="0.689" stop-color="#DB359E"/>
<stop offset="0.724" stop-color="#CE37A4"/>
<stop offset="0.789" stop-color="#AC3CB4"/>
<stop offset="0.877" stop-color="#7544CF"/>
<stop offset="0.98" stop-color="#2B4FF2"/>
</radialGradient>
<clipPath id="clip0_46_631">
<rect width="25.2308" height="24.6154" fill="white" transform="translate(7.38477 7.69234)"/>
</clipPath>
</defs>
</svg>
