<svg width="109" height="91" viewBox="0 0 109 91" fill="none" xmlns="http://www.w3.org/2000/svg">
<path fill-rule="evenodd" clip-rule="evenodd" d="M95.6924 80.2845C86.6036 87.4221 73.4892 91.1246 62.2285 90.9968C46.4471 90.8178 32.2957 84.3119 21.6418 73.6275C20.8057 72.7893 21.5698 71.6637 22.5782 72.3183C34.1107 79.794 48.4167 84.3787 63.2375 84.5468C73.2346 84.6602 84.2458 82.5286 94.4029 77.9772C95.9358 77.2914 97.1969 79.1019 95.6924 80.2845Z" fill="#E21818"/>
<path fill-rule="evenodd" clip-rule="evenodd" d="M99.491 75.665C98.352 74.0454 91.8714 74.8179 88.9603 75.1638C88.0784 75.2673 87.9502 74.4304 88.7498 73.8323C93.9499 69.9467 102.399 71.1808 103.37 72.5143C104.349 73.8558 103.01 83.0671 98.1281 87.4167C97.377 88.0848 96.6726 87.7165 97.0111 86.8249C98.1289 83.8804 100.631 77.2859 99.491 75.665Z" fill="#E21818"/>
<path fill-rule="evenodd" clip-rule="evenodd" d="M89.4685 45.7826V41.9607C89.4655 41.8326 89.4865 41.7052 89.5301 41.5862C89.5738 41.4672 89.6393 41.3592 89.7226 41.2686C89.8059 41.178 89.9053 41.1068 90.0146 41.0592C90.124 41.0117 90.2412 40.9889 90.3589 40.9922L106.105 40.9909C106.609 40.9909 107.012 41.39 107.015 41.9567L107.012 45.2332C107.008 45.7826 106.582 46.4996 105.827 47.6383L97.6718 60.304C100.7 60.2268 103.902 60.719 106.653 62.4018C107.274 62.7796 107.442 63.3423 107.489 63.893V67.969C107.489 68.5317 106.923 69.1809 106.331 68.843C101.483 66.0827 95.0519 65.7794 89.6924 68.8763C89.1444 69.1916 88.572 68.553 88.572 67.989V64.1152C88.572 63.494 88.5818 62.4324 89.1579 61.4866L98.6074 46.7431L90.3797 46.7417C89.8746 46.7457 89.4722 46.3559 89.4685 45.7826ZM32.0301 69.6478L27.2393 69.6505C27.023 69.6393 26.8176 69.5442 26.6603 69.3824C26.5029 69.2206 26.4042 69.0028 26.3819 68.7685L26.3856 42.0272C26.3856 41.4924 26.799 41.0654 27.309 41.0654L31.7708 41.0641C32.238 41.0907 32.6123 41.4751 32.6416 41.962V45.4527H32.7309C33.8941 42.0764 36.0846 40.5014 39.0359 40.5014C42.0313 40.5014 43.9099 42.0764 45.2516 45.4527C46.4148 42.0764 49.053 40.5014 51.8697 40.5014C53.8817 40.5014 56.0735 41.4006 57.4152 43.428C58.9343 45.6775 58.6224 48.9433 58.6224 51.8128L58.6199 68.6887C58.6199 69.2235 58.2053 69.6505 57.6953 69.6505L52.9106 69.6532C52.6816 69.6417 52.4652 69.536 52.3053 69.3574C52.1454 69.1787 52.0539 68.9406 52.0495 68.6914L52.0483 54.5146C52.0483 53.3891 52.1376 50.5756 51.915 49.506C51.5578 47.7048 50.484 47.1993 49.0982 47.1993C47.9351 47.1993 46.7279 48.0441 46.2362 49.393C45.7445 50.7445 45.7886 52.9954 45.7886 54.5146V68.6887C45.7886 69.2235 45.3752 69.6505 44.8639 69.6505L40.0804 69.6532C39.8515 69.6417 39.6351 69.536 39.4751 69.3574C39.3152 69.1787 39.2238 68.9406 39.2194 68.6914L39.2145 54.5146C39.2145 51.5307 39.6609 47.1421 36.2632 47.1421C32.8202 47.1421 32.9548 51.419 32.9548 54.5146L32.9523 68.6887C32.9548 69.2222 32.5413 69.6478 32.0301 69.6478ZM14.118 56.8785C14.118 58.9085 14.1633 60.6006 13.2215 62.4045C12.4595 63.8718 11.2499 64.7724 9.90575 64.7724C8.06868 64.7724 6.99359 63.2492 6.99359 60.9944C6.99359 56.5579 10.6531 55.7491 14.1193 55.7491L14.118 56.8785ZM18.9468 69.5827C18.7924 69.7267 18.6011 69.8156 18.3987 69.8372C18.1963 69.8589 17.9926 69.8123 17.8154 69.7037C16.2242 68.2644 15.9392 67.6005 15.0696 66.2317C12.44 69.145 10.5772 70.0203 7.17094 70.0203C3.13721 70.0203 0 67.3132 0 61.899C0 57.6687 2.10737 54.7939 5.10882 53.3838C7.70787 52.1427 11.338 51.9165 14.1168 51.5786V50.9015C14.1168 49.6604 14.2061 48.1944 13.5334 47.1235C12.9512 46.1644 11.8309 45.7693 10.8451 45.7693C9.01779 45.7693 7.39354 46.7883 6.99481 48.8981C6.91287 49.3677 6.59731 49.832 6.16312 49.8559L1.52029 49.3105C1.12768 49.2147 0.692264 48.8715 0.806011 48.221C1.87254 42.0937 6.95934 40.2433 11.519 40.2433C13.849 40.2433 16.8957 40.9191 18.734 42.8373C21.0639 45.2052 20.8401 48.3647 20.8401 51.8048V59.9222C20.8401 62.3632 21.7721 63.4341 22.6478 64.7497C22.9536 65.2233 23.0233 65.7874 22.6332 66.1346C21.6547 67.0259 19.9167 68.6688 18.9602 69.596L18.9468 69.5827ZM76.916 56.8785C76.916 58.9085 76.9613 60.6006 76.0207 62.4045C75.2587 63.8718 74.0491 64.7724 72.705 64.7724C70.8679 64.7724 69.7916 63.2492 69.7916 60.9944C69.7916 56.5579 73.4523 55.7491 76.9173 55.7491L76.916 56.8785ZM81.746 69.5827C81.5913 69.7265 81.3997 69.8152 81.1972 69.8368C80.9947 69.8585 80.7909 69.812 80.6134 69.7037C79.0222 68.2644 78.7372 67.6005 77.8676 66.2317C75.2392 69.145 73.3764 70.0203 69.9701 70.0203C65.9376 70.0203 62.7992 67.3132 62.7992 61.899C62.7992 57.6687 64.9054 54.7939 67.908 53.3838C70.5071 52.1427 74.1372 51.9165 76.916 51.5786V50.9015C76.916 49.6604 77.0065 48.1944 76.3338 47.1235C75.7504 46.1644 74.6313 45.7693 73.6455 45.7693C71.8182 45.7693 70.194 46.7883 69.7952 48.8981C69.7121 49.3677 69.3977 49.832 68.9623 49.8559L64.3195 49.3105C63.9269 49.2147 63.4902 48.8715 63.604 48.221C64.6717 42.0937 69.7573 40.2433 74.317 40.2433C76.6469 40.2433 79.6937 40.9191 81.5319 42.8373C83.8619 45.2052 83.6393 48.3647 83.6393 51.8048V59.9222C83.6393 62.3632 84.5713 63.4341 85.447 64.7497C85.7528 65.2233 85.8213 65.7874 85.4311 66.1346C84.4515 67.0259 82.7134 68.6688 81.757 69.596L81.746 69.5827Z" fill="white"/>
<path d="M85.7157 4.4558L81.1081 3.27698C80.8769 3.21254 80.6316 3.2496 80.4253 3.38016C80.219 3.51072 80.0682 3.72431 80.0054 3.97479L76.9908 17.8818C76.6137 19.6215 76.187 21.1761 75.1967 22.5863C74.4059 23.7032 73.1934 24.2521 72.0699 23.964C68.8745 23.1446 70.0724 19.0914 70.6851 16.2648L73.7247 2.24216C73.7431 2.01601 73.6887 1.78994 73.5708 1.60261C73.4528 1.41528 73.2787 1.27833 73.0782 1.21517L68.4399 0.0284685C67.9804 -0.0893673 67.5279 0.168911 67.3755 0.61268L63.8527 16.8645C63.3104 19.3661 62.5565 22.8441 63.3174 25.2187C64.1301 27.7802 65.9841 29.1155 68.0561 29.6468C71.2539 30.4669 73.4323 29.2474 75.4929 26.0461L75.5803 26.0686L74.7239 30.0194C74.7266 30.2323 74.7928 30.4386 74.9126 30.607C75.0324 30.7755 75.1993 30.897 75.3881 30.9533L79.68 32.0525C80.149 32.1728 80.612 31.9009 80.7534 31.4381L86.3448 5.59768C86.393 5.35604 86.3548 5.1035 86.2379 4.8914C86.1211 4.6793 85.9344 4.52355 85.7157 4.4558Z" fill="#00B917"/>
<path fill-rule="evenodd" clip-rule="evenodd" d="M46.2704 33.1105C46.1155 33.2551 45.9234 33.3443 45.7203 33.366C45.5172 33.3877 45.3128 33.3409 45.135 33.232C43.7811 32.0073 43.3695 31.3421 42.7438 30.3309C42.6314 30.1493 42.5122 29.9566 42.3794 29.7475C39.7403 32.6713 37.8709 33.5497 34.4525 33.5497C30.4043 33.5497 27.2559 30.8329 27.2559 25.3993C27.2559 21.1539 29.3708 18.2689 32.383 16.8538C34.5895 15.8001 37.5364 15.4753 40.0803 15.195C40.5436 15.1439 40.9935 15.0944 41.4232 15.0421V14.3626C41.4232 14.2337 41.4241 14.1023 41.4251 13.9693C41.4335 12.8167 41.4429 11.5345 40.8377 10.5711C40.2534 9.60852 39.1291 9.21201 38.1397 9.21201C36.3059 9.21201 34.6759 10.2346 34.2757 12.352C34.1935 12.8233 33.8768 13.2892 33.441 13.3132L28.7816 12.7659C28.3876 12.6698 27.9506 12.3253 28.0648 11.6725C29.1351 5.52331 34.2401 3.66627 38.8161 3.66627C41.1544 3.66627 44.212 4.34447 46.0568 6.26959C48.2053 8.453 48.1901 11.307 48.1734 14.4339C48.172 14.7103 48.1705 14.9887 48.1705 15.2691V23.4155C48.1705 25.6034 48.9166 26.6945 49.7022 27.8434C49.7962 27.9809 49.8907 28.1192 49.9847 28.2603C50.2915 28.7356 50.3615 29.3016 49.9699 29.6501C48.988 30.5446 47.2438 32.1933 46.2839 33.1239L46.2704 33.1105ZM41.4246 20.6288C41.4245 20.5401 41.4244 20.4508 41.4244 20.3609L41.4256 19.2275C37.947 19.2275 34.2745 20.0392 34.2745 24.4915C34.2745 26.7544 35.3534 28.283 37.1971 28.283C38.546 28.283 39.76 27.3792 40.5247 25.9066C41.4281 24.1762 41.4265 22.5483 41.4246 20.6288Z" fill="#E21818"/>
<path d="M3.91046 34.0641L8.69754 34.0614C8.93889 34.0665 9.1724 33.9681 9.34763 33.7875C9.52286 33.6069 9.62574 33.3586 9.63408 33.0962V18.6458C9.63408 16.8381 9.72246 15.2001 10.3963 13.562C10.9364 12.263 12.0129 11.4166 13.1802 11.4166C16.5005 11.4166 16.1862 15.7087 16.1862 18.6458V33.2164C16.2164 33.4436 16.3182 33.6524 16.4743 33.807C16.6303 33.9617 16.8309 34.0525 17.0418 34.0641L21.8608 34.0614C22.3382 34.0614 22.7286 33.693 22.7838 33.2177V16.3308C22.7838 13.7315 22.7838 10.1176 21.5281 7.97216C20.1816 5.65588 18.0716 4.80947 15.9187 4.80947C12.5959 4.80947 10.7118 6.5597 9.36651 10.231H9.27567V6.12581C9.22762 5.91687 9.11843 5.73058 8.96457 5.59501C8.8107 5.45944 8.62048 5.38193 8.42258 5.37418L3.96324 5.37552C3.47594 5.37552 3.07825 5.76001 3.03774 6.2513L3.04756 33.0989C3.05169 33.3489 3.1432 33.5879 3.30348 33.7671C3.46376 33.9464 3.68078 34.0526 3.91046 34.0641Z" fill="#E21818"/>
<path fill-rule="evenodd" clip-rule="evenodd" d="M94.5737 36.7809C87.6269 34.9168 85.3396 27.4198 87.2107 19.1712C89.0195 11.197 94.6076 5.98699 101.16 7.74524C107.979 9.57502 110.22 17.0612 108.387 25.1446C106.541 33.2827 101.348 38.5988 94.5737 36.7809ZM101.294 24.1157C100.57 27.3059 99.1937 32.3621 95.7406 31.4355C94.2537 31.0365 93.3679 30.0389 93.2531 28.0856C93.1153 25.8309 93.6282 23.1675 94.1268 20.9692C94.8879 17.6139 96.3113 12.1607 99.9365 13.1335C103.566 14.1073 102.053 20.7694 101.319 24.0031C101.311 24.0411 101.302 24.0786 101.294 24.1157Z" fill="#00B917"/>
</svg>
