<svg width="132" height="110" viewBox="0 0 132 110" fill="none" xmlns="http://www.w3.org/2000/svg">
<path fill-rule="evenodd" clip-rule="evenodd" d="M115.884 97.0472C104.878 105.675 88.9961 110.151 75.3593 109.996C56.2479 109.78 39.1104 101.915 26.2084 89.0003C25.1959 87.9871 26.1212 86.6264 27.3424 87.4178C41.3083 96.4543 58.6331 101.996 76.5812 102.199C88.6878 102.337 102.022 99.7598 114.323 94.2582C116.179 93.4291 117.706 95.6176 115.884 97.0472Z" fill="#E21818"/>
<path fill-rule="evenodd" clip-rule="evenodd" d="M120.485 91.4631C119.105 89.5054 111.257 90.4392 107.732 90.8574C106.664 90.9824 106.509 89.9709 107.477 89.2479C113.774 84.5509 124.006 86.0428 125.182 87.6546C126.367 89.2763 124.746 100.411 118.834 105.669C117.924 106.476 117.071 106.031 117.481 104.953C118.835 101.394 121.865 93.4225 120.485 91.4631Z" fill="#E21818"/>
<path fill-rule="evenodd" clip-rule="evenodd" d="M108.347 55.3416V50.7217C108.344 50.5669 108.369 50.4129 108.422 50.2691C108.475 50.1252 108.554 49.9946 108.655 49.8851C108.756 49.7756 108.876 49.6895 109.009 49.6321C109.141 49.5746 109.283 49.5471 109.425 49.5511L128.494 49.5494C129.104 49.5494 129.593 50.0319 129.596 50.7169L129.593 54.6775C129.587 55.3416 129.072 56.2083 128.158 57.5848L118.281 72.8949C121.949 72.8016 125.826 73.3966 129.158 75.4307C129.91 75.8874 130.113 76.5676 130.171 77.2334V82.1604C130.171 82.8406 129.485 83.6253 128.768 83.2169C122.897 79.8802 115.109 79.5135 108.618 83.257C107.955 83.6382 107.262 82.8663 107.262 82.1845V77.5019C107.262 76.7509 107.273 75.4677 107.971 74.3244L119.414 56.5026L109.451 56.501C108.839 56.5058 108.352 56.0347 108.347 55.3416ZM38.7887 84.1897L32.987 84.1929C32.7251 84.1794 32.4763 84.0645 32.2858 83.8688C32.0953 83.6732 31.9757 83.41 31.9487 83.1268L31.9532 50.8021C31.9532 50.1557 32.4538 49.6395 33.0714 49.6395L38.4747 49.6379C39.0405 49.6701 39.4938 50.1348 39.5293 50.7233V54.9428H39.6375C41.046 50.8616 43.6988 48.9577 47.2729 48.9577C50.9002 48.9577 53.1753 50.8616 54.8001 54.9428C56.2087 50.8616 59.4036 48.9577 62.8147 48.9577C65.2512 48.9577 67.9055 50.0447 69.5303 52.4954C71.3699 55.2146 70.9922 59.1623 70.9922 62.6308L70.9893 83.0303C70.9893 83.6767 70.4872 84.1929 69.8695 84.1929L64.0752 84.1961C63.7979 84.1823 63.5358 84.0545 63.3422 83.8386C63.1485 83.6227 63.0378 83.3348 63.0325 83.0335L63.031 65.8967C63.031 64.5363 63.1391 61.1353 62.8695 59.8425C62.437 57.6652 61.1366 57.0541 59.4584 57.0541C58.0498 57.0541 56.5879 58.0752 55.9925 59.7058C55.397 61.3396 55.4504 64.0603 55.4504 65.8967V83.0303C55.4504 83.6767 54.9497 84.1929 54.3306 84.1929L48.5378 84.1961C48.2605 84.1823 47.9984 84.0545 47.8048 83.8386C47.6111 83.6227 47.5004 83.3348 47.495 83.0335L47.4891 65.8967C47.4891 62.2899 48.0297 56.985 43.9151 56.985C39.7456 56.985 39.9085 62.1548 39.9085 65.8967L39.9055 83.0303C39.9085 83.6751 39.4079 84.1897 38.7887 84.1897ZM17.0971 68.7542C17.0971 71.208 17.1519 73.2535 16.0114 75.434C15.0886 77.2076 13.6238 78.2963 11.996 78.2963C9.77125 78.2963 8.4693 76.4551 8.4693 73.7294C8.4693 68.3667 12.9009 67.389 17.0986 67.389L17.0971 68.7542ZM22.9447 84.1109C22.7578 84.285 22.5261 84.3925 22.2809 84.4187C22.0358 84.4448 21.7892 84.3885 21.5746 84.2572C19.6476 82.5173 19.3025 81.7149 18.2494 80.0603C15.0649 83.5819 12.8091 84.64 8.68407 84.64C3.79919 84.64 0 81.3676 0 74.8229C0 69.7094 2.55205 66.2344 6.18683 64.5299C9.3343 63.0296 13.7304 62.7562 17.0956 62.3478V61.5293C17.0956 60.029 17.2037 58.257 16.3891 56.9625C15.6841 55.8031 14.3273 55.3255 13.1335 55.3255C10.9206 55.3255 8.95364 56.5573 8.47078 59.1076C8.37155 59.6752 7.9894 60.2364 7.46359 60.2654L1.84109 59.6061C1.36563 59.4903 0.838338 59.0754 0.976087 58.2891C2.26766 50.8825 8.42783 48.6457 13.9496 48.6457C16.7712 48.6457 20.4608 49.4626 22.687 51.7814C25.5086 54.6437 25.2376 58.4628 25.2376 62.6212V72.4334C25.2376 75.3841 26.3662 76.6786 27.4267 78.2689C27.797 78.8414 27.8814 79.5232 27.409 79.9429C26.224 81.0203 24.1193 83.0062 22.961 84.127L22.9447 84.1109ZM93.146 68.7542C93.146 71.208 93.2008 73.2535 92.0618 75.434C91.139 77.2076 89.6742 78.2963 88.0464 78.2963C85.8217 78.2963 84.5182 76.4551 84.5182 73.7294C84.5182 68.3667 88.9514 67.389 93.1475 67.389L93.146 68.7542ZM98.9951 84.1109C98.8078 84.2848 98.5758 84.392 98.3306 84.4182C98.0853 84.4443 97.8385 84.3882 97.6236 84.2572C95.6966 82.5173 95.3515 81.7149 94.2984 80.0603C91.1153 83.5819 88.8595 84.64 84.7345 84.64C79.8511 84.64 76.0504 81.3676 76.0504 74.8229C76.0504 69.7094 78.601 66.2344 82.2372 64.5299C85.3847 63.0296 89.7808 62.7562 93.146 62.3478V61.5293C93.146 60.029 93.2556 58.257 92.441 56.9625C91.7345 55.8031 90.3792 55.3255 89.1854 55.3255C86.9725 55.3255 85.0055 56.5573 84.5227 59.1076C84.422 59.6752 84.0413 60.2364 83.514 60.2654L77.8915 59.6061C77.4161 59.4903 76.8873 59.0754 77.025 58.2891C78.3181 50.8825 84.4768 48.6457 89.9985 48.6457C92.8202 48.6457 96.5098 49.4626 98.7359 51.7814C101.558 54.6437 101.288 58.4628 101.288 62.6212V72.4334C101.288 75.3841 102.417 76.6786 103.477 78.2689C103.847 78.8414 103.93 79.5232 103.458 79.9429C102.271 81.0203 100.167 83.0062 99.0085 84.127L98.9951 84.1109Z" fill="white"/>
<path d="M103.803 5.38613L98.2227 3.96119C97.9427 3.8833 97.6457 3.92809 97.3958 4.08591C97.146 4.24373 96.9633 4.50191 96.8873 4.80469L93.2366 21.6154C92.7799 23.7183 92.2631 25.5975 91.0639 27.3022C90.1063 28.6522 88.6378 29.3157 87.2774 28.9675C83.4077 27.977 84.8583 23.0776 85.6003 19.6608L89.2813 2.7103C89.3036 2.43693 89.2377 2.16366 89.0949 1.93722C88.9521 1.71078 88.7412 1.54524 88.4984 1.46888L82.8814 0.0344125C82.3249 -0.108026 81.7769 0.204179 81.5924 0.740602L77.3262 20.3857C76.6695 23.4096 75.7565 27.6138 76.678 30.4842C77.6621 33.5805 79.9074 35.1946 82.4166 35.8368C86.2891 36.8281 88.9272 35.354 91.4226 31.4843L91.5285 31.5114L90.4913 36.2872C90.4946 36.5446 90.5747 36.7939 90.7198 36.9975C90.8649 37.2011 91.067 37.348 91.2957 37.4161L96.4933 38.7448C97.0612 38.8902 97.6218 38.5615 97.7932 38.0021L104.564 6.76643C104.623 6.47433 104.576 6.16907 104.435 5.91268C104.293 5.65629 104.067 5.46802 103.803 5.38613Z" fill="#00B917"/>
<path fill-rule="evenodd" clip-rule="evenodd" d="M56.0339 40.0237C55.8463 40.1984 55.6137 40.3062 55.3677 40.3325C55.1217 40.3588 54.8743 40.3022 54.6589 40.1705C53.0194 38.6902 52.5209 37.8861 51.7631 36.6637C51.6271 36.4443 51.4827 36.2113 51.3218 35.9586C48.1259 39.4927 45.862 40.5546 41.7223 40.5546C36.8199 40.5546 33.0071 37.2706 33.0071 30.7025C33.0071 25.5707 35.5683 22.0833 39.2161 20.3727C41.8882 19.099 45.457 18.7064 48.5376 18.3676C49.0987 18.3059 49.6435 18.2459 50.1638 18.1828V17.3614C50.1638 17.2055 50.165 17.0468 50.1662 16.8859C50.1764 15.4927 50.1877 13.9429 49.4548 12.7782C48.7473 11.6147 47.3857 11.1354 46.1876 11.1354C43.9668 11.1354 41.9928 12.3716 41.5082 14.931C41.4086 15.5007 41.0251 16.0639 40.4974 16.0929L34.8548 15.4313C34.3777 15.3151 33.8485 14.8987 33.9867 14.1096C35.2829 6.67653 41.4651 4.43176 47.0066 4.43176C49.8383 4.43176 53.5411 5.25156 55.7752 7.57863C58.377 10.2179 58.3586 13.6678 58.3385 17.4476C58.3367 17.7817 58.3349 18.1183 58.3349 18.4571V28.3044C58.3349 30.9492 59.2384 32.2681 60.1898 33.6569C60.3036 33.8231 60.4181 33.9902 60.5319 34.1608C60.9035 34.7353 60.9882 35.4196 60.5141 35.8408C59.3249 36.922 57.2126 38.915 56.0502 40.0398L56.0339 40.0237ZM50.1655 24.9359C50.1654 24.8287 50.1653 24.7208 50.1653 24.6121L50.1668 23.242C45.9542 23.242 41.5067 24.2232 41.5067 29.6051C41.5067 32.3405 42.8133 34.1882 45.046 34.1882C46.6796 34.1882 48.1497 33.0957 49.0758 31.3157C50.1698 29.224 50.1679 27.2562 50.1655 24.9359Z" fill="#E21818"/>
<path d="M4.7356 41.1764L10.5328 41.1732C10.8251 41.1793 11.1079 41.0604 11.3201 40.8421C11.5323 40.6238 11.6569 40.3236 11.667 40.0064V22.5389C11.667 20.3538 11.774 18.3737 12.5901 16.3936C13.2441 14.8234 14.5477 13.8002 15.9613 13.8002C19.9822 13.8002 19.6017 18.9885 19.6017 22.5389V40.1517C19.6382 40.4264 19.7615 40.6787 19.9505 40.8657C20.1395 41.0526 20.3824 41.1624 20.6377 41.1764L26.4736 41.1732C27.0518 41.1732 27.5245 40.7278 27.5914 40.1533V19.7406C27.5914 16.5985 27.5914 12.23 26.0707 9.63668C24.4401 6.83677 21.8849 5.81364 19.2776 5.81364C15.2538 5.81364 12.9721 7.9293 11.3429 12.3672H11.2329V7.40483C11.1747 7.15226 11.0425 6.92707 10.8562 6.7632C10.6698 6.59932 10.4395 6.50563 10.1998 6.49627L4.79952 6.49788C4.2094 6.49788 3.72779 6.96265 3.67874 7.55652L3.69063 40.0096C3.69562 40.3119 3.80644 40.6007 4.00055 40.8174C4.19465 41.0341 4.45746 41.1625 4.7356 41.1764Z" fill="#E21818"/>
<path fill-rule="evenodd" clip-rule="evenodd" d="M114.53 44.4605C106.117 42.2072 103.347 33.1448 105.613 23.174C107.803 13.5348 114.571 7.23702 122.506 9.36238C130.763 11.5742 133.478 20.6234 131.257 30.3946C129.022 40.2318 122.734 46.6579 114.53 44.4605ZM122.668 29.1508C121.791 33.0071 120.124 39.119 115.943 37.9989C114.142 37.5166 113.069 36.3107 112.93 33.9496C112.764 31.2242 113.385 28.0047 113.988 25.3474C114.91 21.2915 116.634 14.6997 121.024 15.8756C125.419 17.0528 123.588 25.1058 122.699 29.0147C122.688 29.0607 122.678 29.106 122.668 29.1508Z" fill="#00B917"/>
</svg>
