<svg width="365" height="245" viewBox="0 0 365 245" fill="none" xmlns="http://www.w3.org/2000/svg">
<path d="M224.126 168.22C245.851 162.321 253.678 122.71 241.607 79.7449C229.536 36.7799 202.139 6.73151 180.414 12.6298C175.469 13.9724 171.244 17.0615 167.81 21.5393C162.73 34.7172 160.963 52.2904 163.049 71.6944L211.12 66.9672C217.766 65.1631 225.671 72.6626 228.777 83.7179C231.883 94.7732 229.013 105.198 222.368 107.002L178.387 126.287C186.727 143.993 197.418 158.184 208.657 166.932C213.942 169.042 219.181 169.562 224.126 168.22Z" fill="url(#paint0_linear_84_109)"/>
<path d="M72.9136 147.168L30.7995 158.602L39.2001 177.866L58.0196 241.306C58.9149 244.496 59.8929 245.565 63.4629 244.725L92.9109 236.846C95.8677 235.692 96.7519 233.542 95.7916 230.238L89.5294 206.311L72.9136 147.168Z" fill="url(#paint1_linear_84_109)"/>
<path d="M8.99893 145.345C7.39983 139.653 7.65922 134.054 9.36859 129.667C9.28081 129.701 9.1935 129.736 9.1067 129.772C2.30852 132.579 -1.47419 139.979 0.540853 147.151C2.48764 154.081 9.19022 158.463 16.2249 157.831C16.3225 157.822 16.4203 157.812 16.518 157.802C16.5035 157.789 15.8318 157.216 15.8173 157.204C12.5176 154.278 10.45 150.51 8.99893 145.345Z" fill="url(#paint2_linear_84_109)"/>
<path d="M72.2689 148.935C65.394 146.54 59.1421 139.442 56.4902 130.003C54.133 121.613 55.1826 113.375 58.7111 107.769L19.11 121.056C15.266 122.099 10.9794 125.533 9.36859 129.667C7.65922 134.054 7.39983 139.653 8.99893 145.345C10.45 150.51 12.5176 154.278 15.8173 157.204L16.518 157.802C20.2721 161.111 26.1925 162.221 31.2832 160.839L73.305 149.179L72.745 149.093L72.2689 148.935Z" fill="url(#paint3_linear_84_109)"/>
<path d="M167.81 21.5393C167.868 21.3867 167.928 21.2346 167.987 21.0832C168.794 19.0376 169.682 17.1003 170.648 15.2811L61.6927 104.198L60.8863 104.976C60.0824 105.809 59.3554 106.745 58.7111 107.769C55.1826 113.375 54.133 121.613 56.4902 130.003C59.1421 139.442 65.394 146.54 72.2689 148.935L72.745 149.093L73.305 149.179L214.563 170.848C212.773 169.768 210.842 168.542 209.072 167.184L208.795 166.962C208.847 166.983 208.605 166.911 208.657 166.932C192.209 154.13 176.935 129.671 168.486 99.5968C165.81 90.0729 164.016 80.6871 163.049 71.6944C160.963 52.2904 162.73 34.7172 167.81 21.5393Z" fill="url(#paint4_linear_84_109)"/>
<path d="M222.368 107.002C215.723 108.806 207.818 101.307 204.712 90.2514C201.606 79.1961 204.475 68.7714 211.12 66.9672L163.049 71.6944C164.016 80.6871 165.81 90.0729 168.486 99.5968C171.162 109.121 174.522 118.081 178.387 126.287L222.368 107.002Z" fill="url(#paint5_linear_84_109)"/>
<path d="M222.368 107.002C229.013 105.198 231.883 94.7732 228.777 83.7179C225.671 72.6626 217.766 65.1631 211.12 66.9672C204.475 68.7714 201.606 79.1961 204.712 90.2514C207.818 101.307 215.723 108.806 222.368 107.002Z" fill="url(#paint6_linear_84_109)"/>
<path d="M239.6 175.428C265.159 168.489 274.904 123.797 261.364 75.6052C247.825 27.4137 216.13 -6.0279 190.57 0.91131C182.501 3.10208 175.061 7.44527 170.379 16.0841C169.406 17.8795 168.511 19.791 167.697 21.8087L167.517 22.2585C170.967 17.8348 176.147 16.3858 181.092 15.0432C202.817 9.14491 230.054 38.622 241.927 80.8823C253.8 123.142 245.813 162.183 224.087 168.081C219.142 169.424 213.899 168.962 208.629 166.906C208.748 166.997 208.881 167.059 209.001 167.15C210.763 168.48 212.539 169.676 214.322 170.732C222.85 175.785 231.531 177.619 239.6 175.428Z" fill="url(#paint7_linear_84_109)"/>
<path d="M259.654 31.2604L237.633 58.3045C235.44 60.9974 238.814 64.6432 241.663 62.6602L258.917 50.6529C260.467 49.5743 262.615 50.1829 263.37 51.9147L271.268 70.0202C272.263 72.2997 275.438 72.4452 276.636 70.2662L303.937 20.6166C305.492 17.7882 302.095 14.8352 299.516 16.7732L272.796 36.8478C271.536 37.7943 269.76 37.6019 268.731 36.4076L264.243 31.1969C263.027 29.7846 260.831 29.815 259.654 31.2604Z" fill="url(#paint8_linear_84_109)"/>
<path d="M325.737 78.633L294.421 83.5427C290.771 84.1149 291.19 89.5022 294.884 89.5022H311.463C313.432 89.5022 314.865 91.3724 314.355 93.2764L309.027 113.168C308.393 115.534 310.707 117.621 312.991 116.744L363.076 97.5137C366.078 96.3609 365.402 91.9263 362.193 91.7229L330.82 89.7344C328.929 89.6145 327.623 87.7876 328.12 85.9565L329.09 82.3808C329.659 80.2843 327.881 78.2969 325.737 78.633Z" fill="url(#paint9_linear_84_109)"/>
<defs>
<linearGradient id="paint0_linear_84_109" x1="182.5" y1="0" x2="182.5" y2="245" gradientUnits="userSpaceOnUse">
<stop stop-color="#7301F6"/>
<stop offset="1" stop-color="#75009E"/>
</linearGradient>
<linearGradient id="paint1_linear_84_109" x1="300.037" y1="8.40876" x2="300.037" y2="118.85" gradientUnits="userSpaceOnUse">
<stop stop-color="#00CED0"/>
<stop offset="1" stop-color="#005AC4"/>
</linearGradient>
<linearGradient id="paint2_linear_84_109" x1="182.5" y1="0" x2="182.5" y2="245" gradientUnits="userSpaceOnUse">
<stop stop-color="#EB2081"/>
<stop offset="1" stop-color="#B40000"/>
</linearGradient>
<linearGradient id="paint3_linear_84_109" x1="182.5" y1="0" x2="182.5" y2="245" gradientUnits="userSpaceOnUse">
<stop stop-color="#7301F6"/>
<stop offset="1" stop-color="#75009E"/>
</linearGradient>
<linearGradient id="paint4_linear_84_109" x1="182.5" y1="0" x2="182.5" y2="245" gradientUnits="userSpaceOnUse">
<stop stop-color="#EB2081"/>
<stop offset="1" stop-color="#B40000"/>
</linearGradient>
<linearGradient id="paint5_linear_84_109" x1="300.037" y1="8.40876" x2="300.037" y2="118.85" gradientUnits="userSpaceOnUse">
<stop stop-color="#00CED0"/>
<stop offset="1" stop-color="#005AC4"/>
</linearGradient>
<linearGradient id="paint6_linear_84_109" x1="182.5" y1="0" x2="182.5" y2="245" gradientUnits="userSpaceOnUse">
<stop stop-color="#EB2081"/>
<stop offset="1" stop-color="#B40000"/>
</linearGradient>
<linearGradient id="paint7_linear_84_109" x1="182.5" y1="0" x2="182.5" y2="245" gradientUnits="userSpaceOnUse">
<stop stop-color="#EB2081"/>
<stop offset="1" stop-color="#B40000"/>
</linearGradient>
<linearGradient id="paint8_linear_84_109" x1="300.037" y1="8.40876" x2="300.037" y2="118.85" gradientUnits="userSpaceOnUse">
<stop stop-color="#00CED0"/>
<stop offset="1" stop-color="#005AC4"/>
</linearGradient>
<linearGradient id="paint9_linear_84_109" x1="300.037" y1="8.40876" x2="300.037" y2="118.85" gradientUnits="userSpaceOnUse">
<stop stop-color="#00CED0"/>
<stop offset="1" stop-color="#005AC4"/>
</linearGradient>
</defs>
</svg>
