<svg width="511" height="510" viewBox="0 0 511 510" fill="none" xmlns="http://www.w3.org/2000/svg">
<path d="M21.4706 254.607C21.4706 205.293 37.1166 157.244 66.1663 117.347L255.5 254.607L21.4706 254.607Z" fill="url(#paint0_linear_110_2610)"/>
<path d="M66.1662 391.867C37.1166 351.97 21.4706 303.922 21.4706 254.607L255.5 254.607L66.1662 391.867Z" fill="url(#paint1_linear_110_2610)"/>
<path d="M183.181 476.698C136.178 461.459 95.2159 431.763 66.1663 391.867L255.5 254.607L183.181 476.698Z" fill="url(#paint2_linear_110_2610)"/>
<path d="M327.819 476.698C280.816 491.937 230.184 491.937 183.181 476.698L255.5 254.607L327.819 476.698Z" fill="url(#paint3_linear_110_2610)"/>
<path d="M444.834 391.867C415.784 431.763 374.823 461.459 327.819 476.698L255.5 254.607L444.834 391.867Z" fill="url(#paint4_linear_110_2610)"/>
<path d="M444.834 117.348C473.883 157.244 489.529 205.293 489.529 254.607L255.5 254.607L444.834 117.348Z" fill="url(#paint5_linear_110_2610)"/>
<path d="M327.819 32.5164C374.823 47.7555 415.784 77.4512 444.834 117.348L255.5 254.607L327.819 32.5164Z" fill="url(#paint6_linear_110_2610)"/>
<path d="M183.181 32.5164C230.184 17.2773 280.816 17.2773 327.819 32.5164L255.5 254.607L183.181 32.5164Z" fill="url(#paint7_linear_110_2610)"/>
<path d="M66.1663 117.347C95.2159 77.4512 136.178 47.7554 183.181 32.5164L255.5 254.607L66.1663 117.347Z" fill="url(#paint8_linear_110_2610)"/>
<path d="M489.529 254.607C489.529 303.922 473.883 351.97 444.834 391.867L255.5 254.607L489.529 254.607Z" fill="url(#paint9_linear_110_2610)"/>
<path d="M255.5 20.9543C114.391 20.9543 7.33653e-05 135.097 6.10352e-05 275.898L22.9951 275.898C22.9951 147.769 127.091 43.8993 255.5 43.8993C383.909 43.8993 488.005 147.769 488.005 275.898L511 275.898C511 135.097 396.609 20.9543 255.5 20.9543Z" fill="#0D0D0D" fill-opacity="0.2"/>
<path d="M8.33609e-05 254.944C9.56911e-05 114.142 114.391 2.64213e-05 255.5 3.87365e-05C396.609 5.10517e-05 511 114.142 511 254.944C511 395.746 396.609 509.888 255.5 509.888C114.391 509.888 7.10307e-05 395.746 8.33609e-05 254.944ZM488.005 254.944C488.005 126.814 383.909 22.945 255.5 22.945C127.091 22.945 22.9951 126.814 22.9951 254.944C22.9951 383.073 127.091 486.943 255.5 486.943C383.909 486.943 488.005 383.073 488.005 254.944Z" fill="white"/>
<defs>
<linearGradient id="paint0_linear_110_2610" x1="28.4232" y1="174.176" x2="255.698" y2="254.948" gradientUnits="userSpaceOnUse">
<stop stop-color="#FF8F00"/>
<stop offset="1" stop-color="#E51A31"/>
</linearGradient>
<linearGradient id="paint1_linear_110_2610" x1="21.4706" y1="323.99" x2="255.726" y2="254.357" gradientUnits="userSpaceOnUse">
<stop stop-color="#DDC703"/>
<stop offset="1" stop-color="#F98304"/>
</linearGradient>
<linearGradient id="paint2_linear_110_2610" x1="113.075" y1="447" x2="255.407" y2="254.339" gradientUnits="userSpaceOnUse">
<stop stop-color="#76AF25"/>
<stop offset="1" stop-color="#FCE601"/>
</linearGradient>
<linearGradient id="paint3_linear_110_2610" x1="255.5" y1="488.127" x2="255.808" y2="254.636" gradientUnits="userSpaceOnUse">
<stop stop-color="#03A600"/>
<stop offset="1" stop-color="#A0BD2E"/>
</linearGradient>
<linearGradient id="paint4_linear_110_2610" x1="411.041" y1="443.406" x2="256.213" y2="254.305" gradientUnits="userSpaceOnUse">
<stop stop-color="#00889B"/>
<stop offset="1" stop-color="#07A917"/>
</linearGradient>
<linearGradient id="paint5_linear_110_2610" x1="476.089" y1="175.717" x2="251.592" y2="254.942" gradientUnits="userSpaceOnUse">
<stop stop-color="#3E43B7"/>
<stop offset="1" stop-color="#00ABE6"/>
</linearGradient>
<linearGradient id="paint6_linear_110_2610" x1="394.836" y1="65.6627" x2="256.213" y2="262.011" gradientUnits="userSpaceOnUse">
<stop stop-color="#AD37B7"/>
<stop offset="1" stop-color="#3551BD"/>
</linearGradient>
<linearGradient id="paint7_linear_110_2610" x1="255.5" y1="21.0871" x2="255.808" y2="254.636" gradientUnits="userSpaceOnUse">
<stop stop-color="#F158A2"/>
<stop offset="1" stop-color="#8325AC"/>
</linearGradient>
<linearGradient id="paint8_linear_110_2610" x1="101.644" y1="45.0082" x2="255.373" y2="254.955" gradientUnits="userSpaceOnUse">
<stop stop-color="#EE1B22"/>
<stop offset="1" stop-color="#E42490"/>
</linearGradient>
<linearGradient id="paint9_linear_110_2610" x1="481.341" y1="322.456" x2="255.891" y2="254.364" gradientUnits="userSpaceOnUse">
<stop stop-color="#00ADEF"/>
<stop offset="1" stop-color="#009C87"/>
</linearGradient>
</defs>
</svg>
