<svg width="40" height="40" viewBox="0 0 40 40" fill="none" xmlns="http://www.w3.org/2000/svg">
<circle cx="20" cy="20" r="20" fill="url(#paint0_linear_46_621)"/>
<path d="M27.6163 28.1987C28.0583 26.8426 30.1295 13.3281 30.3855 10.6651C30.4628 9.85862 30.2079 9.32268 29.7084 9.08344C29.1043 8.79301 28.2098 8.93822 27.1721 9.31223C25.7488 9.82519 7.55329 17.5488 6.50202 17.9959C5.50509 18.4191 4.5625 18.8808 4.5625 19.5494C4.5625 20.0196 4.84152 20.2839 5.61064 20.5586C6.41111 20.8439 8.42691 21.455 9.61717 21.7831C10.7635 22.0996 12.0687 21.8249 12.8002 21.3704C13.5756 20.8888 22.524 14.9025 23.1667 14.3781C23.8083 13.8536 24.3203 14.5254 23.7957 15.0509C23.2712 15.5753 17.1286 21.5355 16.3188 22.3608C15.3354 23.3627 16.0335 24.4011 16.6929 24.8169C17.4463 25.2912 22.8646 28.9248 23.6808 29.5077C24.4969 30.0907 25.3246 30.355 26.0822 30.355C26.8398 30.355 27.239 29.3573 27.6163 28.1987Z" fill="white"/>
<defs>
<linearGradient id="paint0_linear_46_621" x1="20" y1="0" x2="20" y2="40" gradientUnits="userSpaceOnUse">
<stop stop-color="#039BE5"/>
<stop offset="1" stop-color="#002FD6"/>
</linearGradient>
</defs>
</svg>
