<svg width="40" height="40" viewBox="0 0 40 40" fill="none" xmlns="http://www.w3.org/2000/svg">
<circle cx="20" cy="20" r="20" fill="url(#paint0_linear_46_625)"/>
<g clip-path="url(#clip0_46_625)">
<path fill-rule="evenodd" clip-rule="evenodd" d="M25.2882 16.5379C26.8885 17.6869 28.8492 18.3624 30.9663 18.3624V14.2697C30.5652 14.2697 30.1662 14.2278 29.7742 14.1442V17.3655C27.6571 17.3655 25.6974 16.689 24.0962 15.5411V23.8917C24.0962 28.0691 20.7241 31.4556 16.5651 31.4556C15.0136 31.4556 13.5707 30.9842 12.3726 30.1761C13.7403 31.5801 15.6472 32.4515 17.7571 32.4515C21.9162 32.4515 25.2882 29.0649 25.2882 24.8876V16.5379ZM26.7595 12.4096C25.9422 11.5127 25.405 10.3525 25.2882 9.06992V8.54341H24.1581C24.4424 10.1729 25.4131 11.5657 26.7595 12.4096ZM15.0034 26.9712C14.5465 26.3691 14.2998 25.6335 14.3008 24.8763C14.3008 22.9652 15.8431 21.4163 17.746 21.4163C18.1003 21.4163 18.4527 21.4704 18.7908 21.5785V17.3951C18.3958 17.341 17.9978 17.3175 17.5987 17.3257V20.5816C17.2606 20.4735 16.9083 20.4194 16.5529 20.4194C14.6501 20.4194 13.1077 21.9683 13.1077 23.8795C13.1087 25.2314 13.8794 26.4018 15.0034 26.9712Z" fill="#EC407A"/>
<path fill-rule="evenodd" clip-rule="evenodd" d="M24.0961 15.5411C25.6964 16.69 27.6571 17.3655 29.7742 17.3655V14.1442C28.5923 13.8911 27.5464 13.2707 26.7595 12.4085C25.4131 11.5647 24.4434 10.1729 24.1591 8.54341H21.1911V24.8876C21.184 26.7926 19.6447 28.3354 17.7459 28.3354C16.627 28.3354 15.6329 27.7997 15.0034 26.9701C13.8794 26.4008 13.1087 25.2304 13.1087 23.8795C13.1087 21.9683 14.651 20.4194 16.5539 20.4194C16.9184 20.4194 17.2697 20.4765 17.5997 20.5816V17.3267C13.5138 17.4114 10.228 20.7643 10.228 24.8886C10.228 26.9477 11.0464 28.8139 12.3745 30.1771C13.5727 30.9853 15.0156 31.4567 16.5671 31.4567C20.7261 31.4567 24.0982 28.0701 24.0982 23.8927L24.0961 15.5411Z" fill="white"/>
<path fill-rule="evenodd" clip-rule="evenodd" d="M29.7744 14.1452V13.2738C28.7083 13.2758 27.6645 12.9758 26.7597 12.4085C27.5599 13.2891 28.6138 13.8962 29.7744 14.1452ZM24.1583 8.54339C24.1309 8.38727 24.1106 8.23116 24.0964 8.073V7.54649H19.9983V23.8917C19.9922 25.7967 18.4519 27.3395 16.5531 27.3395C15.9957 27.3395 15.4697 27.2068 15.0036 26.9701C15.6332 27.7997 16.6272 28.3353 17.7462 28.3353C19.6449 28.3353 21.1843 26.7926 21.1914 24.8875V8.54339H24.1583ZM17.5989 17.3267V16.3992C17.2568 16.3522 16.9115 16.3287 16.5653 16.3287C12.4053 16.3287 9.03418 19.7153 9.03418 23.8927C9.03418 26.512 10.3593 28.82 12.3728 30.1771C11.0446 28.8139 10.2262 26.9477 10.2262 24.8886C10.2262 20.7643 13.513 17.4114 17.5989 17.3267Z" fill="#81D4FA"/>
</g>
<defs>
<linearGradient id="paint0_linear_46_625" x1="20" y1="0" x2="20" y2="40" gradientUnits="userSpaceOnUse">
<stop/>
<stop offset="1" stop-color="#1B0053"/>
</linearGradient>
<clipPath id="clip0_46_625">
<rect width="22.1538" height="25.2308" fill="white" transform="translate(8.92334 7.38463)"/>
</clipPath>
</defs>
</svg>
