<svg width="30" height="30" viewBox="0 0 31 30" fill="none" xmlns="http://www.w3.org/2000/svg">
<path fill-rule="evenodd" clip-rule="evenodd" d="M21.573 11.1784C23.3399 12.447 25.5049 13.1929 27.8426 13.1929V8.67375C27.3997 8.67375 26.9591 8.62755 26.5263 8.53517V12.0921C24.1887 12.0921 22.0248 11.3451 20.2567 10.0776V19.2983C20.2567 23.9109 16.5332 27.6504 11.9409 27.6504C10.2277 27.6504 8.63452 27.1299 7.31152 26.2375C8.82176 27.7878 10.9273 28.75 13.2572 28.75C17.8495 28.75 21.573 25.0106 21.573 20.398V11.1784ZM23.1975 6.61981C22.295 5.62946 21.7019 4.34843 21.573 2.9322V2.35083H20.3251C20.639 4.15014 21.7109 5.68805 23.1975 6.61981ZM10.2165 22.6986C9.71197 22.0339 9.43952 21.2216 9.44065 20.3856C9.44065 18.2753 11.1437 16.565 13.2448 16.565C13.6361 16.565 14.0252 16.6247 14.3985 16.7441V12.1248C13.9624 12.065 13.5229 12.0391 13.0822 12.0481V15.6434C12.7089 15.5239 12.3198 15.4642 11.9274 15.4642C9.82633 15.4642 8.12326 17.1745 8.12326 19.2848C8.12438 20.7777 8.97536 22.07 10.2165 22.6986Z" fill="#EB204F"/>
<path fill-rule="evenodd" clip-rule="evenodd" d="M20.2565 10.0776C22.0234 11.3462 24.1884 12.0921 26.5261 12.0921V8.53517C25.2211 8.25575 24.0662 7.57073 23.1973 6.61869C21.7106 5.68692 20.6399 4.15014 20.326 2.35083H17.0488V20.398C17.0409 22.5015 15.3412 24.205 13.2446 24.205C12.009 24.205 10.9114 23.6135 10.2163 22.6975C8.97513 22.0688 8.12415 20.7765 8.12415 19.2848C8.12415 17.1745 9.82723 15.4642 11.9283 15.4642C12.3308 15.4642 12.7188 15.5273 13.0831 15.6434V12.0493C8.5715 12.1428 4.94336 15.8451 4.94336 20.3991C4.94336 22.6727 5.84703 24.7334 7.31354 26.2387C8.63653 27.131 10.2297 27.6515 11.9429 27.6515C16.5353 27.6515 20.2587 23.9121 20.2587 19.2994L20.2565 10.0776Z" fill="white"/>
<path fill-rule="evenodd" clip-rule="evenodd" d="M26.5263 8.53623V7.57405C25.349 7.5763 24.1964 7.24505 23.1975 6.61862C24.081 7.59094 25.2448 8.26132 26.5263 8.53623ZM20.325 2.35076C20.2947 2.17838 20.2723 2.006 20.2566 1.83137V1.25H15.7315V19.2983C15.7248 21.4018 14.024 23.1053 11.9274 23.1053C11.3118 23.1053 10.7311 22.9588 10.2164 22.6974C10.9116 23.6134 12.0092 24.2049 13.2447 24.2049C15.3414 24.2049 17.0411 22.5014 17.0489 20.3979V2.35076H20.325ZM13.0822 12.0492V11.0251C12.7043 10.9732 12.3231 10.9473 11.9408 10.9473C7.34733 10.9473 3.625 14.6868 3.625 19.2994C3.625 22.1916 5.08814 24.7401 7.31145 26.2386C5.84494 24.7334 4.94127 22.6727 4.94127 20.399C4.94127 15.845 8.57053 12.1427 13.0822 12.0492Z" fill="#09CED0"/>
</svg>
