<svg width="40" height="40" viewBox="0 0 40 40" fill="none" xmlns="http://www.w3.org/2000/svg">
<circle cx="20" cy="20" r="20" fill="url(#paint0_linear_46_618)"/>
<path d="M19.6595 7.38523C18.8506 7.38983 18.0393 7.43811 17.221 7.53698C15.6564 7.72782 14.1057 8.04512 12.6175 8.72341C10.2509 9.80177 8.57268 11.632 8.08591 14.2923C7.87961 15.4143 7.71271 16.5525 7.61768 17.6975C7.43456 19.9209 7.54814 22.1512 8.18326 24.3424C8.68394 26.0692 9.6065 27.6212 11.2221 28.6283C11.9059 29.0536 12.8076 29.2606 13.2782 29.4767C13.4103 29.5388 13.4427 29.5756 13.4497 29.5848C13.4566 29.5917 13.4752 29.6078 13.4729 29.7457C13.4566 31.1529 13.4729 33.8752 13.4729 33.8752L13.4752 34.4616H14.5345L14.706 34.296C14.706 34.296 17.3972 31.7277 18.3707 30.67C18.5469 30.4815 18.6373 30.3757 18.6559 30.3642C18.6721 30.3527 18.6443 30.3458 18.8251 30.3412C20.1023 30.316 21.3772 30.2677 22.652 30.1987C24.3326 30.1067 26.0455 29.9481 27.6936 29.2652C29.1284 28.6697 30.3268 27.6971 31.0524 26.2393C31.7941 24.7448 32.1905 23.1606 32.3388 21.5212C32.5845 18.792 32.4988 16.0581 31.7385 13.3634C31.2911 11.7837 30.3917 10.4479 29.0125 9.50516C27.3622 8.37852 25.5008 7.95545 23.6789 7.68643C22.615 7.53008 21.544 7.42661 20.4685 7.39442C20.1996 7.38753 19.9307 7.38293 19.6595 7.38523ZM20.4361 8.57166C21.4583 8.59925 22.4805 8.69812 23.5051 8.84987C25.2621 9.10969 26.9194 9.50516 28.3403 10.4755C29.4924 11.2618 30.2109 12.3241 30.5957 13.6784C31.305 16.1984 31.3954 18.7805 31.1567 21.4177C31.0199 22.9376 30.656 24.37 29.9861 25.7197C29.395 26.9107 28.4725 27.6672 27.2347 28.1799C25.7975 28.7754 24.2352 28.9341 22.5895 29.0238C21.3285 29.0927 20.0652 29.1387 18.8019 29.164C18.4843 29.1709 18.1737 29.2537 17.9535 29.4146C17.7333 29.5756 17.6336 29.725 17.4969 29.8722C16.8015 30.6264 15.4153 31.953 14.6597 32.6796C14.655 31.8013 14.6481 30.739 14.6597 29.7595C14.6643 29.4583 14.5948 29.1502 14.4209 28.9065C14.2471 28.6628 14.0083 28.5156 13.7788 28.4098C13.109 28.1017 12.2328 27.8672 11.8526 27.6304C10.5244 26.8026 9.77107 25.561 9.3237 24.0159C8.73726 21.9949 8.62599 19.914 8.79984 17.7964C8.89256 16.6973 9.0525 15.596 9.25416 14.5038C9.67603 12.2022 11.0019 10.7537 13.1113 9.79257C14.4441 9.18556 15.8673 8.88666 17.3671 8.70501C18.3893 8.58085 19.4115 8.54176 20.4361 8.57166ZM20.6864 11.5055C20.1973 11.5055 19.7221 11.5607 19.2608 11.6619C18.9433 11.7355 18.7416 12.0505 18.8135 12.3678C18.8853 12.6851 19.2052 12.8828 19.5251 12.8115C19.8983 12.7265 20.2877 12.6828 20.6864 12.6828C23.5839 12.6828 25.9204 15.0004 25.9204 17.8722C25.9204 18.27 25.8763 18.6563 25.7906 19.0288C25.7187 19.3438 25.9181 19.6611 26.2379 19.7324C26.5578 19.8036 26.8754 19.6036 26.9472 19.2863C27.0515 18.831 27.1072 18.3597 27.1072 17.8722C27.1072 14.3635 24.2259 11.5055 20.6864 11.5055ZM14.7663 12.6851C14.6689 12.6805 14.5693 12.6874 14.465 12.7104C13.3871 12.9472 12.3162 13.722 12.2861 15.1062C12.3162 15.2993 12.3139 15.5063 12.3857 15.681C12.7381 16.5364 13.044 17.4193 13.4845 18.2286C15.6286 22.1604 18.8714 24.8942 23.0044 26.6302C23.4981 26.8371 24.0081 26.8808 24.5064 26.6739C25.1925 26.3911 25.7743 25.9542 26.1614 25.3265C26.6923 24.4643 26.6992 23.8665 25.8253 23.2296C25.2528 22.8111 24.6895 22.3811 24.11 21.9719C23.2269 21.3511 22.2719 21.243 21.6136 22.3328C21.5788 22.388 21.5278 22.434 21.4838 22.48C21.1454 22.8364 20.7304 22.9238 20.29 22.7444C18.6188 22.0615 17.3277 20.9602 16.5488 19.3208C16.0899 18.3574 16.215 17.8745 17.0727 17.233C17.1584 17.171 17.2396 17.1043 17.3184 17.033C17.6939 16.6927 17.7936 16.288 17.571 15.8305C17.068 14.7866 16.3982 13.8554 15.5498 13.053C15.3203 12.8368 15.0584 12.7012 14.7663 12.6851ZM20.6771 13.2714C20.4152 13.2714 20.1556 13.2921 19.9006 13.3358C19.685 13.3634 19.5019 13.5059 19.4231 13.7059C19.3443 13.9083 19.3837 14.1359 19.5228 14.3015C19.6642 14.4647 19.8867 14.5406 20.1 14.4946C20.2854 14.4647 20.4801 14.4486 20.6771 14.4486C22.6057 14.4486 24.1541 15.9845 24.1541 17.8975C24.1541 18.093 24.1379 18.2861 24.1077 18.4701C24.0614 18.6816 24.1379 18.9023 24.3024 19.0426C24.4693 19.1805 24.6988 19.2196 24.9028 19.1414C25.1045 19.0633 25.2482 18.8816 25.276 18.6678C25.32 18.4149 25.3409 18.1574 25.3409 17.8975C25.3409 15.3499 23.2454 13.2714 20.6771 13.2714ZM20.5937 15.0372C20.3804 15.0349 20.1811 15.1453 20.0721 15.3292C19.9655 15.5132 19.9655 15.7385 20.0721 15.9225C20.1811 16.1064 20.3804 16.2168 20.5937 16.2145C21.5835 16.2145 22.3739 16.9985 22.3739 17.9803C22.3716 18.1918 22.4828 18.3896 22.6683 18.4976C22.8537 18.6034 23.0809 18.6034 23.2663 18.4976C23.4517 18.3896 23.563 18.1918 23.5607 17.9803C23.5607 16.3616 22.2255 15.0372 20.5937 15.0372Z" fill="white"/>
<defs>
<linearGradient id="paint0_linear_46_618" x1="20" y1="0" x2="20" y2="40" gradientUnits="userSpaceOnUse">
<stop stop-color="#8E24AA"/>
<stop offset="1" stop-color="#9B0082"/>
</linearGradient>
</defs>
</svg>
