<svg width="1911" height="777" viewBox="0 0 1911 777" fill="none" xmlns="http://www.w3.org/2000/svg">
<path d="M869.446 207.314C869.243 206.375 870.373 205.734 871.1 206.377L901.306 233.097C901.631 233.385 902.105 233.435 902.481 233.222L937.665 213.265C938.509 212.786 939.489 213.66 939.091 214.538L922.574 250.985C922.396 251.379 922.497 251.844 922.825 252.134L953.011 278.837C953.74 279.481 953.215 280.662 952.246 280.562L911.818 276.388C911.387 276.343 910.977 276.575 910.801 276.964L894.267 313.449C893.87 314.324 892.567 314.18 892.363 313.238L883.918 274.203C883.826 273.779 883.467 273.46 883.031 273.415L842.645 269.245C841.672 269.144 841.391 267.874 842.235 267.395L877.42 247.437C877.796 247.224 877.988 246.796 877.897 246.375L869.446 207.314Z" fill="#FFC700"/>
<path d="M1236.67 660.638C1236.65 659.677 1237.88 659.258 1238.47 660.025L1263.01 691.867C1263.28 692.21 1263.73 692.347 1264.14 692.208L1302.52 679.124C1303.44 678.81 1304.23 679.857 1303.67 680.645L1280.47 713.37C1280.22 713.725 1280.23 714.203 1280.5 714.55L1305.02 746.36C1305.61 747.128 1304.87 748.193 1303.94 747.916L1265.03 736.327C1264.61 736.204 1264.17 736.355 1263.92 736.703L1240.68 769.481C1240.12 770.266 1238.88 769.878 1238.86 768.914L1238.05 729.02C1238.04 728.585 1237.75 728.203 1237.33 728.077L1198.48 716.507C1197.54 716.229 1197.51 714.924 1198.43 714.61L1236.81 701.526C1237.21 701.387 1237.48 701.002 1237.48 700.572L1236.67 660.638Z" fill="#FFC700"/>
<path fill-rule="evenodd" clip-rule="evenodd" d="M566.758 159.45C567.023 159.934 566.845 160.542 566.361 160.807L497.188 198.686C496.704 198.952 496.096 198.774 495.831 198.289C495.565 197.805 495.743 197.197 496.227 196.932L565.4 159.053C565.885 158.788 566.492 158.965 566.758 159.45Z" fill="#009535"/>
<path fill-rule="evenodd" clip-rule="evenodd" d="M435.607 130.964C435.607 130.411 436.055 129.964 436.607 129.964H438.662C439.215 129.964 439.662 130.411 439.662 130.964C439.662 131.516 439.215 131.964 438.662 131.964H436.607C436.055 131.964 435.607 131.516 435.607 130.964ZM441.773 130.964C441.773 130.411 442.221 129.964 442.773 129.964H446.884C447.436 129.964 447.884 130.411 447.884 130.964C447.884 131.516 447.436 131.964 446.884 131.964H442.773C442.221 131.964 441.773 131.516 441.773 130.964ZM449.994 130.964C449.994 130.411 450.442 129.964 450.994 129.964H455.105C455.657 129.964 456.105 130.411 456.105 130.964C456.105 131.516 455.657 131.964 455.105 131.964H450.994C450.442 131.964 449.994 131.516 449.994 130.964ZM458.216 130.964C458.216 130.411 458.663 129.964 459.216 129.964H463.326C463.879 129.964 464.326 130.411 464.326 130.964C464.326 131.516 463.879 131.964 463.326 131.964H459.216C458.663 131.964 458.216 131.516 458.216 130.964ZM466.437 130.964C466.437 130.411 466.885 129.964 467.437 129.964H471.548C472.1 129.964 472.548 130.411 472.548 130.964C472.548 131.516 472.1 131.964 471.548 131.964H467.437C466.885 131.964 466.437 131.516 466.437 130.964ZM474.658 130.964C474.658 130.411 475.106 129.964 475.658 129.964H479.769C480.321 129.964 480.769 130.411 480.769 130.964C480.769 131.516 480.321 131.964 479.769 131.964H475.658C475.106 131.964 474.658 131.516 474.658 130.964ZM482.88 130.964C482.88 130.411 483.327 129.964 483.88 129.964H487.99C488.543 129.964 488.99 130.411 488.99 130.964C488.99 131.516 488.543 131.964 487.99 131.964H483.88C483.327 131.964 482.88 131.516 482.88 130.964ZM491.101 130.964C491.101 130.411 491.549 129.964 492.101 129.964H496.212C496.764 129.964 497.212 130.411 497.212 130.964C497.212 131.516 496.764 131.964 496.212 131.964H492.101C491.549 131.964 491.101 131.516 491.101 130.964ZM499.322 130.964C499.322 130.411 499.77 129.964 500.322 129.964H504.433C504.985 129.964 505.433 130.411 505.433 130.964C505.433 131.516 504.985 131.964 504.433 131.964H500.322C499.77 131.964 499.322 131.516 499.322 130.964ZM507.544 130.964C507.544 130.411 507.991 129.964 508.544 129.964H512.654C513.207 129.964 513.654 130.411 513.654 130.964C513.654 131.516 513.207 131.964 512.654 131.964H508.544C507.991 131.964 507.544 131.516 507.544 130.964ZM515.765 130.964C515.765 130.411 516.213 129.964 516.765 129.964H520.876C521.428 129.964 521.876 130.411 521.876 130.964C521.876 131.516 521.428 131.964 520.876 131.964H516.765C516.213 131.964 515.765 131.516 515.765 130.964ZM523.986 130.964C523.986 130.411 524.434 129.964 524.986 129.964H529.097C529.649 129.964 530.097 130.411 530.097 130.964C530.097 131.516 529.649 131.964 529.097 131.964H524.986C524.434 131.964 523.986 131.516 523.986 130.964ZM532.208 130.964C532.208 130.411 532.656 129.964 533.208 129.964H537.318C537.871 129.964 538.318 130.411 538.318 130.964C538.318 131.516 537.871 131.964 537.318 131.964H533.208C532.656 131.964 532.208 131.516 532.208 130.964ZM540.429 130.964C540.429 130.411 540.877 129.964 541.429 129.964H545.54C546.092 129.964 546.54 130.411 546.54 130.964C546.54 131.516 546.092 131.964 545.54 131.964H541.429C540.877 131.964 540.429 131.516 540.429 130.964ZM548.65 130.964C548.65 130.411 549.098 129.964 549.65 129.964H553.761C554.313 129.964 554.761 130.411 554.761 130.964C554.761 131.516 554.313 131.964 553.761 131.964H549.65C549.098 131.964 548.65 131.516 548.65 130.964ZM556.872 130.964C556.872 130.411 557.32 129.964 557.872 129.964H561.982C562.535 129.964 562.982 130.411 562.982 130.964C562.982 131.516 562.535 131.964 561.982 131.964H557.872C557.32 131.964 556.872 131.516 556.872 130.964ZM565.093 130.964C565.093 130.411 565.541 129.964 566.093 129.964H568.149C568.701 129.964 569.149 130.411 569.149 130.964C569.149 131.516 568.701 131.964 568.149 131.964H566.093C565.541 131.964 565.093 131.516 565.093 130.964Z" fill="#FFF500"/>
<path fill-rule="evenodd" clip-rule="evenodd" d="M458.373 60.3697C458.597 59.8651 459.188 59.638 459.693 59.8625L519.794 86.6006C520.298 86.8251 520.525 87.4161 520.301 87.9207C520.076 88.4253 519.485 88.6524 518.981 88.4279L458.88 61.6898C458.375 61.4653 458.148 60.8743 458.373 60.3697ZM534.341 94.9248C534.556 94.4158 535.142 94.1769 535.651 94.3912L567.402 107.76C567.911 107.975 568.15 108.561 567.936 109.07C567.722 109.579 567.135 109.818 566.626 109.604L534.875 96.2345C534.366 96.0202 534.127 95.4338 534.341 94.9248Z" fill="#BE004A"/>
<path fill-rule="evenodd" clip-rule="evenodd" d="M1352.02 159.45C1351.76 159.934 1351.93 160.542 1352.42 160.807L1421.59 198.686C1422.07 198.952 1422.68 198.774 1422.95 198.289C1423.21 197.805 1423.03 197.197 1422.55 196.932L1353.38 159.053C1352.89 158.788 1352.29 158.965 1352.02 159.45Z" fill="#009535"/>
<path fill-rule="evenodd" clip-rule="evenodd" d="M1483.17 130.964C1483.17 130.411 1482.72 129.964 1482.17 129.964H1480.12C1479.56 129.964 1479.12 130.411 1479.12 130.964C1479.12 131.516 1479.56 131.964 1480.12 131.964H1482.17C1482.72 131.964 1483.17 131.516 1483.17 130.964ZM1477 130.964C1477 130.411 1476.56 129.964 1476 129.964H1471.89C1471.34 129.964 1470.89 130.411 1470.89 130.964C1470.89 131.516 1471.34 131.964 1471.89 131.964H1476C1476.56 131.964 1477 131.516 1477 130.964ZM1468.78 130.964C1468.78 130.411 1468.34 129.964 1467.78 129.964H1463.67C1463.12 129.964 1462.67 130.411 1462.67 130.964C1462.67 131.516 1463.12 131.964 1463.67 131.964H1467.78C1468.34 131.964 1468.78 131.516 1468.78 130.964ZM1460.56 130.964C1460.56 130.411 1460.11 129.964 1459.56 129.964H1455.45C1454.9 129.964 1454.45 130.411 1454.45 130.964C1454.45 131.516 1454.9 131.964 1455.45 131.964H1459.56C1460.11 131.964 1460.56 131.516 1460.56 130.964ZM1452.34 130.964C1452.34 130.411 1451.89 129.964 1451.34 129.964H1447.23C1446.68 129.964 1446.23 130.411 1446.23 130.964C1446.23 131.516 1446.68 131.964 1447.23 131.964H1451.34C1451.89 131.964 1452.34 131.516 1452.34 130.964ZM1444.12 130.964C1444.12 130.411 1443.67 129.964 1443.12 129.964H1439.01C1438.46 129.964 1438.01 130.411 1438.01 130.964C1438.01 131.516 1438.46 131.964 1439.01 131.964H1443.12C1443.67 131.964 1444.12 131.516 1444.12 130.964ZM1435.9 130.964C1435.9 130.411 1435.45 129.964 1434.9 129.964H1430.79C1430.24 129.964 1429.79 130.411 1429.79 130.964C1429.79 131.516 1430.24 131.964 1430.79 131.964H1434.9C1435.45 131.964 1435.9 131.516 1435.9 130.964ZM1427.68 130.964C1427.68 130.411 1427.23 129.964 1426.68 129.964H1422.57C1422.01 129.964 1421.57 130.411 1421.57 130.964C1421.57 131.516 1422.01 131.964 1422.57 131.964H1426.68C1427.23 131.964 1427.68 131.516 1427.68 130.964ZM1419.46 130.964C1419.46 130.411 1419.01 129.964 1418.46 129.964H1414.34C1413.79 129.964 1413.34 130.411 1413.34 130.964C1413.34 131.516 1413.79 131.964 1414.34 131.964H1418.46C1419.01 131.964 1419.46 131.516 1419.46 130.964ZM1411.23 130.964C1411.23 130.411 1410.79 129.964 1410.23 129.964H1406.12C1405.57 129.964 1405.12 130.411 1405.12 130.964C1405.12 131.516 1405.57 131.964 1406.12 131.964H1410.23C1410.79 131.964 1411.23 131.516 1411.23 130.964ZM1403.01 130.964C1403.01 130.411 1402.57 129.964 1402.01 129.964H1397.9C1397.35 129.964 1396.9 130.411 1396.9 130.964C1396.9 131.516 1397.35 131.964 1397.9 131.964H1402.01C1402.57 131.964 1403.01 131.516 1403.01 130.964ZM1394.79 130.964C1394.79 130.411 1394.34 129.964 1393.79 129.964H1389.68C1389.13 129.964 1388.68 130.411 1388.68 130.964C1388.68 131.516 1389.13 131.964 1389.68 131.964H1393.79C1394.34 131.964 1394.79 131.516 1394.79 130.964ZM1386.57 130.964C1386.57 130.411 1386.12 129.964 1385.57 129.964H1381.46C1380.91 129.964 1380.46 130.411 1380.46 130.964C1380.46 131.516 1380.91 131.964 1381.46 131.964H1385.57C1386.12 131.964 1386.57 131.516 1386.57 130.964ZM1378.35 130.964C1378.35 130.411 1377.9 129.964 1377.35 129.964H1373.24C1372.69 129.964 1372.24 130.411 1372.24 130.964C1372.24 131.516 1372.69 131.964 1373.24 131.964H1377.35C1377.9 131.964 1378.35 131.516 1378.35 130.964ZM1370.13 130.964C1370.13 130.411 1369.68 129.964 1369.13 129.964H1365.02C1364.46 129.964 1364.02 130.411 1364.02 130.964C1364.02 131.516 1364.46 131.964 1365.02 131.964H1369.13C1369.68 131.964 1370.13 131.516 1370.13 130.964ZM1361.91 130.964C1361.91 130.411 1361.46 129.964 1360.91 129.964H1356.8C1356.24 129.964 1355.8 130.411 1355.8 130.964C1355.8 131.516 1356.24 131.964 1356.8 131.964H1360.91C1361.46 131.964 1361.91 131.516 1361.91 130.964ZM1353.68 130.964C1353.68 130.411 1353.24 129.964 1352.68 129.964H1350.63C1350.08 129.964 1349.63 130.411 1349.63 130.964C1349.63 131.516 1350.08 131.964 1350.63 131.964H1352.68C1353.24 131.964 1353.68 131.516 1353.68 130.964Z" fill="#FFF500"/>
<path fill-rule="evenodd" clip-rule="evenodd" d="M1460.41 60.3697C1460.18 59.8651 1459.59 59.638 1459.08 59.8625L1398.98 86.6006C1398.48 86.8251 1398.25 87.4161 1398.48 87.9207C1398.7 88.4253 1399.29 88.6524 1399.8 88.4279L1459.9 61.6898C1460.4 61.4653 1460.63 60.8743 1460.41 60.3697ZM1384.44 94.9248C1384.22 94.4158 1383.64 94.1769 1383.13 94.3912L1351.38 107.76C1350.87 107.975 1350.63 108.561 1350.84 109.07C1351.06 109.579 1351.64 109.818 1352.15 109.604L1383.9 96.2345C1384.41 96.0202 1384.65 95.4338 1384.44 94.9248Z" fill="#BE004A"/>
<path d="M1717.96 317.057L1659.14 350.583L1714.12 369.066L1699.24 415.42L1757.8 391.305L1769.36 425.476L1796.47 399.575L1833.26 430.221L1833.23 382.461L1880.14 390.711L1853.2 350.919L1899.16 318.758L1848.81 310.872L1858.23 258.273L1820.97 282.689L1808.06 252.073L1782.78 274.795L1747.09 242.327L1747.6 290.463L1698.86 285.391L1717.96 317.057Z" fill="url(#paint0_radial_60_352)"/>
<path d="M1733.86 252.258L1737.9 260.235L1746.69 262.413L1738.57 266.383L1736.36 275.022L1732.31 267.046L1723.52 264.868L1731.64 260.898L1733.86 252.258Z" fill="white"/>
<path d="M1867.58 284.149L1871.62 292.125L1880.41 294.303L1872.29 298.273L1870.08 306.913L1866.04 298.936L1857.24 296.758L1865.36 292.788L1867.58 284.149Z" fill="white"/>
<path d="M1857.73 352.573L1859.67 356.413L1863.9 357.462L1860 359.373L1858.93 363.533L1856.98 359.693L1852.75 358.644L1856.66 356.732L1857.73 352.573Z" fill="#D9D9D9"/>
<path d="M1697.66 305.397L1703.52 320.255L1687.49 317.805L1697.66 305.397Z" fill="white"/>
<path d="M1829.36 252.375L1835.98 261.269L1824.83 262.45L1829.36 252.375Z" fill="white"/>
<path d="M1821.08 363.066L1836.81 369.895L1822.92 379.862L1821.08 363.066Z" fill="white"/>
<path d="M1723.64 386.515L1729.19 394.323L1719.54 395.139L1723.64 386.515Z" fill="#D9D9D9"/>
<path d="M1788.84 385.457C1789.1 387.785 1787.39 389.876 1785.02 390.127C1782.65 390.378 1780.52 388.695 1780.26 386.366C1780.01 384.038 1781.72 381.947 1784.09 381.696C1786.46 381.445 1788.59 383.129 1788.84 385.457Z" fill="white"/>
<path d="M1766.68 286.309C1766.93 288.637 1765.22 290.728 1762.85 290.979C1760.48 291.23 1758.35 289.547 1758.1 287.218C1757.84 284.89 1759.55 282.799 1761.92 282.548C1764.29 282.297 1766.42 283.981 1766.68 286.309Z" fill="#D9D9D9"/>
<path d="M1806.34 283.813C1806.59 286.142 1804.88 288.233 1802.51 288.484C1800.14 288.735 1798.01 287.051 1797.76 284.723C1797.5 282.394 1799.21 280.304 1801.58 280.053C1803.95 279.801 1806.08 281.485 1806.34 283.813Z" fill="white"/>
<path d="M1684.63 337.647C1684.88 339.975 1683.17 342.066 1680.8 342.317C1678.43 342.568 1676.3 340.885 1676.05 338.556C1675.79 336.228 1677.51 334.137 1679.88 333.886C1682.25 333.635 1684.37 335.319 1684.63 337.647Z" fill="white"/>
<path d="M1837.42 318.682C1838.61 318.221 1839.59 318.189 1840.34 318.588C1841.07 318.958 1841.65 319.668 1842.07 320.719C1842.25 321.173 1842.39 321.692 1842.49 322.275C1842.59 322.859 1842.58 323.452 1842.46 324.055C1842.35 324.62 1842.09 325.182 1841.65 325.742C1841.24 326.263 1840.59 326.694 1839.7 327.034C1838.42 327.528 1837.42 327.537 1836.71 327.06C1835.98 326.554 1835.42 325.804 1835.03 324.811C1834.8 324.243 1834.65 323.662 1834.58 323.067C1834.51 322.473 1834.55 321.903 1834.69 321.356C1834.83 320.809 1835.12 320.304 1835.56 319.84C1836 319.375 1836.62 318.99 1837.42 318.682ZM1837.17 315.339C1836.46 315.613 1835.84 315.753 1835.32 315.759C1834.8 315.764 1834.34 315.646 1833.95 315.404C1833.55 315.134 1833.19 314.765 1832.87 314.298C1832.57 313.791 1832.28 313.197 1832.01 312.516C1831.91 312.261 1831.81 311.991 1831.69 311.707C1831.6 311.384 1831.47 310.989 1831.32 310.524C1831.2 310.048 1831.01 309.464 1830.77 308.771C1830.56 308.068 1830.29 307.175 1829.95 306.091C1829.61 304.979 1829.2 303.649 1828.71 302.101C1828.23 300.552 1827.64 298.7 1826.95 296.544C1826.73 295.908 1826.65 295.512 1826.72 295.354C1826.77 295.236 1826.98 295.106 1827.35 294.963L1829.87 293.991C1831.44 293.387 1832.67 293.271 1833.57 293.643C1834.49 293.976 1835.12 294.554 1835.45 295.377C1835.65 295.888 1835.86 296.591 1836.09 297.487C1836.33 298.343 1836.57 299.315 1836.8 300.403C1837.04 301.491 1837.27 302.647 1837.49 303.871C1837.73 305.055 1837.96 306.244 1838.17 307.439C1838.4 308.595 1838.61 309.708 1838.81 310.779C1839 311.849 1839.17 312.767 1839.31 313.532C1839.39 313.894 1839.38 314.16 1839.28 314.328C1839.21 314.486 1839.02 314.625 1838.71 314.746L1837.17 315.339Z" fill="white"/>
<path d="M1824.83 323.541C1826.02 323.079 1827 323.048 1827.74 323.446C1828.48 323.817 1829.06 324.527 1829.48 325.577C1829.66 326.032 1829.8 326.55 1829.9 327.134C1830 327.717 1829.99 328.31 1829.87 328.914C1829.76 329.478 1829.49 330.04 1829.06 330.6C1828.64 331.121 1827.99 331.552 1827.11 331.893C1825.83 332.387 1824.83 332.395 1824.12 331.918C1823.39 331.412 1822.83 330.663 1822.44 329.669C1822.21 329.101 1822.06 328.52 1821.99 327.926C1821.92 327.331 1821.95 326.761 1822.1 326.214C1822.24 325.668 1822.53 325.162 1822.97 324.698C1823.41 324.234 1824.03 323.848 1824.83 323.541ZM1824.58 320.197C1823.87 320.472 1823.25 320.612 1822.73 320.617C1822.21 320.622 1821.75 320.504 1821.36 320.262C1820.96 319.992 1820.6 319.623 1820.28 319.156C1819.98 318.65 1819.69 318.056 1819.42 317.374C1819.32 317.119 1819.21 316.849 1819.1 316.565C1819.01 316.242 1818.88 315.848 1818.73 315.383C1818.61 314.906 1818.42 314.322 1818.18 313.63C1817.97 312.926 1817.69 312.033 1817.36 310.95C1817.02 309.838 1816.61 308.508 1816.12 306.959C1815.64 305.41 1815.05 303.558 1814.36 301.402C1814.14 300.767 1814.06 300.37 1814.13 300.213C1814.18 300.095 1814.39 299.964 1814.76 299.821L1817.28 298.85C1818.85 298.246 1820.08 298.13 1820.98 298.502C1821.9 298.834 1822.53 299.412 1822.85 300.235C1823.06 300.746 1823.27 301.45 1823.5 302.345C1823.74 303.202 1823.98 304.174 1824.21 305.262C1824.45 306.35 1824.68 307.505 1824.9 308.729C1825.14 309.913 1825.37 311.103 1825.58 312.298C1825.81 313.453 1826.02 314.567 1826.22 315.637C1826.41 316.708 1826.58 317.625 1826.72 318.39C1826.8 318.753 1826.79 319.018 1826.69 319.187C1826.62 319.344 1826.43 319.483 1826.12 319.604L1824.58 320.197Z" fill="white"/>
<path d="M1809.43 332.97C1808.97 330.755 1808.57 328.831 1808.22 327.199C1807.88 325.528 1807.57 324.091 1807.29 322.89C1807.04 321.677 1806.81 320.638 1806.6 319.77C1806.41 318.892 1806.24 318.124 1806.07 317.467C1805.93 316.77 1805.79 316.169 1805.65 315.664C1805.54 315.12 1805.41 314.562 1805.28 313.99C1805.22 313.656 1805.26 313.359 1805.42 313.101C1805.61 312.832 1806.05 312.566 1806.73 312.302C1807.1 312.159 1807.62 311.99 1808.3 311.794C1808.99 311.559 1809.7 311.4 1810.43 311.318C1811.15 311.236 1811.81 311.291 1812.41 311.485C1813.03 311.639 1813.46 312.028 1813.71 312.653C1813.89 313.107 1814.04 313.838 1814.14 314.845C1814.23 315.824 1814.31 316.972 1814.38 318.29C1814.44 319.608 1814.48 321.033 1814.5 322.565C1814.51 324.068 1814.5 325.577 1814.48 327.092C1814.47 328.567 1814.46 329.98 1814.44 331.331C1814.42 332.682 1814.41 333.849 1814.4 334.832C1814.38 335.431 1814.29 335.86 1814.13 336.118C1813.99 336.365 1813.66 336.593 1813.12 336.802L1810.6 337.774C1809.8 338.081 1809.11 338.234 1808.52 338.233C1807.92 338.232 1807.4 338.122 1806.96 337.902C1806.51 337.682 1806.11 337.392 1805.77 337.032C1805.42 336.644 1805.1 336.211 1804.81 335.733C1803.95 334.394 1802.88 332.565 1801.6 330.244C1800.32 327.923 1798.89 325.152 1797.31 321.929C1797.42 322.608 1797.58 323.512 1797.8 324.639C1798.04 325.755 1798.29 326.968 1798.55 328.277C1798.84 329.574 1799.12 330.906 1799.4 332.271C1799.68 333.637 1799.94 334.911 1800.18 336.095C1800.41 337.251 1800.6 338.259 1800.74 339.12C1800.88 339.953 1800.93 340.504 1800.91 340.776C1800.88 341.114 1800.77 341.37 1800.57 341.543C1800.4 341.677 1800.11 341.821 1799.71 341.974L1796.72 343.128C1795.98 343.413 1795.3 343.561 1794.68 343.571C1794.08 343.541 1793.51 343.433 1792.98 343.246C1792.47 343.048 1792.01 342.786 1791.58 342.459C1791.17 342.092 1790.82 341.69 1790.51 341.251C1786.53 335.78 1783.53 331.65 1781.5 328.863C1779.5 326.065 1778.46 324.553 1778.37 324.325C1778.27 324.07 1778.31 323.793 1778.48 323.496C1778.66 323.198 1778.95 322.973 1779.35 322.819C1780.57 322.347 1781.65 321.997 1782.57 321.77C1783.49 321.515 1784.28 321.405 1784.95 321.441C1785.65 321.466 1786.25 321.645 1786.74 321.979C1787.24 322.312 1787.67 322.831 1788.05 323.536C1788.24 323.923 1788.62 324.71 1789.19 325.898C1789.76 327.086 1790.4 328.444 1791.1 329.973C1791.82 331.462 1792.54 332.985 1793.26 334.542C1794.01 336.088 1794.64 337.398 1795.17 338.472C1794.81 336.58 1794.52 335.07 1794.3 333.943C1794.11 332.805 1793.95 331.853 1793.81 331.089C1793.67 330.324 1793.54 329.655 1793.41 329.083C1793.31 328.5 1793.18 327.811 1793.03 327.018C1792.88 326.225 1792.67 325.242 1792.4 324.069C1792.16 322.885 1791.84 321.304 1791.45 319.327C1791.29 318.602 1791.91 317.97 1793.31 317.432C1794.19 317.092 1795.03 316.802 1795.82 316.562C1796.61 316.322 1797.35 316.2 1798.04 316.197C1798.71 316.165 1799.35 316.28 1799.94 316.541C1800.53 316.774 1801.05 317.212 1801.5 317.856C1801.64 318.032 1801.76 318.215 1801.87 318.402C1802 318.579 1802.17 318.841 1802.38 319.188C1802.58 319.535 1802.84 320.024 1803.16 320.655C1803.5 321.276 1803.94 322.123 1804.46 323.197C1805.01 324.26 1805.69 325.588 1806.49 327.18C1807.28 328.771 1808.26 330.701 1809.43 332.97Z" fill="white"/>
<path d="M1772.86 352.825C1770.9 353.583 1769.16 353.944 1767.63 353.91C1766.13 353.837 1764.8 353.465 1763.65 352.797C1762.49 352.128 1761.51 351.215 1760.69 350.058C1759.85 348.873 1759.14 347.542 1758.56 346.066C1757.88 344.363 1757.42 342.625 1757.18 340.853C1756.95 339.042 1757.08 337.305 1757.57 335.643C1758.06 333.981 1758.96 332.454 1760.28 331.061C1761.61 329.629 1763.5 328.441 1765.95 327.497C1769.54 326.113 1772.45 326.005 1774.68 327.172C1776.94 328.3 1778.69 330.439 1779.94 333.591C1780.29 334.471 1780.61 335.478 1780.9 336.611C1781.2 337.706 1781.38 338.85 1781.42 340.043C1781.5 341.225 1781.42 342.434 1781.19 343.669C1780.99 344.893 1780.57 346.07 1779.93 347.199C1779.3 348.328 1778.4 349.378 1777.25 350.348C1776.12 351.307 1774.66 352.133 1772.86 352.825ZM1767.48 333.441C1766.39 333.858 1765.64 334.477 1765.21 335.297C1764.8 336.078 1764.58 336.932 1764.55 337.859C1764.55 338.746 1764.66 339.652 1764.89 340.576C1765.15 341.461 1765.39 342.201 1765.63 342.797C1766.37 344.671 1767.22 345.933 1768.17 346.582C1769.11 347.232 1770.14 347.342 1771.25 346.914C1772.25 346.53 1772.94 345.904 1773.31 345.038C1773.72 344.161 1773.92 343.216 1773.91 342.204C1773.93 341.182 1773.81 340.166 1773.54 339.156C1773.3 338.136 1773.05 337.3 1772.79 336.647C1772.22 335.227 1771.51 334.224 1770.66 333.638C1769.82 333.012 1768.76 332.947 1767.48 333.441Z" fill="white"/>
<path d="M1747.69 354.73C1747.38 353.115 1747.11 351.711 1746.9 350.516C1746.68 349.292 1746.46 348.165 1746.25 347.134C1746.03 346.102 1745.81 345.091 1745.58 344.099C1745.37 343.068 1745.12 341.937 1744.82 340.708C1744.55 339.438 1744.23 338.007 1743.86 336.415C1743.5 334.783 1743.08 332.836 1742.57 330.575C1742.44 330.003 1742.45 329.607 1742.59 329.389C1742.72 329.141 1743.19 328.864 1743.98 328.556C1744.3 328.436 1744.78 328.283 1745.43 328.098C1746.06 327.885 1746.74 327.771 1747.46 327.756C1748.16 327.714 1748.83 327.831 1749.47 328.11C1750.12 328.349 1750.61 328.866 1750.92 329.661C1751.1 330.115 1751.3 330.858 1751.51 331.889C1751.71 332.892 1751.91 334.078 1752.09 335.448C1752.29 336.779 1752.48 338.245 1752.66 339.847C1752.86 341.437 1753.06 343.048 1753.25 344.678C1753.43 346.308 1753.59 347.901 1753.72 349.457C1753.87 351.002 1753.99 352.413 1754.07 353.692C1754.17 354.931 1754.23 355.988 1754.25 356.865C1754.27 357.741 1754.27 358.315 1754.24 358.586C1754.2 358.964 1754.04 359.27 1753.77 359.505C1753.5 359.739 1753.21 359.917 1752.9 360.037L1748.84 361.602C1748.1 361.888 1747.42 361.988 1746.8 361.901C1746.2 361.804 1745.64 361.594 1745.12 361.272C1744.62 360.938 1744.17 360.526 1743.74 360.035C1743.34 359.533 1743 358.995 1742.7 358.421L1732.97 340.124C1733.3 341.439 1733.66 342.921 1734.05 344.57C1734.47 346.209 1734.88 347.886 1735.26 349.604C1735.68 351.31 1736.08 352.987 1736.47 354.637C1736.87 356.286 1737.21 357.808 1737.5 359.201C1737.78 360.567 1738 361.742 1738.16 362.728C1738.32 363.713 1738.39 364.375 1738.36 364.714C1738.34 365.081 1738.2 365.382 1737.93 365.616C1737.66 365.851 1737.36 366.034 1737.02 366.166L1732.96 367.73C1732.25 368.005 1731.6 368.108 1731.02 368.039C1730.45 367.931 1729.92 367.71 1729.42 367.377C1728.93 367.043 1728.47 366.631 1728.05 366.14C1727.61 365.621 1727.2 365.09 1726.82 364.549C1723.82 360.372 1721.35 356.935 1719.43 354.24C1717.53 351.533 1716.02 349.368 1714.88 347.744C1713.73 346.092 1712.91 344.887 1712.41 344.13C1711.93 343.333 1711.61 342.75 1711.47 342.381C1711.27 341.898 1711.29 341.531 1711.52 341.279C1711.78 341.017 1712.39 340.699 1713.36 340.325C1714.55 339.864 1715.58 339.565 1716.45 339.428C1717.34 339.279 1718.12 339.291 1718.78 339.462C1719.42 339.605 1719.99 339.926 1720.49 340.423C1721 340.881 1721.46 341.505 1721.87 342.296C1721.92 342.409 1722 342.574 1722.12 342.79C1722.22 342.978 1722.39 343.308 1722.61 343.779C1722.86 344.24 1723.19 344.88 1723.62 345.698C1724.06 346.478 1724.63 347.536 1725.32 348.872C1726.04 350.197 1726.93 351.852 1727.98 353.837C1729.05 355.782 1730.33 358.122 1731.81 360.858C1731.43 359.005 1731.12 357.521 1730.87 356.405C1730.64 355.249 1730.44 354.246 1730.27 353.396C1730.08 352.518 1729.9 351.688 1729.72 350.906C1729.53 350.095 1729.29 349.109 1728.99 347.947C1728.71 346.745 1728.33 345.254 1727.85 343.474C1727.4 341.683 1726.81 339.359 1726.07 336.501C1726.02 336.292 1726.07 336.091 1726.22 335.901C1726.41 335.7 1726.64 335.51 1726.93 335.333C1727.22 335.155 1727.55 334.995 1727.92 334.852C1728.31 334.67 1728.67 334.513 1729.02 334.381C1730.15 333.942 1731.15 333.639 1732 333.474C1732.85 333.28 1733.59 333.24 1734.22 333.355C1734.89 333.459 1735.48 333.72 1736.01 334.138C1736.53 334.529 1737.04 335.068 1737.54 335.758C1737.77 336.094 1738.07 336.567 1738.45 337.176C1738.81 337.757 1739.34 338.715 1740.03 340.051C1740.76 341.376 1741.72 343.216 1742.92 345.57C1744.13 347.884 1745.72 350.937 1747.69 354.73Z" fill="white"/>
<path d="M481.197 11.1805C480.994 10.2405 482.124 9.59981 482.85 10.2428L492.334 18.632C492.659 18.9197 493.133 18.9701 493.509 18.7568L504.545 12.4974C505.389 12.0184 506.368 12.893 505.971 13.7708L500.796 25.1903C500.617 25.5843 500.718 26.049 501.046 26.339L510.51 34.7109C511.238 35.3552 510.714 36.5364 509.744 36.4363L497.049 35.1253C496.618 35.0808 496.208 35.313 496.032 35.7019L490.84 47.1595C490.443 48.0347 489.14 47.8902 488.936 46.9484L486.288 34.7102C486.196 34.2863 485.837 33.9676 485.401 33.9225L472.747 32.6159C471.774 32.5155 471.493 31.2448 472.338 30.7658L483.373 24.5064C483.749 24.2932 483.942 23.8646 483.851 23.444L481.197 11.1805Z" fill="#FFC700"/>
<path d="M189.859 393.822C190.183 392.958 191.404 392.956 191.731 393.819L200.554 417.135C200.657 417.408 200.874 417.622 201.149 417.721L224.858 426.3C225.736 426.618 225.738 427.859 224.861 428.18L201.179 436.83C200.904 436.93 200.688 437.145 200.585 437.418L191.835 460.761C191.511 461.625 190.29 461.626 189.963 460.764L181.14 437.447C181.037 437.174 180.819 436.96 180.545 436.861L156.836 428.282C155.958 427.964 155.956 426.723 156.833 426.403L180.515 417.753C180.789 417.652 181.006 417.438 181.109 417.164L189.859 393.822Z" fill="#7000FF"/>
<path d="M1759.06 590.742C1758.75 589.875 1757.53 589.862 1757.19 590.721L1748.14 613.952C1748.03 614.224 1747.81 614.436 1747.54 614.533L1723.75 622.884C1722.86 623.194 1722.85 624.435 1723.72 624.764L1747.32 633.64C1747.59 633.743 1747.81 633.96 1747.91 634.234L1756.43 657.659C1756.74 658.526 1757.96 658.539 1758.3 657.68L1767.35 634.449C1767.46 634.177 1767.68 633.965 1767.95 633.868L1791.74 625.517C1792.63 625.207 1792.64 623.966 1791.77 623.637L1768.17 614.761C1767.9 614.658 1767.68 614.441 1767.58 614.167L1759.06 590.742Z" fill="#7000FF"/>
<path d="M135.379 447.793C135.703 446.929 136.924 446.928 137.25 447.791L140.96 457.593C141.063 457.866 141.281 458.08 141.555 458.18L151.494 461.776C152.372 462.094 152.374 463.335 151.497 463.656L141.569 467.282C141.295 467.382 141.078 467.597 140.976 467.87L137.297 477.684C136.973 478.548 135.752 478.549 135.425 477.686L131.716 467.884C131.613 467.611 131.395 467.397 131.121 467.297L121.182 463.701C120.304 463.383 120.302 462.142 121.179 461.821L131.107 458.195C131.381 458.095 131.597 457.88 131.7 457.607L135.379 447.793Z" fill="#5282FF"/>
<path fill-rule="evenodd" clip-rule="evenodd" d="M126.935 309.496C126.444 309.243 126.256 308.644 126.516 308.156L144.514 274.326C144.774 273.839 145.382 273.648 145.874 273.9C146.365 274.153 146.553 274.752 146.293 275.24L128.295 309.07C128.035 309.557 127.427 309.748 126.935 309.496Z" fill="#02CCC0"/>
<path fill-rule="evenodd" clip-rule="evenodd" d="M1758.36 536.128C1758.71 535.7 1758.64 535.076 1758.21 534.734L1727.94 510.802C1727.51 510.46 1726.87 510.529 1726.52 510.956C1726.17 511.383 1726.24 512.007 1726.67 512.35L1756.94 536.281C1757.38 536.624 1758.01 536.555 1758.36 536.128Z" fill="#02CCC0"/>
<path fill-rule="evenodd" clip-rule="evenodd" d="M229.002 274.92C228.798 275.434 228.214 275.689 227.699 275.492L158.415 248.921C157.899 248.724 157.647 248.147 157.851 247.634C158.055 247.121 158.638 246.865 159.154 247.063L228.437 273.633C228.953 273.831 229.205 274.407 229.002 274.92Z" fill="#009436"/>
<path fill-rule="evenodd" clip-rule="evenodd" d="M1650.74 544.56C1651.13 544.948 1651.77 544.949 1652.17 544.563L1704.85 492.982C1705.24 492.596 1705.24 491.969 1704.85 491.581C1704.46 491.193 1703.82 491.192 1703.42 491.578L1650.74 543.159C1650.35 543.545 1650.35 544.173 1650.74 544.56Z" fill="#009436"/>
<path d="M183.664 294.022C185.046 297.936 182.938 302.209 178.955 303.567C174.972 304.925 170.622 302.854 169.24 298.94C167.857 295.027 169.966 290.754 173.949 289.396C177.932 288.038 182.281 290.109 183.664 294.022Z" fill="#FFC700"/>
<path d="M1700.08 544.245C1700.4 548.375 1704.07 551.463 1708.28 551.142C1712.48 550.821 1715.62 547.214 1715.3 543.084C1714.97 538.954 1711.3 535.866 1707.1 536.187C1702.89 536.508 1699.75 540.116 1700.08 544.245Z" fill="#FFC700"/>
<path d="M306.871 213.281C306.871 221.565 300.264 228.281 292.112 228.281C283.961 228.281 277.354 221.565 277.354 213.281C277.354 204.996 283.961 198.281 292.112 198.281C300.264 198.281 306.871 204.996 306.871 213.281Z" fill="#7000FF"/>
<path d="M1605.65 141.281C1605.65 149.565 1612.26 156.281 1620.41 156.281C1628.56 156.281 1635.17 149.565 1635.17 141.281C1635.17 132.996 1628.56 126.281 1620.41 126.281C1612.26 126.281 1605.65 132.996 1605.65 141.281Z" fill="#5282FF"/>
<path d="M521.639 231.281C521.639 235.147 518.449 238.281 514.514 238.281C510.579 238.281 507.389 235.147 507.389 231.281C507.389 227.415 510.579 224.281 514.514 224.281C518.449 224.281 521.639 227.415 521.639 231.281Z" fill="#E20265"/>
<path d="M1113.01 750.281C1113.01 754.147 1109.82 757.281 1105.89 757.281C1101.95 757.281 1098.76 754.147 1098.76 750.281C1098.76 746.415 1101.95 743.281 1105.89 743.281C1109.82 743.281 1113.01 746.415 1113.01 750.281Z" fill="#E20265"/>
<path d="M1491.65 207.281C1491.65 211.147 1494.84 214.281 1498.78 214.281C1502.71 214.281 1505.9 211.147 1505.9 207.281C1505.9 203.415 1502.71 200.281 1498.78 200.281C1494.84 200.281 1491.65 203.415 1491.65 207.281Z" fill="#7000FF"/>
<path fill-rule="evenodd" clip-rule="evenodd" d="M720.629 56.2805C728.271 56.2805 734.406 50.2031 734.406 42.7805C734.406 35.3579 728.271 29.2805 720.629 29.2805C712.987 29.2805 706.853 35.3579 706.853 42.7805C706.853 50.2031 712.987 56.2805 720.629 56.2805ZM720.629 58.2805C729.343 58.2805 736.406 51.3409 736.406 42.7805C736.406 34.2201 729.343 27.2805 720.629 27.2805C711.916 27.2805 704.853 34.2201 704.853 42.7805C704.853 51.3409 711.916 58.2805 720.629 58.2805Z" fill="#FF0071"/>
<path fill-rule="evenodd" clip-rule="evenodd" d="M1793.28 663.35C1798.04 661.313 1800.17 655.901 1798.12 651.287C1796.07 646.674 1790.58 644.531 1785.83 646.568C1781.08 648.605 1778.94 654.018 1780.99 658.631C1783.04 663.245 1788.53 665.387 1793.28 663.35ZM1794.1 665.178C1799.84 662.715 1802.47 656.143 1799.96 650.499C1797.45 644.856 1790.76 642.277 1785.02 644.741C1779.27 647.204 1776.65 653.776 1779.16 659.419C1781.66 665.063 1788.35 667.641 1794.1 665.178Z" fill="#FF0071"/>
<path fill-rule="evenodd" clip-rule="evenodd" d="M758.334 74.1936C763.962 74.1936 768.462 69.7207 768.462 64.2805C768.462 58.8404 763.962 54.3675 758.334 54.3675C752.706 54.3675 748.207 58.8404 748.207 64.2805C748.207 69.7207 752.706 74.1936 758.334 74.1936ZM758.334 76.2805C765.08 76.2805 770.549 70.9079 770.549 64.2805C770.549 57.6531 765.08 52.2805 758.334 52.2805C751.589 52.2805 746.12 57.6531 746.12 64.2805C746.12 70.9079 751.589 76.2805 758.334 76.2805Z" fill="#FFC700"/>
<path fill-rule="evenodd" clip-rule="evenodd" d="M1003.59 69.2805C1008.34 69.2805 1012.28 65.3058 1012.28 60.2805C1012.28 55.2552 1008.34 51.2805 1003.59 51.2805C998.849 51.2805 994.905 55.2552 994.905 60.2805C994.905 65.3058 998.849 69.2805 1003.59 69.2805ZM1003.59 71.2805C1009.5 71.2805 1014.28 66.3556 1014.28 60.2805C1014.28 54.2054 1009.5 49.2805 1003.59 49.2805C997.69 49.2805 992.905 54.2054 992.905 60.2805C992.905 66.3556 997.69 71.2805 1003.59 71.2805Z" fill="#7000FF"/>
<path fill-rule="evenodd" clip-rule="evenodd" d="M692.129 747.281C696.873 747.281 700.816 743.306 700.816 738.281C700.816 733.255 696.873 729.281 692.129 729.281C687.385 729.281 683.441 733.255 683.441 738.281C683.441 743.306 687.385 747.281 692.129 747.281ZM692.129 749.281C698.031 749.281 702.816 744.356 702.816 738.281C702.816 732.205 698.031 727.281 692.129 727.281C686.226 727.281 681.441 732.205 681.441 738.281C681.441 744.356 686.226 749.281 692.129 749.281Z" fill="#7000FF"/>
<path fill-rule="evenodd" clip-rule="evenodd" d="M99.3017 542.559L84.1176 587.507L46.8072 567.408L54.556 609.011L15.5049 618.298L45.3238 650.345L35.5414 676.867L66.4645 673.739L78.0237 702.602L110.441 679.829L127.668 710.668L151.745 692.125L184.726 722.969L192.387 677.153L230.395 672.538L200.576 640.492L213.871 608.323L171.333 604.426L170.333 564.277L130.431 590.334L99.3017 542.559ZM144.794 668.776C144.085 671.952 140.889 673.962 137.656 673.265C134.423 672.568 132.378 669.428 133.087 666.252C133.797 663.076 136.992 661.066 140.225 661.763C143.458 662.46 145.503 665.6 144.794 668.776ZM105.691 587.26C107.712 587.696 109.709 586.44 110.153 584.455C110.596 582.47 109.318 580.508 107.297 580.072C105.277 579.636 103.279 580.892 102.836 582.877C102.393 584.862 103.671 586.825 105.691 587.26Z" fill="url(#paint1_linear_60_352)"/>
<path d="M172.19 653.029C173.434 653.322 174.246 653.841 174.628 654.587C175.017 655.303 175.078 656.209 174.812 657.302C174.697 657.775 174.511 658.278 174.256 658.812C174.001 659.346 173.649 659.826 173.201 660.252C172.79 660.655 172.245 660.964 171.566 661.18C170.924 661.373 170.145 661.361 169.227 661.145C167.894 660.832 167.074 660.28 166.766 659.489C166.465 658.668 166.441 657.74 166.693 656.705C166.837 656.114 167.051 655.555 167.336 655.029C167.621 654.502 167.98 654.055 168.414 653.688C168.848 653.321 169.378 653.071 170.006 652.937C170.633 652.804 171.361 652.834 172.19 653.029ZM173.924 650.155C173.183 649.981 172.598 649.75 172.168 649.461C171.737 649.172 171.432 648.819 171.252 648.402C171.079 647.955 170.998 647.452 171.009 646.892C171.057 646.309 171.168 645.663 171.341 644.954C171.405 644.688 171.474 644.407 171.546 644.111C171.655 643.793 171.781 643.401 171.926 642.935C172.101 642.476 172.289 641.895 172.492 641.193C172.724 640.497 173.017 639.613 173.373 638.54C173.735 637.438 174.166 636.118 174.667 634.579C175.167 633.04 175.757 631.194 176.438 629.042C176.626 628.399 176.794 628.032 176.941 627.941C177.052 627.874 177.299 627.885 177.684 627.975L180.304 628.592C181.933 628.975 183.008 629.571 183.531 630.382C184.09 631.17 184.265 631.992 184.056 632.849C183.927 633.381 183.695 634.077 183.36 634.936C183.063 635.772 182.695 636.701 182.258 637.724C181.821 638.746 181.341 639.821 180.816 640.947C180.328 642.051 179.825 643.152 179.307 644.249C178.826 645.323 178.356 646.354 177.897 647.339C177.437 648.325 177.044 649.17 176.715 649.874C176.57 650.215 176.409 650.427 176.232 650.511C176.084 650.601 175.848 650.608 175.522 650.531L173.924 650.155Z" fill="white"/>
<path d="M158.203 658.084C156.663 657.722 155.629 657.151 155.099 656.37C154.606 655.566 154.445 654.685 154.616 653.725C154.046 654.653 153.134 655.376 151.881 655.894C150.665 656.39 149.065 656.404 147.081 655.937C145.926 655.666 144.855 655.18 143.868 654.479C142.888 653.748 142.098 652.75 141.498 651.484C140.899 650.218 140.549 648.635 140.448 646.736C140.377 644.845 140.662 642.583 141.303 639.953C141.548 638.948 141.888 637.809 142.323 636.536C142.766 635.234 143.33 633.944 144.017 632.668C144.74 631.37 145.601 630.15 146.599 629.009C147.633 627.846 148.839 626.88 150.216 626.11C151.623 625.347 153.231 624.85 155.04 624.619C156.857 624.359 158.92 624.5 161.229 625.043C162.739 625.398 164.046 625.878 165.151 626.481C166.286 627.092 167.196 627.79 167.881 628.577C168.595 629.37 169.07 630.247 169.306 631.209C169.571 632.177 169.573 633.194 169.314 634.258C168.896 635.972 168.017 637.14 166.676 637.763C165.342 638.355 163.653 638.411 161.611 637.931C160.959 637.778 160.57 637.639 160.444 637.516C160.354 637.37 160.334 637.131 160.384 636.799C160.454 636.253 160.54 635.71 160.64 635.171C160.769 634.639 160.814 634.134 160.774 633.656C160.764 633.185 160.628 632.778 160.367 632.435C160.106 632.092 159.62 631.837 158.91 631.67C157.459 631.329 156.204 631.471 155.143 632.097C154.083 632.723 153.187 633.575 152.455 634.653C151.723 635.731 151.142 636.891 150.714 638.134C150.293 639.348 149.979 640.383 149.77 641.24C149.424 642.659 149.221 643.877 149.161 644.895C149.108 645.882 149.169 646.725 149.344 647.422C149.555 648.097 149.865 648.623 150.274 649C150.69 649.348 151.209 649.595 151.831 649.741C152.956 650.006 153.961 649.992 154.846 649.7C155.731 649.408 156.398 648.659 156.849 647.453L157.72 645.032C158.018 644.196 158.306 643.529 158.583 643.032C158.868 642.505 159.292 642.308 159.855 642.44L162.297 643.015C163.037 643.189 163.608 643.417 164.009 643.698C164.446 643.958 164.737 644.307 164.88 644.747C165.06 645.165 165.123 645.679 165.067 646.291C165.012 646.903 164.88 647.638 164.671 648.495C164.527 649.086 164.307 649.863 164.01 650.824C163.743 651.793 163.442 652.769 163.108 653.753C162.804 654.744 162.504 655.658 162.206 656.494C161.915 657.301 161.701 657.86 161.563 658.171C161.438 658.423 161.321 658.583 161.211 658.651C161.1 658.719 160.912 658.721 160.645 658.659L158.203 658.084Z" fill="white"/>
<path d="M132.065 626.951C131.655 627.605 131.118 628.463 130.452 629.525C129.823 630.565 129.121 631.712 128.345 632.967C127.57 634.223 126.758 635.563 125.91 636.989C125.069 638.385 124.22 639.748 123.364 641.078C122.538 642.415 121.725 643.693 120.928 644.912C120.137 646.101 119.43 647.138 118.808 648.023C118.632 648.231 118.333 648.364 117.912 648.422C117.528 648.456 116.937 648.38 116.137 648.192C115.634 648.073 115.123 647.922 114.604 647.737C114.086 647.553 113.611 647.316 113.181 647.028C112.78 646.746 112.438 646.415 112.155 646.036C111.901 645.664 111.739 645.235 111.67 644.75C111.593 643.138 111.571 641.367 111.603 639.437C111.671 637.484 111.747 635.502 111.831 633.49C111.914 631.478 111.986 629.511 112.048 627.588C112.146 625.642 112.187 623.87 112.169 622.272C112.068 622.686 111.881 623.392 111.606 624.39C111.332 625.388 111.018 626.549 110.664 627.872C110.31 629.195 109.917 630.618 109.483 632.141C109.079 633.671 108.682 635.172 108.292 636.643C107.91 638.084 107.549 639.437 107.209 640.701C106.877 641.936 106.614 642.952 106.42 643.75C106.204 644.637 106.008 645.184 105.832 645.393C105.685 645.609 105.479 645.685 105.212 645.622L102.77 645.048C101.082 644.651 99.9621 644.044 99.41 643.227C98.8947 642.387 98.7954 641.316 99.1123 640.016C99.1987 639.661 99.3576 639.073 99.5888 638.253C99.8569 637.409 100.176 636.422 100.545 635.29C100.915 634.158 101.31 632.923 101.73 631.584C102.187 630.222 102.648 628.846 103.112 627.455C103.728 625.569 104.235 624 104.634 622.75C105.069 621.477 105.421 620.419 105.689 619.576C105.957 618.733 106.17 618.049 106.33 617.524C106.519 617.005 106.663 616.54 106.764 616.126C106.895 615.719 107.003 615.338 107.09 614.983C107.213 614.606 107.343 614.137 107.48 613.575C107.537 613.339 107.666 613.197 107.865 613.15C108.071 613.073 108.249 613.053 108.397 613.087L114.614 614.55C115.769 614.821 116.669 615.236 117.316 615.794C117.97 616.323 118.44 617.028 118.726 617.908C119.013 618.787 119.153 619.883 119.146 621.194C119.147 622.476 119.061 623.987 118.887 625.727C118.743 627.475 118.549 629.492 118.305 631.778C118.098 634.042 117.911 636.608 117.744 639.475C118.665 637.754 119.435 636.326 120.056 635.19C120.677 634.055 121.188 633.113 121.59 632.363C122.029 631.591 122.387 630.957 122.664 630.46C122.942 629.962 123.194 629.506 123.421 629.09C123.654 628.645 123.91 628.174 124.188 627.677C124.465 627.18 124.805 626.556 125.207 625.807C125.608 625.058 126.101 624.127 126.685 623.014C127.306 621.879 128.077 620.45 128.997 618.729C129.1 618.566 129.243 618.427 129.427 618.314C129.618 618.172 129.906 618.146 130.291 618.236L137.219 619.866C138.167 620.089 138.896 620.37 139.409 620.709C139.957 621.025 140.352 621.399 140.591 621.831C140.83 622.262 140.944 622.757 140.933 623.317C140.929 623.848 140.844 624.453 140.678 625.133C140.513 625.813 140.198 626.911 139.735 628.427C139.308 629.92 138.787 631.61 138.171 633.497C137.592 635.361 136.98 637.295 136.335 639.3C135.719 641.311 135.125 643.172 134.552 644.881C134.009 646.597 133.545 648.051 133.161 649.242C132.777 650.433 132.545 651.128 132.465 651.328C132.378 651.558 132.275 651.721 132.158 651.818C132.047 651.886 131.859 651.889 131.592 651.826L129.15 651.252C127.462 650.855 126.342 650.248 125.79 649.43C125.275 648.59 125.147 647.638 125.406 646.574C125.485 646.249 125.659 645.665 125.927 644.822C126.224 643.985 126.573 643.005 126.972 641.88C127.372 640.755 127.811 639.53 128.29 638.205C128.777 636.85 129.245 635.507 129.695 634.175C130.144 632.844 130.568 631.553 130.967 630.302C131.402 629.03 131.768 627.913 132.065 626.951Z" fill="white"/>
<path d="M90.0879 608.266C92.2492 608.774 94.024 609.52 95.4123 610.503C96.8079 611.456 97.8501 612.639 98.5391 614.051C99.2353 615.433 99.6001 617.019 99.6338 618.808C99.6746 620.568 99.4357 622.512 98.9172 624.64C98.6291 625.823 98.227 627.088 97.7109 628.435C97.2243 629.79 96.5862 631.124 95.7964 632.438C95.0434 633.73 94.1384 634.939 93.0813 636.066C92.0243 637.192 90.7812 638.119 89.352 638.845C87.9525 639.579 86.3629 640.064 84.5833 640.302C82.8108 640.51 80.8143 640.353 78.5938 639.831C76.1364 639.253 74.1835 638.403 72.7352 637.281C71.3164 636.166 70.2698 634.873 69.5952 633.402C68.9575 631.908 68.6402 630.255 68.6434 628.444C68.6762 626.639 68.9303 624.761 69.4056 622.81C69.9674 620.504 70.7812 618.32 71.847 616.258C72.9201 614.167 74.2872 612.41 75.9484 610.988C77.6392 609.573 79.6469 608.592 81.9715 608.045C84.3033 607.468 87.0087 607.542 90.0879 608.266ZM87.4808 614.919C86.4446 614.675 85.4947 614.655 84.6313 614.858C83.8047 615.039 83.0493 615.377 82.3652 615.872C81.7106 616.375 81.1269 616.972 80.6139 617.664C80.1306 618.363 79.6993 619.105 79.32 619.891C78.9479 620.647 78.6387 621.403 78.3922 622.157C78.1529 622.882 77.9613 623.541 77.8172 624.132C77.1619 626.822 77.1271 628.892 77.7128 630.342C78.3282 631.799 79.4648 632.723 81.1228 633.113C82.4848 633.433 83.6995 633.266 84.7669 632.61C85.8416 631.925 86.7634 631.033 87.5324 629.932C88.3382 628.809 88.9884 627.618 89.4829 626.359C89.9846 625.071 90.3471 623.969 90.5703 623.052C91.0961 620.895 91.1401 619.108 90.7024 617.692C90.2719 616.247 89.198 615.323 87.4808 614.919Z" fill="white"/>
<path d="M68.0586 552.238L80.0975 560.901L66.4412 566.813L68.0586 552.238Z" fill="white"/>
<path d="M151.254 702.629L156.39 716.395L141.687 713.881L151.254 702.629Z" fill="white"/>
<path d="M115.071 678.946L120.206 692.712L105.504 690.198L115.071 678.946Z" fill="white"/>
<path d="M209.869 638.578L211.53 645.458L218.021 648.514L210.895 650.388L207.518 656.831L205.857 649.951L199.366 646.895L206.492 645.021L209.869 638.578Z" fill="white"/>
<path d="M145.496 588.156L146.826 593.66L152.018 596.105L146.318 597.604L143.616 602.758L142.287 597.254L137.094 594.81L142.795 593.31L145.496 588.156Z" fill="white"/>
<path d="M84.3382 659.314L85.1131 666.17L90.8815 670.103L83.9473 670.801L80.0218 676.46L79.2469 669.604L73.4785 665.671L80.4127 664.973L84.3382 659.314Z" fill="white"/>
<path d="M90.7485 590.443C90.0391 593.619 86.8434 595.629 83.6106 594.932C80.3779 594.235 78.3323 591.095 79.0417 587.919C79.7511 584.743 82.9468 582.734 86.1796 583.431C89.4123 584.128 91.4579 587.267 90.7485 590.443Z" fill="white"/>
<defs>
<radialGradient id="paint0_radial_60_352" cx="0" cy="0" r="1" gradientUnits="userSpaceOnUse" gradientTransform="translate(1895.69 408.752) rotate(-146.215) scale(229.509 175.284)">
<stop stop-color="#7500D0"/>
<stop offset="0.390615" stop-color="#BF0049"/>
<stop offset="0.781387" stop-color="#C1000C"/>
<stop offset="1" stop-color="#EA320A"/>
</radialGradient>
<linearGradient id="paint1_linear_60_352" x1="17.9535" y1="607.336" x2="234.171" y2="655.63" gradientUnits="userSpaceOnUse">
<stop stop-color="#BEFF06"/>
<stop offset="0.58" stop-color="#00A310"/>
<stop offset="0.995" stop-color="#01933B"/>
</linearGradient>
</defs>
</svg>
