<svg width="360" height="889" viewBox="0 0 360 889" fill="none" xmlns="http://www.w3.org/2000/svg">
<path d="M317.429 241.704C317.429 249.982 324.011 256.692 332.131 256.692C340.251 256.692 346.833 249.982 346.833 241.704C346.833 233.426 340.251 226.715 332.131 226.715C324.011 226.715 317.429 233.426 317.429 241.704Z" fill="#5282FF"/>
<path d="M308.238 751.293C308.224 750.608 309.095 750.31 309.514 750.856L326.942 773.536C327.13 773.78 327.453 773.878 327.743 773.779L354.996 764.46C355.649 764.237 356.213 764.982 355.816 765.544L339.339 788.852C339.16 789.105 339.168 789.445 339.358 789.693L356.768 812.349C357.189 812.897 356.667 813.655 356.005 813.458L328.373 805.203C328.08 805.116 327.766 805.223 327.591 805.471L311.086 828.817C310.691 829.377 309.804 829.1 309.79 828.414L309.218 799.999C309.212 799.689 309.004 799.417 308.705 799.327L281.119 791.087C280.454 790.888 280.428 789.959 281.082 789.735L308.334 780.416C308.624 780.317 308.816 780.043 308.81 779.736L308.238 751.293Z" fill="#FFC700"/>
<path fill-rule="evenodd" clip-rule="evenodd" d="M48.9035 738.944L37.0225 774.222L7.82855 758.447L13.8917 791.1L-16.6642 798.389L6.6679 823.541L-0.986493 844.358L23.2097 841.902L32.2543 864.556L57.6195 846.683L71.0991 870.886L89.9384 856.333L115.745 880.541L121.739 844.582L151.479 840.96L128.147 815.808L138.549 790.56L105.266 787.501L104.483 755.99L73.2606 776.441L48.9035 738.944ZM84.4994 838.007C83.9443 840.5 81.4438 842.077 78.9143 841.53C76.3848 840.983 74.7842 838.519 75.3393 836.026C75.8944 833.533 78.3949 831.956 80.9244 832.503C83.4539 833.05 85.0545 835.514 84.4994 838.007ZM53.9032 774.029C55.4842 774.371 57.047 773.385 57.3939 771.827C57.7409 770.269 56.7405 768.729 55.1596 768.387C53.5786 768.045 52.0158 769.031 51.6689 770.589C51.3219 772.147 52.3223 773.687 53.9032 774.029Z" fill="url(#paint0_linear_110_276)"/>
<path d="M105.936 825.648C106.909 825.878 107.545 826.285 107.843 826.871C108.148 827.433 108.196 828.144 107.987 829.002C107.897 829.373 107.752 829.768 107.552 830.187C107.352 830.606 107.077 830.983 106.727 831.317C106.405 831.633 105.978 831.876 105.447 832.045C104.945 832.197 104.335 832.188 103.617 832.018C102.575 831.772 101.933 831.339 101.692 830.718C101.456 830.074 101.437 829.346 101.634 828.534C101.747 828.07 101.915 827.631 102.138 827.217C102.361 826.804 102.642 826.453 102.981 826.165C103.321 825.877 103.736 825.681 104.227 825.576C104.717 825.471 105.287 825.495 105.936 825.648ZM107.292 823.392C106.713 823.256 106.255 823.074 105.918 822.848C105.581 822.621 105.342 822.344 105.201 822.016C105.066 821.666 105.003 821.27 105.012 820.831C105.049 820.374 105.136 819.867 105.271 819.31C105.322 819.101 105.375 818.881 105.432 818.649C105.517 818.399 105.616 818.091 105.729 817.726C105.866 817.365 106.013 816.909 106.172 816.358C106.353 815.812 106.583 815.118 106.861 814.276C107.145 813.411 107.482 812.375 107.873 811.167C108.265 809.959 108.727 808.511 109.26 806.821C109.407 806.316 109.538 806.028 109.653 805.957C109.74 805.904 109.933 805.913 110.235 805.984L112.285 806.468C113.559 806.768 114.401 807.237 114.809 807.873C115.247 808.491 115.384 809.137 115.221 809.809C115.119 810.227 114.938 810.773 114.676 811.447C114.443 812.103 114.156 812.833 113.814 813.635C113.472 814.438 113.096 815.281 112.685 816.165C112.303 817.032 111.909 817.896 111.504 818.757C111.128 819.6 110.76 820.409 110.401 821.182C110.041 821.956 109.733 822.619 109.477 823.172C109.363 823.439 109.236 823.606 109.098 823.671C108.983 823.742 108.798 823.748 108.543 823.688L107.292 823.392Z" fill="white"/>
<path d="M94.9915 829.615C93.7868 829.331 92.9773 828.883 92.5628 828.27C92.1771 827.639 92.0512 826.947 92.1852 826.194C91.7388 826.923 91.0253 827.49 90.0448 827.897C89.0931 828.285 87.8412 828.297 86.289 827.931C85.3855 827.717 84.5475 827.336 83.7749 826.786C83.0079 826.212 82.3899 825.429 81.9209 824.435C81.452 823.441 81.178 822.199 81.0992 820.709C81.0434 819.224 81.2663 817.449 81.7679 815.384C81.9595 814.596 82.2256 813.702 82.5662 812.703C82.9124 811.681 83.3542 810.669 83.8914 809.667C84.4574 808.648 85.1308 807.691 85.9116 806.796C86.7212 805.883 87.6647 805.124 88.7423 804.52C89.843 803.921 91.1012 803.531 92.5169 803.35C93.9382 803.145 95.5523 803.256 97.3593 803.683C98.5408 803.961 99.5639 804.338 100.429 804.811C101.316 805.291 102.028 805.839 102.564 806.456C103.123 807.078 103.495 807.767 103.679 808.522C103.886 809.282 103.888 810.08 103.686 810.915C103.359 812.26 102.671 813.177 101.621 813.666C100.578 814.131 99.2564 814.175 97.6579 813.798C97.1482 813.677 96.844 813.569 96.745 813.472C96.6749 813.357 96.6593 813.17 96.6981 812.909C96.7532 812.48 96.8199 812.055 96.8981 811.632C96.9996 811.214 97.0346 810.818 97.0033 810.442C96.9952 810.072 96.8891 809.753 96.6849 809.484C96.4808 809.215 96.1008 809.015 95.5448 808.884C94.4096 808.616 93.4272 808.728 92.5976 809.219C91.768 809.71 91.0667 810.379 90.4938 811.225C89.9209 812.071 89.467 812.982 89.132 813.957C88.8027 814.91 88.5563 815.723 88.3929 816.395C88.1224 817.509 87.9636 818.465 87.9167 819.263C87.8754 820.038 87.9229 820.7 88.0594 821.247C88.2247 821.777 88.4673 822.189 88.7873 822.486C89.1129 822.759 89.5189 822.953 90.0054 823.067C90.8857 823.275 91.6721 823.264 92.3646 823.035C93.0571 822.806 93.5796 822.218 93.9321 821.271L94.614 819.371C94.8469 818.715 95.072 818.192 95.2893 817.801C95.5122 817.388 95.8437 817.233 96.2839 817.337L98.1951 817.788C98.7743 817.924 99.2207 818.103 99.5344 818.324C99.8769 818.528 100.104 818.802 100.216 819.148C100.357 819.475 100.406 819.879 100.363 820.36C100.32 820.84 100.216 821.417 100.053 822.089C99.9401 822.553 99.7676 823.163 99.5353 823.917C99.3262 824.677 99.091 825.444 98.83 826.216C98.592 826.994 98.3566 827.711 98.1237 828.367C97.8964 829.001 97.7286 829.439 97.6203 829.684C97.5232 829.882 97.4315 830.007 97.3451 830.06C97.2587 830.114 97.1112 830.116 96.9027 830.066L94.9915 829.615Z" fill="white"/>
<path d="M74.5396 805.18C74.219 805.693 73.7982 806.367 73.2773 807.201C72.7852 808.017 72.2357 808.917 71.629 809.902C71.0223 810.888 70.3871 811.94 69.7234 813.059C69.0653 814.154 68.4013 815.224 67.7314 816.268C67.0846 817.318 66.4491 818.32 65.8248 819.277C65.2062 820.21 64.6533 821.024 64.1662 821.719C64.0285 821.883 63.7949 821.987 63.4656 822.032C63.1651 822.059 62.702 821.999 62.0765 821.851C61.6827 821.759 61.2829 821.64 60.8772 821.495C60.4715 821.35 60.1002 821.164 59.7633 820.938C59.4497 820.717 59.182 820.457 58.9603 820.16C58.7619 819.868 58.6354 819.531 58.5809 819.15C58.5208 817.885 58.5033 816.495 58.5283 814.98C58.5822 813.448 58.6417 811.892 58.7068 810.313C58.7719 808.734 58.8286 807.19 58.8768 805.68C58.9538 804.153 58.9855 802.762 58.9717 801.508C58.8928 801.833 58.746 802.387 58.5312 803.17C58.3164 803.953 58.0707 804.864 57.7939 805.903C57.5172 806.941 57.2091 808.058 56.8698 809.254C56.5536 810.455 56.243 811.633 55.9381 812.787C55.6388 813.918 55.3564 814.98 55.0909 815.972C54.8311 816.941 54.6251 817.739 54.4729 818.365C54.3039 819.061 54.1505 819.491 54.0127 819.655C53.8981 819.824 53.7366 819.884 53.5281 819.835L51.6169 819.384C50.2964 819.073 49.4201 818.596 48.9881 817.954C48.5849 817.295 48.5073 816.455 48.7552 815.434C48.8228 815.156 48.9471 814.695 49.1281 814.051C49.3378 813.389 49.5873 812.614 49.8766 811.725C50.1659 810.837 50.4749 809.867 50.8036 808.816C51.1611 807.748 51.5215 806.668 51.8846 805.576C52.3667 804.095 52.7637 802.864 53.0755 801.883C53.4161 800.884 53.6913 800.054 53.9011 799.392C54.1108 798.73 54.278 798.193 54.4026 797.781C54.5504 797.374 54.6637 797.009 54.7426 796.684C54.8446 796.364 54.9295 796.066 54.9971 795.787C55.0935 795.491 55.1953 795.123 55.3023 794.682C55.3474 794.496 55.4479 794.385 55.6038 794.348C55.7654 794.288 55.904 794.272 56.0199 794.299L60.8848 795.447C61.7883 795.66 62.493 795.986 62.9989 796.424C63.5105 796.839 63.8783 797.392 64.1025 798.082C64.3266 798.773 64.4362 799.633 64.4312 800.662C64.4318 801.668 64.3642 802.854 64.2283 804.22C64.1156 805.591 63.9637 807.174 63.7728 808.969C63.6106 810.746 63.4644 812.76 63.3341 815.01C64.0542 813.659 64.6571 812.538 65.143 811.647C65.6289 810.756 66.029 810.016 66.3433 809.428C66.6864 808.822 66.9666 808.324 67.1839 807.934C67.4011 807.544 67.5984 807.186 67.7756 806.859C67.9584 806.51 68.1584 806.14 68.3757 805.75C68.593 805.36 68.8588 804.87 69.1731 804.282C69.4874 803.694 69.8731 802.963 70.3302 802.09C70.816 801.199 71.419 800.078 72.139 798.727C72.2192 798.599 72.3313 798.49 72.4753 798.402C72.6249 798.29 72.8503 798.269 73.1515 798.34L78.5724 799.619C79.3138 799.794 79.8848 800.015 80.2855 800.281C80.715 800.529 81.0234 800.823 81.2106 801.161C81.3978 801.5 81.487 801.889 81.4783 802.328C81.4751 802.745 81.4088 803.219 81.2791 803.753C81.1495 804.287 80.9035 805.148 80.5409 806.338C80.2072 807.511 79.7993 808.837 79.3172 810.318C78.8638 811.781 78.3849 813.299 77.8802 814.872C77.3987 816.451 76.9338 817.912 76.4855 819.253C76.0604 820.6 75.6975 821.741 75.397 822.676C75.0964 823.61 74.9148 824.156 74.8522 824.313C74.784 824.493 74.7038 824.622 74.6118 824.698C74.5254 824.751 74.3779 824.753 74.1694 824.704L72.2582 824.253C70.9377 823.942 70.0615 823.465 69.6294 822.824C69.2262 822.164 69.1261 821.417 69.3289 820.582C69.3909 820.327 69.5268 819.868 69.7365 819.206C69.9694 818.55 70.2421 817.78 70.5546 816.897C70.867 816.014 71.2108 815.053 71.5858 814.013C71.9665 812.95 72.3328 811.896 72.6847 810.851C73.0365 809.805 73.3684 808.792 73.6802 807.811C74.0208 806.812 74.3073 805.935 74.5396 805.18Z" fill="white"/>
<path d="M41.6939 790.515C43.385 790.914 44.7737 791.499 45.8601 792.271C46.952 793.019 47.7675 793.947 48.3066 795.055C48.8514 796.141 49.1369 797.385 49.1632 798.79C49.1951 800.171 49.0083 801.697 48.6025 803.367C48.3771 804.295 48.0625 805.288 47.6587 806.345C47.278 807.409 46.7787 808.456 46.1607 809.487C45.5716 810.501 44.8634 811.45 44.0363 812.335C43.2092 813.219 42.2366 813.946 41.1183 814.516C40.0233 815.092 38.7795 815.473 37.387 815.659C36.0001 815.823 34.438 815.7 32.7005 815.29C30.7777 814.836 29.2496 814.169 28.1164 813.289C27.0062 812.413 26.1873 811.398 25.6594 810.244C25.1604 809.071 24.9122 807.774 24.9146 806.352C24.9403 804.935 25.1391 803.461 25.511 801.93C25.9505 800.12 26.5873 798.406 27.4212 796.788C28.2608 795.146 29.3306 793.768 30.6304 792.652C31.9534 791.541 33.5243 790.771 35.3431 790.342C37.1677 789.889 39.2846 789.947 41.6939 790.515ZM39.654 795.737C38.8432 795.546 38.1 795.53 37.4244 795.689C36.7776 795.831 36.1866 796.096 35.6512 796.485C35.1391 796.879 34.6823 797.348 34.281 797.891C33.9028 798.44 33.5653 799.022 33.2686 799.639C32.9774 800.233 32.7354 800.826 32.5426 801.418C32.3554 801.987 32.2054 802.504 32.0927 802.968C31.58 805.079 31.5527 806.704 32.0111 807.842C32.4926 808.986 33.382 809.711 34.6793 810.017C35.7449 810.268 36.6954 810.137 37.5306 809.622C38.3715 809.085 39.0928 808.384 39.6945 807.521C40.325 806.639 40.8337 805.704 41.2206 804.716C41.6132 803.705 41.8968 802.84 42.0715 802.121C42.4828 800.427 42.5173 799.025 42.1748 797.914C41.8379 796.78 40.9977 796.054 39.654 795.737Z" fill="white"/>
<path d="M24.457 746.541L33.877 753.34L23.1915 757.98L24.457 746.541Z" fill="white"/>
<path d="M89.5544 864.577L93.5724 875.381L82.0687 873.408L89.5544 864.577Z" fill="white"/>
<path d="M61.2422 845.989L65.2603 856.793L53.7565 854.82L61.2422 845.989Z" fill="white"/>
<path d="M135.418 814.306L136.718 819.706L141.796 822.104L136.221 823.575L133.579 828.632L132.279 823.232L127.2 820.833L132.775 819.362L135.418 814.306Z" fill="white"/>
<path d="M85.049 774.731L86.089 779.052L90.1519 780.97L85.6916 782.147L83.5777 786.193L82.5377 781.873L78.4748 779.954L82.9351 778.777L85.049 774.731Z" fill="white"/>
<path d="M37.1953 830.581L37.8016 835.962L42.3151 839.049L36.8894 839.597L33.8179 844.038L33.2115 838.657L28.698 835.571L34.1238 835.023L37.1953 830.581Z" fill="white"/>
<path d="M42.2107 776.527C41.6556 779.02 39.1551 780.597 36.6256 780.05C34.0961 779.503 32.4955 777.039 33.0506 774.546C33.6057 772.053 36.1062 770.476 38.6357 771.023C41.1652 771.57 42.7658 774.034 42.2107 776.527Z" fill="white"/>
<path d="M67.753 658.913C68.0756 658.05 69.2921 658.048 69.6174 658.91L78.4066 682.208C78.5095 682.481 78.7261 682.695 78.9994 682.794L102.617 691.366C103.492 691.684 103.494 692.924 102.62 693.244L79.0291 701.888C78.756 701.988 78.5402 702.202 78.4381 702.475L69.7213 725.8C69.3987 726.663 68.1822 726.665 67.8569 725.803L59.0677 702.505C58.9648 702.232 58.7482 702.018 58.4749 701.919L34.857 693.347C33.9821 693.029 33.9801 691.789 34.854 691.468L58.4452 682.825C58.7183 682.725 58.9341 682.51 59.0362 682.237L67.753 658.913Z" fill="#7000FF"/>
<path d="M13.4823 712.842C13.8049 711.979 15.0214 711.977 15.3467 712.839L19.042 722.635C19.1449 722.907 19.3614 723.121 19.6348 723.221L29.5353 726.814C30.4102 727.132 30.4121 728.372 29.5382 728.692L19.6489 732.315C19.3759 732.415 19.16 732.63 19.058 732.903L15.3932 742.709C15.0706 743.573 13.854 743.574 13.5288 742.712L9.83352 732.917C9.73063 732.644 9.51411 732.43 9.24074 732.331L-0.659784 728.738C-1.53469 728.42 -1.53662 727.18 -0.662709 726.859L9.22658 723.236C9.49964 723.136 9.7155 722.922 9.81754 722.648L13.4823 712.842Z" fill="#5282FF"/>
<path fill-rule="evenodd" clip-rule="evenodd" d="M5.07144 574.653C4.58204 574.401 4.39479 573.802 4.6532 573.314L22.5829 539.511C22.8413 539.024 23.4476 538.833 23.937 539.085C24.4264 539.337 24.6136 539.937 24.3552 540.424L6.42548 574.227C6.16707 574.715 5.56085 574.905 5.07144 574.653Z" fill="#02CCC0"/>
<path fill-rule="evenodd" clip-rule="evenodd" d="M106.745 540.105C106.542 540.618 105.961 540.874 105.447 540.676L36.4297 514.127C35.916 513.929 35.6643 513.353 35.8674 512.84C36.0706 512.327 36.6517 512.072 37.1654 512.269L106.183 538.819C106.696 539.016 106.948 539.592 106.745 540.105Z" fill="#009436"/>
<path d="M61.5814 559.192C62.9584 563.102 60.8582 567.372 56.8904 568.729C52.9227 570.086 48.5899 568.016 47.2129 564.106C45.8359 560.196 47.9361 555.926 51.9038 554.569C55.8716 553.212 60.2043 555.282 61.5814 559.192Z" fill="#FFC700"/>
<path d="M184.316 478.513C184.316 486.791 177.733 493.502 169.613 493.502C161.494 493.502 154.911 486.791 154.911 478.513C154.911 470.235 161.494 463.525 169.613 463.525C177.733 463.525 184.316 470.235 184.316 478.513Z" fill="#7000FF"/>
<path d="M302.55 404.317C302.236 403.451 301.02 403.438 300.686 404.297L291.667 427.51C291.561 427.781 291.343 427.993 291.068 428.09L267.367 436.435C266.489 436.744 266.475 437.985 267.345 438.313L290.85 447.182C291.122 447.285 291.336 447.502 291.435 447.776L299.921 471.183C300.235 472.049 301.452 472.063 301.786 471.203L310.805 447.991C310.91 447.719 311.129 447.507 311.403 447.41L335.105 439.065C335.983 438.756 335.997 437.516 335.126 437.187L311.621 428.318C311.349 428.215 311.135 427.999 311.036 427.725L302.55 404.317Z" fill="#7000FF"/>
<path fill-rule="evenodd" clip-rule="evenodd" d="M301.851 349.746C302.199 349.319 302.132 348.695 301.7 348.353L271.547 324.44C271.115 324.098 270.483 324.167 270.134 324.594C269.785 325.021 269.853 325.644 270.284 325.986L300.438 349.899C300.87 350.241 301.502 350.173 301.851 349.746Z" fill="#02CCC0"/>
<path fill-rule="evenodd" clip-rule="evenodd" d="M194.644 358.173C195.036 358.56 195.672 358.561 196.065 358.175L248.543 306.635C248.937 306.249 248.938 305.622 248.546 305.234C248.154 304.847 247.518 304.846 247.125 305.232L194.646 356.772C194.253 357.158 194.252 357.785 194.644 358.173Z" fill="#009436"/>
<path d="M243.789 357.857C244.114 361.984 247.772 365.069 251.959 364.749C256.147 364.428 259.278 360.823 258.952 356.697C258.627 352.57 254.969 349.485 250.782 349.805C246.595 350.126 243.464 353.731 243.789 357.857Z" fill="#FFC700"/>
<path fill-rule="evenodd" clip-rule="evenodd" d="M336.64 476.869C341.372 474.834 343.498 469.425 341.456 464.815C339.415 460.205 333.945 458.065 329.213 460.1C324.481 462.135 322.354 467.543 324.396 472.153C326.438 476.763 331.908 478.904 336.64 476.869ZM337.449 478.695C343.171 476.234 345.785 469.667 343.287 464.028C340.79 458.389 334.126 455.812 328.404 458.274C322.681 460.735 320.067 467.302 322.565 472.941C325.063 478.58 331.726 481.157 337.449 478.695Z" fill="#FF0071"/>
<path fill-rule="evenodd" clip-rule="evenodd" d="M9.21692 456.869C13.9488 454.834 16.0754 449.426 14.0336 444.816C11.9919 440.206 6.52189 438.065 1.78998 440.1C-2.94193 442.135 -5.06845 447.544 -3.02671 452.154C-0.984966 456.764 4.48501 458.904 9.21692 456.869ZM10.0258 458.696C15.7481 456.234 18.3623 449.667 15.8647 444.028C13.3671 438.389 6.70346 435.813 0.981105 438.274C-4.74125 440.735 -7.3554 447.302 -4.85778 452.941C-2.36016 458.581 4.30345 461.157 10.0258 458.696Z" fill="#FF0071"/>
<path d="M309.616 847.217C309.616 849.97 307.351 852.202 304.557 852.202C301.763 852.202 299.498 849.97 299.498 847.217C299.498 844.463 301.763 842.231 304.557 842.231C307.351 842.231 309.616 844.463 309.616 847.217Z" fill="#E20265"/>
<path fill-rule="evenodd" clip-rule="evenodd" d="M261.263 825.994C264.632 825.994 267.432 823.163 267.432 819.584C267.432 816.004 264.632 813.173 261.263 813.173C257.895 813.173 255.095 816.004 255.095 819.584C255.095 823.163 257.895 825.994 261.263 825.994ZM261.263 827.419C265.455 827.419 268.852 823.911 268.852 819.584C268.852 815.257 265.455 811.749 261.263 811.749C257.072 811.749 253.675 815.257 253.675 819.584C253.675 823.911 257.072 827.419 261.263 827.419Z" fill="#7000FF"/>
<path fill-rule="evenodd" clip-rule="evenodd" d="M51.2323 49.855C58.8451 49.855 64.9561 43.7823 64.9561 36.3655C64.9561 28.9486 58.8451 22.8759 51.2323 22.8759C43.6195 22.8759 37.5085 28.9486 37.5085 36.3655C37.5085 43.7823 43.6195 49.855 51.2323 49.855ZM51.2323 51.8535C59.9121 51.8535 66.9484 44.9193 66.9484 36.3655C66.9484 27.8117 59.9121 20.8774 51.2323 20.8774C42.5526 20.8774 35.5162 27.8117 35.5162 36.3655C35.5162 44.9193 42.5526 51.8535 51.2323 51.8535Z" fill="#FF0071"/>
<path fill-rule="evenodd" clip-rule="evenodd" d="M88.7924 67.7538C94.3989 67.7538 98.8808 63.2843 98.8808 57.8484C98.8808 52.4124 94.3989 47.943 88.7924 47.943C83.1859 47.943 78.7041 52.4124 78.7041 57.8484C78.7041 63.2843 83.1859 67.7538 88.7924 67.7538ZM88.7924 69.8391C95.5122 69.8391 100.96 64.4707 100.96 57.8484C100.96 51.2261 95.5122 45.8577 88.7924 45.8577C82.0726 45.8577 76.6251 51.2261 76.6251 57.8484C76.6251 64.4707 82.0726 69.8391 88.7924 69.8391Z" fill="#FFC700"/>
<path d="M5.13071 222.41C4.92814 221.47 6.05337 220.83 6.77744 221.473L16.2246 229.855C16.5486 230.143 17.0209 230.193 17.3955 229.98L28.3883 223.726C29.2295 223.247 30.2052 224.121 29.8089 224.998L24.6537 236.409C24.4758 236.802 24.5769 237.267 24.9035 237.556L34.3311 245.922C35.0566 246.566 34.5342 247.746 33.5682 247.646L20.9211 246.336C20.4918 246.291 20.084 246.523 19.9084 246.912L14.7361 258.361C14.341 259.235 13.0425 259.091 12.8396 258.15L10.2019 245.921C10.1106 245.497 9.75305 245.179 9.31815 245.134L-3.28695 243.828C-4.25594 243.728 -4.5361 242.458 -3.69487 241.98L7.29793 235.725C7.67248 235.512 7.86445 235.084 7.7738 234.664L5.13071 222.41Z" fill="#FFC700"/>
<path fill-rule="evenodd" clip-rule="evenodd" d="M378.387 67.1723C378.736 66.745 378.669 66.121 378.236 65.7785L348.019 41.8472C347.587 41.5047 346.953 41.5734 346.604 42.0006C346.254 42.4279 346.322 43.0519 346.754 43.3944L376.971 67.3257C377.404 67.6682 378.037 67.5995 378.387 67.1723Z" fill="#02CCC0"/>
<path fill-rule="evenodd" clip-rule="evenodd" d="M270.955 75.6051C271.348 75.9928 271.986 75.9939 272.38 75.6075L324.968 24.0275C325.362 23.6411 325.363 23.0136 324.97 22.6259C324.577 22.2381 323.94 22.237 323.546 22.6234L270.958 74.2035C270.564 74.5898 270.563 75.2174 270.955 75.6051Z" fill="#009436"/>
<path d="M320.203 75.2899C320.529 79.4196 324.195 82.5074 328.391 82.1867C332.587 81.8661 335.724 78.2583 335.398 74.1286C335.072 69.9989 331.407 66.9111 327.211 67.2318C323.015 67.5524 319.877 71.1602 320.203 75.2899Z" fill="#FFC700"/>
<path fill-rule="evenodd" clip-rule="evenodd" d="M361.34 166.394C366.082 164.357 368.213 158.944 366.167 154.331C364.121 149.717 358.639 147.575 353.897 149.612C349.156 151.649 347.025 157.061 349.071 161.675C351.117 166.288 356.598 168.431 361.34 166.394ZM362.15 168.222C367.885 165.758 370.504 159.186 368.001 153.543C365.499 147.899 358.821 145.321 353.087 147.784C347.352 150.247 344.733 156.819 347.236 162.463C349.739 168.107 356.416 170.685 362.15 168.222Z" fill="#FF0071"/>
<path d="M269.287 332.269L226.599 356.672L266.5 370.125L255.702 403.866L298.195 386.313L306.587 411.186L326.258 392.333L352.953 414.64L352.929 379.876L386.975 385.881L367.427 356.917L400.774 333.507L364.237 327.766L371.072 289.48L344.038 307.253L334.669 284.967L316.32 301.507L290.424 277.873L290.793 312.911L255.426 309.219L269.287 332.269Z" fill="url(#paint1_radial_110_276)"/>
<path d="M280.821 285.102L283.753 290.908L290.134 292.494L284.243 295.383L282.634 301.672L279.702 295.866L273.32 294.28L279.212 291.391L280.821 285.102Z" fill="white"/>
<path d="M254.557 323.781L258.804 334.597L247.176 332.814L254.557 323.781Z" fill="white"/>
<path d="M350.128 285.187L354.928 291.661L346.838 292.521L350.128 285.187Z" fill="white"/>
<path d="M344.115 365.758L355.528 370.729L345.453 377.984L344.115 365.758Z" fill="white"/>
<path d="M273.41 382.826L277.436 388.511L270.428 389.104L273.41 382.826Z" fill="#D9D9D9"/>
<path d="M320.724 382.057C320.909 383.752 319.666 385.274 317.946 385.456C316.226 385.639 314.682 384.413 314.497 382.719C314.311 381.024 315.555 379.502 317.274 379.319C318.994 379.137 320.538 380.362 320.724 382.057Z" fill="white"/>
<path d="M304.637 309.887C304.823 311.582 303.579 313.104 301.859 313.287C300.14 313.47 298.595 312.244 298.41 310.549C298.224 308.855 299.468 307.333 301.188 307.15C302.907 306.967 304.452 308.193 304.637 309.887Z" fill="#D9D9D9"/>
<path d="M333.418 308.071C333.603 309.765 332.359 311.287 330.64 311.47C328.92 311.653 327.376 310.427 327.19 308.733C327.005 307.038 328.249 305.516 329.968 305.333C331.688 305.15 333.232 306.376 333.418 308.071Z" fill="white"/>
<path d="M245.098 347.256C245.284 348.951 244.04 350.473 242.32 350.655C240.6 350.838 239.056 349.612 238.871 347.918C238.685 346.223 239.929 344.701 241.649 344.518C243.368 344.335 244.913 345.561 245.098 347.256Z" fill="white"/>
<path d="M355.972 333.452C356.84 333.116 357.545 333.093 358.089 333.384C358.624 333.653 359.043 334.17 359.346 334.935C359.477 335.265 359.579 335.643 359.652 336.068C359.725 336.492 359.718 336.924 359.63 337.363C359.554 337.774 359.359 338.183 359.044 338.591C358.742 338.97 358.27 339.284 357.63 339.532C356.701 339.891 355.977 339.897 355.458 339.55C354.931 339.182 354.524 338.636 354.238 337.913C354.074 337.5 353.966 337.077 353.914 336.644C353.861 336.211 353.887 335.796 353.992 335.398C354.096 335 354.308 334.632 354.627 334.295C354.945 333.957 355.394 333.676 355.972 333.452ZM355.794 331.018C355.278 331.218 354.83 331.32 354.45 331.324C354.071 331.328 353.739 331.242 353.455 331.066C353.162 330.869 352.901 330.601 352.671 330.261C352.454 329.892 352.247 329.46 352.05 328.964C351.977 328.778 351.899 328.581 351.817 328.375C351.748 328.139 351.658 327.852 351.547 327.514C351.458 327.167 351.325 326.742 351.149 326.238C350.994 325.726 350.796 325.076 350.555 324.287C350.306 323.478 350.006 322.51 349.654 321.382C349.303 320.255 348.876 318.907 348.374 317.338C348.214 316.875 348.16 316.586 348.209 316.472C348.247 316.386 348.4 316.291 348.668 316.187L350.496 315.479C351.632 315.04 352.528 314.955 353.183 315.226C353.85 315.468 354.303 315.889 354.54 316.488C354.688 316.86 354.843 317.372 355.006 318.024C355.181 318.647 355.354 319.355 355.525 320.147C355.696 320.939 355.862 321.78 356.025 322.671C356.199 323.533 356.364 324.398 356.518 325.268C356.684 326.11 356.838 326.92 356.98 327.699C357.122 328.478 357.244 329.146 357.345 329.703C357.402 329.967 357.396 330.16 357.325 330.283C357.275 330.397 357.137 330.499 356.909 330.587L355.794 331.018Z" fill="white"/>
<path d="M346.835 336.988C347.703 336.652 348.408 336.629 348.952 336.919C349.487 337.189 349.907 337.706 350.209 338.471C350.34 338.801 350.442 339.179 350.515 339.603C350.588 340.028 350.581 340.46 350.493 340.899C350.417 341.31 350.222 341.719 349.907 342.127C349.605 342.506 349.133 342.82 348.493 343.067C347.564 343.427 346.84 343.433 346.321 343.086C345.794 342.718 345.387 342.172 345.101 341.449C344.937 341.036 344.829 340.613 344.777 340.18C344.724 339.747 344.751 339.332 344.855 338.934C344.959 338.536 345.171 338.168 345.49 337.83C345.808 337.493 346.257 337.212 346.835 336.988ZM346.657 334.554C346.141 334.754 345.693 334.856 345.313 334.86C344.934 334.864 344.602 334.778 344.318 334.602C344.025 334.405 343.764 334.137 343.534 333.797C343.317 333.428 343.11 332.996 342.913 332.5C342.84 332.314 342.762 332.117 342.68 331.911C342.611 331.675 342.521 331.388 342.41 331.05C342.321 330.703 342.188 330.278 342.012 329.774C341.857 329.262 341.659 328.612 341.418 327.823C341.169 327.014 340.869 326.045 340.517 324.918C340.166 323.791 339.739 322.443 339.237 320.873C339.077 320.411 339.023 320.122 339.072 320.008C339.11 319.922 339.263 319.827 339.531 319.723L341.359 319.015C342.495 318.576 343.391 318.491 344.046 318.762C344.713 319.004 345.166 319.425 345.403 320.024C345.551 320.396 345.706 320.908 345.869 321.56C346.044 322.183 346.217 322.891 346.388 323.683C346.559 324.475 346.725 325.316 346.888 326.207C347.062 327.068 347.227 327.934 347.381 328.804C347.547 329.646 347.701 330.456 347.843 331.235C347.985 332.014 348.107 332.682 348.208 333.239C348.265 333.503 348.259 333.696 348.188 333.819C348.138 333.933 348 334.035 347.772 334.123L346.657 334.554Z" fill="white"/>
<path d="M335.66 343.852C335.331 342.239 335.038 340.839 334.782 339.651C334.538 338.434 334.315 337.389 334.111 336.514C333.928 335.632 333.759 334.875 333.605 334.244C333.471 333.604 333.344 333.045 333.226 332.567C333.121 332.059 333.019 331.622 332.921 331.255C332.836 330.859 332.746 330.453 332.652 330.036C332.604 329.793 332.637 329.577 332.754 329.389C332.89 329.193 333.207 328.999 333.702 328.807C333.971 328.703 334.351 328.58 334.842 328.438C335.346 328.267 335.86 328.151 336.384 328.091C336.908 328.031 337.389 328.072 337.826 328.212C338.275 328.325 338.59 328.608 338.77 329.063C338.901 329.393 339.004 329.925 339.08 330.658C339.148 331.371 339.205 332.207 339.252 333.166C339.298 334.125 339.328 335.162 339.341 336.278C339.346 337.372 339.341 338.471 339.325 339.573C339.321 340.647 339.312 341.675 339.296 342.659C339.281 343.642 339.272 344.491 339.27 345.207C339.252 345.643 339.185 345.955 339.069 346.143C338.973 346.323 338.73 346.489 338.337 346.641L336.509 347.348C335.931 347.572 335.427 347.684 334.998 347.683C334.569 347.682 334.192 347.602 333.866 347.442C333.541 347.282 333.255 347.071 333.008 346.809C332.753 346.526 332.521 346.211 332.312 345.863C331.688 344.889 330.91 343.557 329.979 341.868C329.048 340.178 328.01 338.161 326.867 335.815C326.943 336.309 327.061 336.967 327.219 337.787C327.398 338.6 327.581 339.483 327.768 340.435C327.975 341.38 328.181 342.349 328.384 343.343C328.587 344.337 328.776 345.265 328.951 346.127C329.117 346.968 329.253 347.702 329.358 348.328C329.456 348.934 329.496 349.336 329.478 349.533C329.457 349.78 329.376 349.966 329.235 350.092C329.107 350.189 328.898 350.294 328.609 350.406L326.441 351.245C325.904 351.453 325.41 351.561 324.961 351.568C324.523 351.546 324.111 351.468 323.724 351.332C323.357 351.188 323.019 350.997 322.711 350.758C322.414 350.492 322.155 350.199 321.934 349.879C319.046 345.897 316.866 342.891 315.396 340.862C313.946 338.825 313.188 337.724 313.123 337.559C313.049 337.373 313.076 337.172 313.205 336.955C313.334 336.739 313.542 336.574 313.832 336.462C314.72 336.119 315.5 335.864 316.173 335.699C316.838 335.513 317.414 335.433 317.901 335.46C318.408 335.478 318.841 335.608 319.199 335.851C319.557 336.094 319.874 336.472 320.148 336.985C320.284 337.266 320.558 337.839 320.972 338.704C321.386 339.569 321.849 340.557 322.362 341.67C322.886 342.754 323.409 343.862 323.929 344.996C324.47 346.121 324.931 347.075 325.313 347.857C325.053 346.479 324.844 345.38 324.686 344.56C324.548 343.731 324.428 343.039 324.327 342.482C324.226 341.925 324.128 341.439 324.035 341.022C323.962 340.598 323.87 340.097 323.761 339.519C323.651 338.942 323.499 338.227 323.303 337.373C323.129 336.511 322.899 335.36 322.615 333.921C322.501 333.393 322.95 332.933 323.962 332.541C324.602 332.294 325.21 332.083 325.784 331.908C326.358 331.734 326.894 331.645 327.393 331.642C327.884 331.619 328.346 331.703 328.779 331.893C329.203 332.062 329.58 332.381 329.908 332.85C330.007 332.979 330.095 333.111 330.173 333.248C330.272 333.377 330.395 333.567 330.543 333.82C330.69 334.073 330.879 334.429 331.109 334.888C331.359 335.339 331.675 335.956 332.056 336.738C332.458 337.512 332.948 338.478 333.526 339.637C334.104 340.795 334.815 342.2 335.66 343.852Z" fill="white"/>
<path d="M309.127 358.304C307.702 358.856 306.437 359.119 305.331 359.094C304.238 359.04 303.273 358.77 302.437 358.283C301.601 357.797 300.886 357.132 300.29 356.29C299.686 355.428 299.172 354.459 298.746 353.384C298.255 352.144 297.92 350.879 297.743 349.59C297.578 348.271 297.673 347.007 298.027 345.797C298.382 344.588 299.037 343.476 299.993 342.462C300.962 341.42 302.334 340.555 304.11 339.868C306.713 338.86 308.825 338.782 310.448 339.631C312.084 340.452 313.356 342.009 314.264 344.303C314.518 344.944 314.749 345.677 314.957 346.502C315.177 347.299 315.304 348.131 315.339 349C315.394 349.86 315.337 350.74 315.17 351.64C315.022 352.531 314.718 353.387 314.258 354.209C313.797 355.031 313.147 355.795 312.308 356.501C311.488 357.199 310.428 357.8 309.127 358.304ZM305.217 344.194C304.432 344.498 303.884 344.948 303.573 345.546C303.274 346.114 303.115 346.736 303.097 347.41C303.09 348.056 303.173 348.715 303.344 349.388C303.528 350.032 303.706 350.571 303.877 351.005C304.418 352.369 305.032 353.287 305.719 353.76C306.407 354.233 307.153 354.313 307.959 354.001C308.682 353.722 309.18 353.266 309.454 352.636C309.749 351.997 309.894 351.31 309.888 350.573C309.903 349.829 309.812 349.089 309.616 348.355C309.441 347.612 309.26 347.003 309.071 346.528C308.662 345.495 308.147 344.765 307.525 344.338C306.916 343.882 306.146 343.835 305.217 344.194Z" fill="white"/>
<path d="M290.858 359.691C290.63 358.515 290.44 357.493 290.286 356.623C290.123 355.732 289.965 354.912 289.811 354.161C289.656 353.411 289.496 352.674 289.329 351.952C289.174 351.202 288.991 350.379 288.78 349.484C288.58 348.56 288.346 347.518 288.078 346.359C287.821 345.171 287.51 343.754 287.144 342.108C287.051 341.692 287.056 341.404 287.159 341.245C287.255 341.065 287.592 340.863 288.17 340.639C288.397 340.551 288.746 340.44 289.217 340.305C289.679 340.15 290.171 340.067 290.69 340.057C291.202 340.025 291.689 340.111 292.15 340.314C292.624 340.488 292.976 340.864 293.205 341.443C293.336 341.774 293.478 342.314 293.633 343.065C293.779 343.795 293.919 344.658 294.052 345.656C294.197 346.624 294.334 347.691 294.463 348.857C294.612 350.015 294.754 351.187 294.891 352.374C295.027 353.56 295.141 354.72 295.233 355.852C295.345 356.977 295.43 358.004 295.489 358.935C295.561 359.837 295.604 360.607 295.618 361.245C295.633 361.882 295.631 362.3 295.614 362.497C295.58 362.773 295.466 362.996 295.272 363.166C295.077 363.337 294.866 363.466 294.639 363.554L291.696 364.693C291.159 364.901 290.664 364.973 290.21 364.911C289.777 364.84 289.371 364.687 288.992 364.453C288.634 364.21 288.301 363.91 287.993 363.552C287.705 363.187 287.455 362.795 287.241 362.377L280.179 349.059C280.415 350.016 280.676 351.095 280.961 352.295C281.266 353.488 281.56 354.709 281.84 355.959C282.142 357.201 282.435 358.422 282.72 359.623C283.005 360.823 283.253 361.931 283.465 362.945C283.668 363.939 283.828 364.795 283.945 365.512C284.063 366.229 284.111 366.711 284.089 366.958C284.076 367.225 283.972 367.444 283.778 367.615C283.584 367.785 283.362 367.919 283.115 368.015L280.171 369.154C279.655 369.354 279.185 369.428 278.76 369.378C278.347 369.3 277.962 369.139 277.604 368.896C277.246 368.653 276.913 368.353 276.604 367.996C276.288 367.618 275.992 367.232 275.717 366.838C273.536 363.797 271.747 361.296 270.35 359.334C268.974 357.364 267.873 355.788 267.048 354.606C266.214 353.403 265.617 352.526 265.255 351.975C264.906 351.395 264.679 350.97 264.572 350.702C264.433 350.35 264.446 350.083 264.612 349.9C264.798 349.709 265.243 349.477 265.945 349.205C266.812 348.87 267.56 348.652 268.187 348.552C268.835 348.444 269.398 348.453 269.876 348.577C270.346 348.681 270.76 348.914 271.118 349.276C271.488 349.61 271.823 350.064 272.123 350.64C272.155 350.722 272.215 350.842 272.301 351C272.379 351.136 272.498 351.376 272.658 351.719C272.838 352.055 273.082 352.52 273.39 353.116C273.71 353.684 274.122 354.454 274.626 355.426C275.151 356.391 275.795 357.596 276.558 359.04C277.333 360.456 278.258 362.16 279.333 364.151C279.061 362.803 278.835 361.722 278.656 360.91C278.49 360.068 278.344 359.338 278.218 358.72C278.084 358.081 277.951 357.476 277.821 356.907C277.683 356.317 277.505 355.599 277.289 354.753C277.086 353.879 276.811 352.793 276.464 351.497C276.138 350.194 275.706 348.502 275.168 346.422C275.132 346.269 275.169 346.124 275.281 345.985C275.413 345.838 275.585 345.7 275.796 345.571C276.007 345.442 276.246 345.325 276.515 345.221C276.796 345.089 277.06 344.975 277.308 344.879C278.134 344.559 278.857 344.339 279.476 344.218C280.087 344.077 280.624 344.048 281.085 344.132C281.568 344.207 282 344.397 282.383 344.702C282.758 344.986 283.128 345.379 283.493 345.881C283.662 346.126 283.881 346.47 284.152 346.913C284.415 347.336 284.799 348.033 285.303 349.006C285.828 349.971 286.525 351.31 287.395 353.023C288.276 354.707 289.431 356.93 290.858 359.691Z" fill="white"/>
<path d="M36.1134 350.908C36.1134 359.186 29.531 365.897 21.4113 365.897C13.2915 365.897 6.70911 359.186 6.70911 350.908C6.70911 342.63 13.2915 335.92 21.4113 335.92C29.531 335.92 36.1134 342.63 36.1134 350.908Z" fill="#7000FF"/>
<path d="M223.119 5.90567C222.999 5.18858 222.056 5.00319 221.674 5.62157L211.348 22.3308C211.227 22.5264 211.027 22.6593 210.8 22.6948L191.196 25.7603C190.47 25.8739 190.282 26.834 190.911 27.214L207.898 37.4733C208.095 37.592 208.23 37.7909 208.268 38.0177L211.51 57.3945C211.63 58.1115 212.573 58.2969 212.955 57.6786L223.282 40.9694C223.402 40.7738 223.603 40.6408 223.829 40.6053L243.433 37.5398C244.159 37.4262 244.347 36.4661 243.718 36.0861L226.731 25.8269C226.534 25.7081 226.399 25.5093 226.361 25.2824L223.119 5.90567Z" fill="#7000FF"/>
<defs>
<linearGradient id="paint0_linear_110_276" x1="-14.7484" y1="789.785" x2="154.483" y2="827.469" gradientUnits="userSpaceOnUse">
<stop stop-color="#BEFF06"/>
<stop offset="0.58" stop-color="#00A310"/>
<stop offset="0.995" stop-color="#01933B"/>
</linearGradient>
<radialGradient id="paint1_radial_110_276" cx="0" cy="0" r="1" gradientUnits="userSpaceOnUse" gradientTransform="translate(398.259 399.013) rotate(-146.134) scale(166.706 127.467)">
<stop stop-color="#7500D0"/>
<stop offset="0.390615" stop-color="#BF0049"/>
<stop offset="0.781387" stop-color="#C1000C"/>
<stop offset="1" stop-color="#EA320A"/>
</radialGradient>
</defs>
</svg>
