<svg width="768" height="865" viewBox="0 0 768 865" fill="none" xmlns="http://www.w3.org/2000/svg">
<path fill-rule="evenodd" clip-rule="evenodd" d="M565.391 158.96C565.126 159.445 565.303 160.052 565.788 160.318L634.96 198.197C635.445 198.462 636.053 198.284 636.318 197.8C636.583 197.316 636.405 196.708 635.921 196.443L566.748 158.564C566.264 158.298 565.656 158.476 565.391 158.96Z" fill="#009535"/>
<path fill-rule="evenodd" clip-rule="evenodd" d="M696.542 130.474C696.542 129.922 696.094 129.474 695.542 129.474H693.486C692.934 129.474 692.486 129.922 692.486 130.474C692.486 131.026 692.934 131.474 693.486 131.474H695.542C696.094 131.474 696.542 131.026 696.542 130.474ZM690.376 130.474C690.376 129.922 689.928 129.474 689.376 129.474H685.265C684.713 129.474 684.265 129.922 684.265 130.474C684.265 131.026 684.713 131.474 685.265 131.474H689.376C689.928 131.474 690.376 131.026 690.376 130.474ZM682.154 130.474C682.154 129.922 681.707 129.474 681.154 129.474H677.044C676.491 129.474 676.044 129.922 676.044 130.474C676.044 131.026 676.491 131.474 677.044 131.474H681.154C681.707 131.474 682.154 131.026 682.154 130.474ZM673.933 130.474C673.933 129.922 673.485 129.474 672.933 129.474H668.822C668.27 129.474 667.822 129.922 667.822 130.474C667.822 131.026 668.27 131.474 668.822 131.474H672.933C673.485 131.474 673.933 131.026 673.933 130.474ZM665.712 130.474C665.712 129.922 665.264 129.474 664.712 129.474H660.601C660.049 129.474 659.601 129.922 659.601 130.474C659.601 131.026 660.049 131.474 660.601 131.474H664.712C665.264 131.474 665.712 131.026 665.712 130.474ZM657.49 130.474C657.49 129.922 657.043 129.474 656.49 129.474H652.38C651.827 129.474 651.38 129.922 651.38 130.474C651.38 131.026 651.827 131.474 652.38 131.474H656.49C657.043 131.474 657.49 131.026 657.49 130.474ZM649.269 130.474C649.269 129.922 648.821 129.474 648.269 129.474H644.158C643.606 129.474 643.158 129.922 643.158 130.474C643.158 131.026 643.606 131.474 644.158 131.474H648.269C648.821 131.474 649.269 131.026 649.269 130.474ZM641.048 130.474C641.048 129.922 640.6 129.474 640.048 129.474H635.937C635.385 129.474 634.937 129.922 634.937 130.474C634.937 131.026 635.385 131.474 635.937 131.474H640.048C640.6 131.474 641.048 131.026 641.048 130.474ZM632.826 130.474C632.826 129.922 632.379 129.474 631.826 129.474H627.716C627.163 129.474 626.716 129.922 626.716 130.474C626.716 131.026 627.163 131.474 627.716 131.474H631.826C632.379 131.474 632.826 131.026 632.826 130.474ZM624.605 130.474C624.605 129.922 624.157 129.474 623.605 129.474H619.494C618.942 129.474 618.494 129.922 618.494 130.474C618.494 131.026 618.942 131.474 619.494 131.474H623.605C624.157 131.474 624.605 131.026 624.605 130.474ZM616.384 130.474C616.384 129.922 615.936 129.474 615.384 129.474H611.273C610.721 129.474 610.273 129.922 610.273 130.474C610.273 131.026 610.721 131.474 611.273 131.474H615.384C615.936 131.474 616.384 131.026 616.384 130.474ZM608.162 130.474C608.162 129.922 607.715 129.474 607.162 129.474H603.052C602.499 129.474 602.052 129.922 602.052 130.474C602.052 131.026 602.499 131.474 603.052 131.474H607.162C607.715 131.474 608.162 131.026 608.162 130.474ZM599.941 130.474C599.941 129.922 599.493 129.474 598.941 129.474H594.83C594.278 129.474 593.83 129.922 593.83 130.474C593.83 131.026 594.278 131.474 594.83 131.474H598.941C599.493 131.474 599.941 131.026 599.941 130.474ZM591.72 130.474C591.72 129.922 591.272 129.474 590.72 129.474H586.609C586.057 129.474 585.609 129.922 585.609 130.474C585.609 131.026 586.057 131.474 586.609 131.474H590.72C591.272 131.474 591.72 131.026 591.72 130.474ZM583.498 130.474C583.498 129.922 583.05 129.474 582.498 129.474H578.388C577.835 129.474 577.388 129.922 577.388 130.474C577.388 131.026 577.835 131.474 578.388 131.474H582.498C583.05 131.474 583.498 131.026 583.498 130.474ZM575.277 130.474C575.277 129.922 574.829 129.474 574.277 129.474H570.166C569.614 129.474 569.166 129.922 569.166 130.474C569.166 131.026 569.614 131.474 570.166 131.474H574.277C574.829 131.474 575.277 131.026 575.277 130.474ZM567.056 130.474C567.056 129.922 566.608 129.474 566.056 129.474H564C563.448 129.474 563 129.922 563 130.474C563 131.026 563.448 131.474 564 131.474H566.056C566.608 131.474 567.056 131.026 567.056 130.474Z" fill="#FFF500"/>
<path fill-rule="evenodd" clip-rule="evenodd" d="M673.776 59.8802C673.551 59.3755 672.96 59.1485 672.456 59.373L612.355 86.1111C611.85 86.3356 611.623 86.9266 611.847 87.4312C612.072 87.9358 612.663 88.1629 613.168 87.9384L673.269 61.2003C673.773 60.9758 674 60.3848 673.776 59.8802ZM597.807 94.4353C597.593 93.9263 597.006 93.6874 596.497 93.9017L564.746 107.271C564.237 107.485 563.998 108.071 564.212 108.581C564.427 109.09 565.013 109.328 565.522 109.114L597.273 95.745C597.782 95.5307 598.021 94.9443 597.807 94.4353Z" fill="#BE004A"/>
<path fill-rule="evenodd" clip-rule="evenodd" d="M193.151 158.96C193.416 159.445 193.238 160.052 192.754 160.318L123.581 198.197C123.097 198.462 122.489 198.284 122.224 197.8C121.958 197.316 122.136 196.708 122.62 196.443L191.793 158.564C192.278 158.298 192.885 158.476 193.151 158.96Z" fill="#009535"/>
<path fill-rule="evenodd" clip-rule="evenodd" d="M62 130.474C62 129.922 62.4477 129.474 63 129.474H65.0553C65.6076 129.474 66.0553 129.922 66.0553 130.474C66.0553 131.026 65.6076 131.474 65.0553 131.474H63C62.4477 131.474 62 131.026 62 130.474ZM68.166 130.474C68.166 129.922 68.6137 129.474 69.166 129.474H73.2767C73.829 129.474 74.2767 129.922 74.2767 130.474C74.2767 131.026 73.829 131.474 73.2767 131.474H69.166C68.6137 131.474 68.166 131.026 68.166 130.474ZM76.3874 130.474C76.3874 129.922 76.8351 129.474 77.3874 129.474H81.498C82.0503 129.474 82.498 129.922 82.498 130.474C82.498 131.026 82.0503 131.474 81.498 131.474H77.3874C76.8351 131.474 76.3874 131.026 76.3874 130.474ZM84.6087 130.474C84.6087 129.922 85.0564 129.474 85.6087 129.474H89.7194C90.2717 129.474 90.7194 129.922 90.7194 130.474C90.7194 131.026 90.2717 131.474 89.7194 131.474H85.6087C85.0564 131.474 84.6087 131.026 84.6087 130.474ZM92.8301 130.474C92.8301 129.922 93.2778 129.474 93.8301 129.474H97.9407C98.493 129.474 98.9407 129.922 98.9407 130.474C98.9407 131.026 98.493 131.474 97.9407 131.474H93.8301C93.2778 131.474 92.8301 131.026 92.8301 130.474ZM101.051 130.474C101.051 129.922 101.499 129.474 102.051 129.474H106.162C106.714 129.474 107.162 129.922 107.162 130.474C107.162 131.026 106.714 131.474 106.162 131.474H102.051C101.499 131.474 101.051 131.026 101.051 130.474ZM109.273 130.474C109.273 129.922 109.72 129.474 110.273 129.474H114.383C114.936 129.474 115.383 129.922 115.383 130.474C115.383 131.026 114.936 131.474 114.383 131.474H110.273C109.72 131.474 109.273 131.026 109.273 130.474ZM117.494 130.474C117.494 129.922 117.942 129.474 118.494 129.474H122.605C123.157 129.474 123.605 129.922 123.605 130.474C123.605 131.026 123.157 131.474 122.605 131.474H118.494C117.942 131.474 117.494 131.026 117.494 130.474ZM125.715 130.474C125.715 129.922 126.163 129.474 126.715 129.474H130.826C131.378 129.474 131.826 129.922 131.826 130.474C131.826 131.026 131.378 131.474 130.826 131.474H126.715C126.163 131.474 125.715 131.026 125.715 130.474ZM133.937 130.474C133.937 129.922 134.385 129.474 134.937 129.474H139.048C139.6 129.474 140.048 129.922 140.048 130.474C140.048 131.026 139.6 131.474 139.048 131.474H134.937C134.385 131.474 133.937 131.026 133.937 130.474ZM142.158 130.474C142.158 129.922 142.606 129.474 143.158 129.474H147.269C147.821 129.474 148.269 129.922 148.269 130.474C148.269 131.026 147.821 131.474 147.269 131.474H143.158C142.606 131.474 142.158 131.026 142.158 130.474ZM150.38 130.474C150.38 129.922 150.827 129.474 151.38 129.474H155.49C156.042 129.474 156.49 129.922 156.49 130.474C156.49 131.026 156.042 131.474 155.49 131.474H151.38C150.827 131.474 150.38 131.026 150.38 130.474ZM158.601 130.474C158.601 129.922 159.049 129.474 159.601 129.474H163.712C164.264 129.474 164.712 129.922 164.712 130.474C164.712 131.026 164.264 131.474 163.712 131.474H159.601C159.049 131.474 158.601 131.026 158.601 130.474ZM166.822 130.474C166.822 129.922 167.27 129.474 167.822 129.474H171.933C172.485 129.474 172.933 129.922 172.933 130.474C172.933 131.026 172.485 131.474 171.933 131.474H167.822C167.27 131.474 166.822 131.026 166.822 130.474ZM175.044 130.474C175.044 129.922 175.491 129.474 176.044 129.474H180.154C180.707 129.474 181.154 129.922 181.154 130.474C181.154 131.026 180.707 131.474 180.154 131.474H176.044C175.491 131.474 175.044 131.026 175.044 130.474ZM183.265 130.474C183.265 129.922 183.713 129.474 184.265 129.474H188.376C188.928 129.474 189.376 129.922 189.376 130.474C189.376 131.026 188.928 131.474 188.376 131.474H184.265C183.713 131.474 183.265 131.026 183.265 130.474ZM191.486 130.474C191.486 129.922 191.934 129.474 192.486 129.474H194.542C195.094 129.474 195.542 129.922 195.542 130.474C195.542 131.026 195.094 131.474 194.542 131.474H192.486C191.934 131.474 191.486 131.026 191.486 130.474Z" fill="#FFF500"/>
<path fill-rule="evenodd" clip-rule="evenodd" d="M84.7658 59.8802C84.9903 59.3755 85.5813 59.1485 86.0859 59.373L146.187 86.1111C146.691 86.3356 146.919 86.9266 146.694 87.4312C146.47 87.9358 145.878 88.1629 145.374 87.9384L85.273 61.2003C84.7684 60.9758 84.5413 60.3848 84.7658 59.8802ZM160.734 94.4353C160.949 93.9263 161.535 93.6874 162.044 93.9017L193.796 107.271C194.305 107.485 194.543 108.071 194.329 108.581C194.115 109.09 193.528 109.328 193.019 109.114L161.268 95.745C160.759 95.5307 160.52 94.9443 160.734 94.4353Z" fill="#BE004A"/>
<path d="M141.497 10.691C141.294 9.75103 142.423 9.11031 143.15 9.7533L152.634 18.1425C152.959 18.4302 153.433 18.4806 153.809 18.2673L164.844 12.0079C165.689 11.5289 166.668 12.4035 166.27 13.2813L161.095 24.7008C160.917 25.0948 161.018 25.5595 161.346 25.8495L170.81 34.2214C171.538 34.8657 171.014 36.0469 170.044 35.9468L157.348 34.6358C156.917 34.5913 156.508 34.8235 156.332 35.2124L151.139 46.67C150.743 47.5451 149.439 47.4007 149.236 46.4589L146.588 34.2207C146.496 33.7968 146.137 33.4781 145.701 33.433L133.047 32.1264C132.074 32.026 131.793 30.7553 132.638 30.2763L143.673 24.0169C144.049 23.8036 144.241 23.3751 144.15 22.9545L141.497 10.691Z" fill="#FFC700"/>
<path d="M715 186C715 194.284 721.608 201 729.759 201C737.91 201 744.518 194.284 744.518 186C744.518 177.716 737.91 171 729.759 171C721.608 171 715 177.716 715 186Z" fill="#5282FF"/>
<path d="M601 252C601 255.866 604.19 259 608.125 259C612.06 259 615.25 255.866 615.25 252C615.25 248.134 612.06 245 608.125 245C604.19 245 601 248.134 601 252Z" fill="#7000FF"/>
<path d="M704.579 625.56C704.264 624.693 703.043 624.679 702.708 625.539L693.654 648.77C693.548 649.042 693.328 649.254 693.053 649.351L669.26 657.702C668.379 658.012 668.365 659.253 669.239 659.582L692.834 668.458C693.107 668.561 693.322 668.777 693.421 669.052L701.94 692.477C702.255 693.344 703.477 693.357 703.812 692.498L712.865 669.267C712.971 668.995 713.191 668.783 713.466 668.686L737.259 660.334C738.141 660.025 738.155 658.784 737.281 658.455L713.685 649.579C713.412 649.476 713.198 649.259 713.098 648.985L704.579 625.56Z" fill="#7000FF"/>
<path fill-rule="evenodd" clip-rule="evenodd" d="M703.877 570.945C704.227 570.518 704.16 569.894 703.726 569.552L673.456 545.62C673.023 545.278 672.388 545.346 672.038 545.774C671.688 546.201 671.756 546.825 672.189 547.167L702.459 571.099C702.892 571.441 703.527 571.373 703.877 570.945Z" fill="#02CCC0"/>
<path fill-rule="evenodd" clip-rule="evenodd" d="M583.712 509.682C584.105 510.069 584.744 510.07 585.139 509.684L637.819 458.104C638.214 457.717 638.215 457.09 637.822 456.702C637.428 456.314 636.79 456.313 636.395 456.7L583.715 508.28C583.32 508.666 583.319 509.294 583.712 509.682Z" fill="#009436"/>
<path d="M645.591 579.063C645.918 583.193 649.59 586.281 653.793 585.96C657.997 585.639 661.14 582.032 660.813 577.902C660.487 573.772 656.815 570.684 652.611 571.005C648.408 571.326 645.265 574.933 645.591 579.063Z" fill="#FFC700"/>
<path fill-rule="evenodd" clip-rule="evenodd" d="M738.8 698.168C743.55 696.131 745.685 690.719 743.635 686.105C741.586 681.492 736.095 679.349 731.345 681.386C726.594 683.423 724.46 688.836 726.509 693.449C728.559 698.063 734.05 700.205 738.8 698.168ZM739.612 699.996C745.356 697.533 747.981 690.961 745.473 685.317C742.966 679.673 736.277 677.095 730.533 679.558C724.788 682.022 722.164 688.594 724.671 694.237C727.178 699.881 733.868 702.459 739.612 699.996Z" fill="#FF0071"/>
<path fill-rule="evenodd" clip-rule="evenodd" d="M80.3412 706.454L67.698 743.88L36.6311 727.145L43.0833 761.786L10.5671 769.519L35.396 796.203L27.2506 818.287L52.999 815.682L62.6239 839.715L89.6163 820.754L103.961 846.432L124.009 830.991L151.471 856.674L157.85 818.525L189.497 814.683L164.668 787.999L175.738 761.213L140.319 757.968L139.486 724.538L106.261 746.234L80.3412 706.454ZM118.221 811.55C117.63 814.194 114.969 815.868 112.277 815.287C109.585 814.707 107.882 812.093 108.473 809.448C109.064 806.804 111.725 805.13 114.416 805.711C117.108 806.291 118.811 808.905 118.221 811.55ZM85.6617 743.675C87.344 744.038 89.0071 742.992 89.3763 741.339C89.7455 739.686 88.681 738.052 86.9986 737.69C85.3162 737.327 83.6531 738.373 83.284 740.026C82.9148 741.679 83.9793 743.313 85.6617 743.675Z" fill="url(#paint0_linear_118_2774)"/>
<path d="M141.032 798.438C142.068 798.682 142.744 799.114 143.062 799.735C143.386 800.332 143.437 801.086 143.215 801.996C143.119 802.39 142.965 802.809 142.752 803.254C142.54 803.698 142.247 804.098 141.874 804.452C141.531 804.788 141.078 805.046 140.513 805.225C139.978 805.386 139.329 805.376 138.565 805.196C137.455 804.935 136.772 804.476 136.516 803.817C136.265 803.133 136.245 802.361 136.455 801.499C136.575 801.007 136.753 800.542 136.991 800.103C137.228 799.664 137.527 799.292 137.888 798.987C138.249 798.682 138.691 798.473 139.213 798.362C139.736 798.251 140.342 798.276 141.032 798.438ZM142.476 796.045C141.859 795.9 141.372 795.708 141.013 795.467C140.655 795.227 140.401 794.933 140.251 794.585C140.107 794.213 140.04 793.794 140.049 793.328C140.089 792.843 140.181 792.305 140.325 791.714C140.379 791.493 140.436 791.259 140.496 791.013C140.586 790.748 140.692 790.421 140.813 790.033C140.958 789.651 141.115 789.168 141.283 788.583C141.477 788.004 141.721 787.267 142.017 786.374C142.319 785.456 142.678 784.357 143.094 783.075C143.511 781.794 144.002 780.257 144.569 778.465C144.726 777.929 144.866 777.624 144.988 777.549C145.08 777.492 145.286 777.502 145.607 777.577L147.789 778.09C149.145 778.409 150.04 778.906 150.475 779.581C150.941 780.237 151.087 780.922 150.913 781.635C150.805 782.078 150.612 782.657 150.333 783.373C150.085 784.069 149.779 784.843 149.416 785.694C149.052 786.545 148.651 787.44 148.214 788.378C147.808 789.297 147.389 790.214 146.958 791.127C146.558 792.022 146.166 792.88 145.784 793.701C145.401 794.521 145.073 795.225 144.8 795.811C144.679 796.095 144.545 796.272 144.397 796.341C144.275 796.416 144.078 796.422 143.807 796.358L142.476 796.045Z" fill="white"/>
<path d="M129.386 802.647C128.104 802.346 127.243 801.87 126.802 801.22C126.391 800.551 126.257 799.817 126.4 799.018C125.925 799.791 125.165 800.393 124.122 800.824C123.109 801.236 121.777 801.248 120.125 800.86C119.164 800.634 118.272 800.229 117.45 799.645C116.634 799.037 115.976 798.206 115.477 797.151C114.978 796.097 114.686 794.78 114.602 793.199C114.543 791.623 114.78 789.74 115.314 787.55C115.518 786.713 115.801 785.765 116.164 784.705C116.532 783.621 117.002 782.547 117.574 781.485C118.176 780.403 118.893 779.388 119.724 778.438C120.585 777.47 121.589 776.665 122.736 776.024C123.907 775.388 125.246 774.975 126.753 774.782C128.265 774.566 129.983 774.683 131.906 775.136C133.163 775.431 134.252 775.83 135.172 776.333C136.117 776.841 136.874 777.423 137.445 778.078C138.04 778.738 138.435 779.469 138.631 780.269C138.851 781.076 138.854 781.922 138.638 782.808C138.29 784.236 137.558 785.208 136.441 785.726C135.33 786.22 133.925 786.267 132.223 785.867C131.681 785.739 131.357 785.624 131.252 785.521C131.177 785.399 131.161 785.2 131.202 784.924C131.261 784.469 131.332 784.017 131.415 783.569C131.523 783.126 131.56 782.705 131.527 782.307C131.518 781.914 131.405 781.576 131.188 781.29C130.971 781.005 130.566 780.793 129.975 780.654C128.767 780.37 127.721 780.488 126.839 781.009C125.956 781.53 125.209 782.239 124.6 783.137C123.99 784.034 123.507 785.001 123.151 786.036C122.8 787.046 122.538 787.909 122.364 788.622C122.076 789.804 121.907 790.818 121.857 791.665C121.813 792.487 121.864 793.189 122.009 793.769C122.185 794.331 122.443 794.769 122.784 795.084C123.13 795.373 123.562 795.579 124.08 795.701C125.017 795.921 125.854 795.91 126.591 795.667C127.328 795.423 127.884 794.8 128.259 793.795L128.984 791.78C129.232 791.083 129.472 790.528 129.703 790.114C129.94 789.675 130.293 789.511 130.761 789.621L132.795 790.1C133.411 790.244 133.887 790.434 134.22 790.669C134.585 790.885 134.827 791.176 134.946 791.542C135.096 791.89 135.148 792.318 135.102 792.828C135.056 793.338 134.946 793.949 134.772 794.663C134.652 795.155 134.469 795.802 134.221 796.602C133.999 797.409 133.749 798.222 133.471 799.041C133.218 799.866 132.967 800.627 132.719 801.323C132.477 801.995 132.299 802.461 132.183 802.72C132.08 802.93 131.983 803.063 131.891 803.119C131.799 803.176 131.642 803.178 131.42 803.126L129.386 802.647Z" fill="white"/>
<path d="M107.622 776.724C107.281 777.268 106.833 777.983 106.279 778.867C105.755 779.733 105.17 780.689 104.525 781.734C103.879 782.779 103.203 783.895 102.497 785.082C101.796 786.245 101.09 787.38 100.377 788.487C99.6887 789.6 99.0124 790.664 98.3481 791.679C97.6898 792.669 97.1015 793.533 96.5831 794.27C96.4365 794.443 96.188 794.554 95.8375 794.602C95.5177 794.631 95.025 794.567 94.3594 794.41C93.9403 794.312 93.5148 794.186 93.0831 794.032C92.6513 793.878 92.2562 793.681 91.8978 793.441C91.5639 793.206 91.2791 792.931 91.0432 792.615C90.832 792.306 90.6974 791.949 90.6395 791.545C90.5755 790.202 90.5569 788.728 90.5835 787.121C90.6408 785.495 90.7041 783.844 90.7734 782.169C90.8427 780.494 90.903 778.856 90.9543 777.254C91.0363 775.634 91.0699 774.159 91.0553 772.828C90.9713 773.173 90.8151 773.76 90.5865 774.592C90.358 775.423 90.0965 776.389 89.802 777.491C89.5075 778.592 89.1797 779.777 88.8185 781.046C88.482 782.32 88.1516 783.569 87.8271 784.794C87.5086 785.994 87.2081 787.121 86.9256 788.173C86.6491 789.201 86.4299 790.047 86.268 790.712C86.0881 791.45 85.9248 791.906 85.7782 792.08C85.6563 792.259 85.4844 792.323 85.2625 792.271L83.2287 791.793C81.8235 791.462 80.891 790.957 80.4313 790.276C80.0022 789.577 79.9196 788.685 80.1834 787.602C80.2554 787.307 80.3876 786.818 80.5802 786.134C80.8034 785.432 81.0689 784.61 81.3767 783.667C81.6846 782.725 82.0134 781.696 82.3632 780.581C82.7436 779.448 83.1271 778.302 83.5135 777.144C84.0266 775.573 84.449 774.267 84.7808 773.226C85.1433 772.166 85.4361 771.285 85.6593 770.583C85.8825 769.881 86.0604 769.311 86.193 768.874C86.3503 768.443 86.4709 768.055 86.5548 767.71C86.6634 767.371 86.7537 767.054 86.8257 766.759C86.9283 766.445 87.0366 766.054 87.1505 765.586C87.1985 765.389 87.3054 765.271 87.4713 765.232C87.6432 765.169 87.7908 765.151 87.9141 765.18L93.0911 766.398C94.0526 766.624 94.8025 766.97 95.3409 767.434C95.8852 767.875 96.2767 768.461 96.5152 769.194C96.7537 769.927 96.8703 770.839 96.865 771.93C96.8656 772.998 96.7937 774.256 96.6491 775.705C96.5292 777.16 96.3676 778.84 96.1644 780.743C95.9918 782.629 95.8362 784.765 95.6976 787.152C96.4638 785.719 97.1055 784.53 97.6225 783.585C98.1396 782.639 98.5653 781.855 98.8998 781.231C99.2649 780.588 99.5631 780.059 99.7943 779.645C100.026 779.231 100.235 778.851 100.424 778.505C100.619 778.135 100.831 777.742 101.063 777.328C101.294 776.914 101.577 776.395 101.911 775.771C102.246 775.148 102.656 774.372 103.142 773.446C103.659 772.5 104.301 771.311 105.067 769.878C105.153 769.742 105.272 769.627 105.425 769.533C105.584 769.414 105.824 769.392 106.145 769.468L111.913 770.824C112.702 771.01 113.31 771.244 113.736 771.526C114.193 771.79 114.522 772.101 114.721 772.46C114.92 772.82 115.015 773.232 115.006 773.698C115.002 774.14 114.932 774.644 114.794 775.21C114.656 775.776 114.394 776.69 114.008 777.953C113.653 779.196 113.219 780.604 112.706 782.174C112.224 783.726 111.714 785.337 111.177 787.006C110.664 788.681 110.17 790.23 109.693 791.654C109.24 793.083 108.854 794.293 108.534 795.285C108.214 796.276 108.021 796.855 107.955 797.022C107.882 797.213 107.797 797.349 107.699 797.43C107.607 797.487 107.45 797.489 107.228 797.437L105.194 796.958C103.789 796.628 102.857 796.122 102.397 795.442C101.968 794.742 101.861 793.949 102.077 793.063C102.143 792.793 102.288 792.306 102.511 791.604C102.759 790.908 103.049 790.091 103.381 789.154C103.714 788.218 104.08 787.198 104.479 786.095C104.884 784.967 105.274 783.849 105.648 782.74C106.022 781.631 106.376 780.556 106.707 779.515C107.07 778.455 107.375 777.525 107.622 776.724Z" fill="white"/>
<path d="M72.669 761.166C74.4686 761.589 75.9464 762.21 77.1024 763.028C78.2645 763.822 79.1323 764.807 79.706 765.983C80.2856 767.134 80.5895 768.454 80.6174 769.944C80.6514 771.409 80.4525 773.028 80.0208 774.8C79.7809 775.785 79.4461 776.838 79.0163 777.96C78.6112 779.088 78.0799 780.199 77.4222 781.293C76.7953 782.369 76.0417 783.376 75.1615 784.314C74.2813 785.252 73.2463 786.023 72.0563 786.628C70.8909 787.239 69.5673 787.643 68.0855 787.841C66.6097 788.014 64.9473 787.884 63.0983 787.449C61.0522 786.968 59.4261 786.26 58.2201 785.326C57.0388 784.397 56.1673 783.321 55.6056 782.096C55.0746 780.852 54.8104 779.476 54.8131 777.967C54.8404 776.464 55.0519 774.9 55.4477 773.276C55.9155 771.356 56.5931 769.538 57.4806 767.821C58.3741 766.079 59.5124 764.617 60.8956 763.433C62.3035 762.254 63.9752 761.437 65.9108 760.982C67.8524 760.502 70.1051 760.563 72.669 761.166ZM70.4982 766.706C69.6353 766.503 68.8445 766.486 68.1255 766.655C67.4373 766.805 66.8083 767.087 66.2386 767.499C65.6936 767.918 65.2075 768.415 64.7804 768.991C64.378 769.573 64.0189 770.191 63.703 770.846C63.3932 771.475 63.1357 772.104 62.9305 772.733C62.7312 773.336 62.5717 773.884 62.4517 774.377C61.906 776.616 61.8771 778.34 62.3648 779.548C62.8772 780.761 63.8236 781.53 65.2042 781.855C66.3382 782.122 67.3496 781.982 68.2384 781.436C69.1333 780.866 69.9008 780.123 70.5411 779.207C71.2121 778.271 71.7535 777.28 72.1652 776.232C72.583 775.159 72.8848 774.241 73.0707 773.478C73.5085 771.681 73.5451 770.194 73.1807 769.015C72.8222 767.812 71.928 767.042 70.4982 766.706Z" fill="white"/>
<path d="M54.3264 714.513L64.3506 721.727L52.9796 726.649L54.3264 714.513Z" fill="white"/>
<path d="M123.6 839.738L127.876 851.2L115.634 849.107L123.6 839.738Z" fill="white"/>
<path d="M93.4712 820.018L97.7471 831.48L85.5053 829.387L93.4712 820.018Z" fill="white"/>
<path d="M172.406 786.405L173.789 792.134L179.193 794.679L173.26 796.239L170.448 801.604L169.065 795.875L163.661 793.331L169.594 791.77L172.406 786.405Z" fill="white"/>
<path d="M118.805 744.421L119.912 749.004L124.236 751.04L119.489 752.288L117.24 756.58L116.133 751.997L111.809 749.961L116.556 748.713L118.805 744.421Z" fill="white"/>
<path d="M67.8818 803.672L68.5271 809.38L73.3302 812.655L67.5564 813.236L64.2878 817.949L63.6425 812.24L58.8395 808.965L64.6133 808.384L67.8818 803.672Z" fill="white"/>
<path d="M73.219 746.326C72.6283 748.97 69.9674 750.644 67.2756 750.063C64.5838 749.483 62.8806 746.869 63.4712 744.224C64.0619 741.58 66.7229 739.906 69.4147 740.486C72.1064 741.067 73.8097 743.681 73.219 746.326Z" fill="white"/>
<path d="M621.31 327.385L574.535 354.042L618.256 368.739L606.425 405.597L652.986 386.422L662.181 413.593L683.735 392.998L712.986 417.366L712.96 379.39L750.265 385.95L728.845 354.31L765.385 328.737L725.35 322.467L732.839 280.643L703.217 300.058L692.952 275.713L672.845 293.781L644.471 267.964L644.875 306.238L606.122 302.206L621.31 327.385Z" fill="url(#paint1_radial_118_2774)"/>
<path d="M633.948 275.861L637.161 282.203L644.153 283.935L637.698 287.092L635.935 293.961L632.722 287.619L625.729 285.887L632.185 282.73L633.948 275.861Z" fill="white"/>
<path d="M740.275 301.218L743.488 307.56L750.48 309.292L744.024 312.449L742.261 319.319L739.048 312.976L732.056 311.244L738.512 308.087L740.275 301.218Z" fill="white"/>
<path d="M732.441 355.625L733.988 358.678L737.354 359.512L734.246 361.032L733.397 364.34L731.85 361.286L728.484 360.452L731.592 358.932L732.441 355.625Z" fill="#D9D9D9"/>
<path d="M605.17 318.113L609.823 329.928L597.083 327.98L605.17 318.113Z" fill="white"/>
<path d="M709.89 275.953L715.15 283.026L706.286 283.965L709.89 275.953Z" fill="white"/>
<path d="M703.302 363.968L715.807 369.398L704.768 377.323L703.302 363.968Z" fill="white"/>
<path d="M625.828 382.613L630.239 388.822L622.56 389.471L625.828 382.613Z" fill="#D9D9D9"/>
<path d="M677.671 381.772C677.874 383.624 676.512 385.286 674.627 385.486C672.743 385.685 671.051 384.347 670.848 382.495C670.644 380.644 672.007 378.982 673.892 378.782C675.776 378.582 677.468 379.921 677.671 381.772Z" fill="white"/>
<path d="M660.045 302.936C660.248 304.787 658.885 306.45 657.001 306.649C655.116 306.849 653.424 305.51 653.221 303.659C653.018 301.808 654.381 300.145 656.265 299.946C658.149 299.746 659.841 301.085 660.045 302.936Z" fill="#D9D9D9"/>
<path d="M691.58 300.952C691.783 302.803 690.421 304.465 688.536 304.665C686.652 304.865 684.96 303.526 684.757 301.674C684.553 299.823 685.916 298.161 687.8 297.961C689.685 297.761 691.377 299.1 691.58 300.952Z" fill="white"/>
<path d="M594.805 343.757C595.009 345.608 593.646 347.271 591.762 347.47C589.877 347.67 588.185 346.331 587.982 344.48C587.779 342.629 589.142 340.966 591.026 340.766C592.91 340.567 594.602 341.906 594.805 343.757Z" fill="white"/>
<path d="M716.294 328.677C717.245 328.31 718.018 328.285 718.613 328.602C719.2 328.896 719.659 329.461 719.991 330.297C720.135 330.658 720.247 331.07 720.326 331.534C720.406 331.998 720.398 332.47 720.302 332.95C720.219 333.398 720.005 333.845 719.66 334.291C719.329 334.705 718.812 335.047 718.111 335.318C717.092 335.711 716.299 335.718 715.731 335.338C715.153 334.936 714.708 334.34 714.394 333.55C714.214 333.098 714.096 332.636 714.039 332.164C713.981 331.691 714.01 331.238 714.124 330.803C714.239 330.368 714.47 329.966 714.82 329.597C715.169 329.228 715.66 328.921 716.294 328.677ZM716.099 326.019C715.533 326.237 715.042 326.348 714.626 326.352C714.211 326.357 713.847 326.263 713.536 326.07C713.215 325.855 712.929 325.562 712.677 325.191C712.439 324.788 712.212 324.316 711.997 323.774C711.916 323.571 711.831 323.357 711.741 323.131C711.665 322.874 711.567 322.56 711.446 322.19C711.347 321.812 711.202 321.347 711.009 320.797C710.839 320.237 710.622 319.527 710.358 318.666C710.085 317.781 709.756 316.724 709.372 315.492C708.987 314.261 708.519 312.788 707.968 311.074C707.794 310.569 707.734 310.253 707.788 310.128C707.829 310.034 707.997 309.931 708.291 309.817L710.294 309.044C711.538 308.564 712.52 308.472 713.238 308.768C713.969 309.032 714.465 309.492 714.725 310.146C714.886 310.553 715.057 311.112 715.235 311.824C715.427 312.505 715.617 313.278 715.804 314.143C715.991 315.008 716.174 315.927 716.351 316.9C716.543 317.841 716.723 318.787 716.892 319.737C717.074 320.656 717.243 321.541 717.399 322.393C717.554 323.244 717.688 323.974 717.799 324.582C717.861 324.87 717.854 325.081 717.776 325.215C717.722 325.34 717.57 325.451 717.321 325.547L716.099 326.019Z" fill="white"/>
<path d="M706.283 332.54C707.233 332.173 708.006 332.148 708.602 332.465C709.189 332.76 709.648 333.324 709.98 334.16C710.123 334.521 710.235 334.933 710.315 335.397C710.395 335.861 710.387 336.333 710.29 336.813C710.207 337.261 709.994 337.708 709.649 338.154C709.317 338.568 708.801 338.91 708.099 339.181C707.081 339.574 706.287 339.581 705.719 339.201C705.142 338.799 704.696 338.203 704.382 337.413C704.203 336.962 704.084 336.499 704.027 336.027C703.97 335.554 703.998 335.101 704.113 334.666C704.227 334.231 704.459 333.829 704.808 333.46C705.157 333.091 705.649 332.785 706.283 332.54ZM706.088 329.882C705.522 330.1 705.031 330.211 704.615 330.215C704.199 330.22 703.835 330.126 703.524 329.933C703.204 329.718 702.918 329.425 702.666 329.054C702.427 328.651 702.201 328.179 701.985 327.637C701.905 327.434 701.819 327.22 701.73 326.994C701.654 326.737 701.555 326.423 701.434 326.053C701.336 325.675 701.191 325.21 700.998 324.66C700.828 324.1 700.611 323.39 700.347 322.529C700.074 321.645 699.745 320.587 699.36 319.355C698.975 318.124 698.507 316.651 697.957 314.937C697.782 314.432 697.722 314.116 697.777 313.991C697.818 313.897 697.985 313.794 698.279 313.68L700.282 312.907C701.527 312.427 702.508 312.335 703.226 312.631C703.958 312.895 704.453 313.355 704.714 314.009C704.875 314.416 705.045 314.975 705.224 315.687C705.416 316.368 705.606 317.141 705.793 318.006C705.98 318.871 706.162 319.79 706.34 320.763C706.531 321.704 706.712 322.65 706.88 323.6C707.063 324.519 707.232 325.404 707.387 326.256C707.543 327.107 707.676 327.837 707.787 328.445C707.85 328.733 707.842 328.944 707.765 329.078C707.71 329.203 707.559 329.314 707.31 329.41L706.088 329.882Z" fill="white"/>
<path d="M694.037 340.038C693.677 338.276 693.356 336.747 693.075 335.449C692.808 334.12 692.563 332.978 692.34 332.023C692.14 331.059 691.955 330.232 691.785 329.542C691.638 328.844 691.5 328.233 691.371 327.71C691.255 327.156 691.143 326.679 691.036 326.277C690.943 325.845 690.844 325.401 690.742 324.946C690.688 324.68 690.725 324.445 690.853 324.239C691.002 324.025 691.349 323.813 691.892 323.604C692.186 323.49 692.603 323.356 693.141 323.2C693.693 323.013 694.256 322.887 694.831 322.821C695.405 322.756 695.932 322.8 696.41 322.954C696.903 323.076 697.247 323.386 697.445 323.883C697.588 324.244 697.702 324.825 697.785 325.626C697.86 326.404 697.922 327.317 697.973 328.365C698.024 329.413 698.057 330.546 698.071 331.764C698.076 332.96 698.07 334.16 698.053 335.364C698.049 336.537 698.039 337.661 698.022 338.735C698.005 339.809 697.995 340.737 697.993 341.519C697.973 341.995 697.9 342.335 697.773 342.541C697.668 342.737 697.401 342.919 696.971 343.085L694.968 343.857C694.334 344.102 693.782 344.224 693.312 344.223C692.842 344.222 692.429 344.134 692.072 343.959C691.715 343.784 691.402 343.554 691.132 343.268C690.852 342.959 690.598 342.614 690.369 342.234C689.685 341.17 688.833 339.716 687.812 337.87C686.792 336.025 685.655 333.821 684.402 331.258C684.486 331.799 684.615 332.517 684.789 333.413C684.985 334.301 685.185 335.265 685.39 336.306C685.617 337.338 685.842 338.396 686.065 339.482C686.287 340.568 686.494 341.581 686.686 342.523C686.868 343.442 687.017 344.244 687.132 344.928C687.239 345.59 687.283 346.029 687.264 346.244C687.24 346.514 687.152 346.717 686.998 346.855C686.857 346.961 686.628 347.075 686.312 347.197L683.935 348.114C683.347 348.341 682.806 348.459 682.314 348.467C681.835 348.443 681.383 348.357 680.958 348.209C680.556 348.051 680.186 347.843 679.848 347.583C679.524 347.291 679.24 346.971 678.997 346.622C675.832 342.272 673.445 338.988 671.833 336.772C670.244 334.547 669.414 333.345 669.342 333.164C669.262 332.961 669.292 332.741 669.433 332.504C669.574 332.268 669.802 332.088 670.119 331.966C671.092 331.591 671.948 331.313 672.685 331.132C673.414 330.929 674.044 330.842 674.578 330.871C675.134 330.89 675.608 331.033 676 331.298C676.393 331.563 676.74 331.976 677.041 332.537C677.189 332.844 677.49 333.47 677.944 334.414C678.397 335.359 678.905 336.439 679.466 337.654C680.041 338.838 680.613 340.049 681.183 341.287C681.776 342.517 682.282 343.558 682.699 344.413C682.415 342.908 682.186 341.708 682.012 340.811C681.861 339.906 681.73 339.15 681.619 338.542C681.508 337.934 681.401 337.402 681.299 336.947C681.219 336.483 681.119 335.936 680.999 335.305C680.879 334.675 680.712 333.893 680.498 332.96C680.306 332.019 680.055 330.762 679.743 329.19C679.619 328.613 680.111 328.111 681.22 327.683C681.921 327.412 682.586 327.182 683.215 326.991C683.844 326.8 684.432 326.704 684.979 326.701C685.517 326.675 686.023 326.767 686.497 326.974C686.962 327.159 687.375 327.508 687.735 328.02C687.843 328.16 687.94 328.305 688.025 328.454C688.133 328.595 688.268 328.803 688.43 329.079C688.592 329.355 688.799 329.744 689.05 330.246C689.325 330.739 689.67 331.413 690.088 332.267C690.529 333.112 691.065 334.168 691.699 335.433C692.332 336.699 693.112 338.234 694.037 340.038Z" fill="white"/>
<path d="M664.964 355.825C663.403 356.428 662.016 356.715 660.805 356.688C659.607 356.63 658.55 356.334 657.634 355.803C656.718 355.271 655.934 354.545 655.281 353.625C654.62 352.683 654.056 351.625 653.589 350.451C653.051 349.096 652.685 347.715 652.49 346.306C652.31 344.865 652.413 343.485 652.802 342.163C653.19 340.842 653.908 339.627 654.956 338.52C656.017 337.381 657.521 336.437 659.468 335.686C662.319 334.585 664.634 334.499 666.412 335.427C668.204 336.324 669.598 338.025 670.593 340.531C670.871 341.231 671.124 342.032 671.352 342.933C671.593 343.803 671.733 344.713 671.771 345.662C671.831 346.602 671.769 347.563 671.585 348.545C671.424 349.518 671.091 350.454 670.586 351.352C670.082 352.249 669.369 353.084 668.449 353.856C667.552 354.618 666.39 355.275 664.964 355.825ZM660.68 340.412C659.82 340.744 659.219 341.236 658.878 341.888C658.551 342.509 658.377 343.188 658.357 343.925C658.35 344.631 658.44 345.351 658.628 346.085C658.829 346.789 659.024 347.378 659.212 347.852C659.804 349.342 660.477 350.345 661.23 350.861C661.984 351.378 662.801 351.466 663.684 351.125C664.476 350.819 665.022 350.322 665.323 349.633C665.646 348.936 665.804 348.185 665.798 347.38C665.814 346.567 665.715 345.759 665.5 344.957C665.309 344.145 665.11 343.48 664.903 342.961C664.455 341.832 663.89 341.035 663.209 340.569C662.541 340.071 661.698 340.019 660.68 340.412Z" fill="white"/>
<path d="M644.946 357.34C644.697 356.056 644.488 354.939 644.319 353.989C644.142 353.016 643.968 352.12 643.799 351.3C643.63 350.48 643.454 349.676 643.271 348.887C643.102 348.067 642.901 347.168 642.669 346.19C642.451 345.181 642.194 344.043 641.9 342.777C641.619 341.479 641.278 339.932 640.877 338.134C640.775 337.679 640.78 337.364 640.894 337.19C640.998 336.993 641.367 336.773 642.001 336.528C642.25 336.432 642.632 336.311 643.148 336.164C643.655 335.994 644.193 335.904 644.763 335.892C645.324 335.858 645.857 335.952 646.362 336.173C646.882 336.364 647.267 336.775 647.518 337.407C647.662 337.768 647.818 338.358 647.987 339.178C648.147 339.976 648.3 340.919 648.446 342.008C648.605 343.066 648.755 344.232 648.896 345.506C649.059 346.771 649.216 348.051 649.365 349.347C649.515 350.643 649.64 351.91 649.74 353.147C649.863 354.375 649.956 355.498 650.021 356.514C650.099 357.5 650.146 358.341 650.162 359.037C650.178 359.734 650.177 360.19 650.158 360.406C650.121 360.707 649.996 360.95 649.783 361.137C649.57 361.323 649.339 361.464 649.09 361.56L645.865 362.805C645.276 363.032 644.734 363.111 644.237 363.042C643.762 362.965 643.317 362.798 642.902 362.542C642.51 362.277 642.145 361.949 641.807 361.558C641.492 361.159 641.217 360.732 640.984 360.275L633.245 345.726C633.504 346.772 633.789 347.95 634.102 349.262C634.437 350.564 634.758 351.898 635.066 353.264C635.396 354.62 635.717 355.954 636.029 357.266C636.342 358.577 636.614 359.787 636.845 360.895C637.068 361.981 637.244 362.916 637.372 363.699C637.501 364.483 637.553 365.009 637.53 365.279C637.515 365.571 637.402 365.81 637.189 365.996C636.976 366.182 636.733 366.328 636.462 366.433L633.237 367.677C632.671 367.895 632.155 367.977 631.69 367.923C631.238 367.837 630.816 367.661 630.424 367.396C630.031 367.131 629.666 366.803 629.328 366.413C628.981 366 628.657 365.578 628.356 365.148C625.966 361.826 624.006 359.094 622.475 356.95C620.968 354.798 619.762 353.077 618.857 351.785C617.943 350.472 617.289 349.514 616.893 348.911C616.511 348.278 616.261 347.814 616.145 347.521C615.992 347.137 616.007 346.845 616.188 346.645C616.392 346.436 616.879 346.183 617.648 345.886C618.599 345.519 619.418 345.281 620.105 345.172C620.815 345.055 621.432 345.064 621.956 345.2C622.471 345.314 622.925 345.568 623.317 345.964C623.723 346.328 624.089 346.824 624.418 347.453C624.453 347.543 624.519 347.674 624.613 347.846C624.698 347.995 624.829 348.258 625.004 348.633C625.201 348.999 625.469 349.508 625.806 350.159C626.157 350.778 626.608 351.619 627.161 352.682C627.736 353.736 628.442 355.052 629.278 356.63C630.127 358.176 631.141 360.037 632.318 362.213C632.02 360.74 631.773 359.559 631.577 358.672C631.394 357.753 631.234 356.955 631.096 356.279C630.949 355.581 630.804 354.921 630.662 354.299C630.51 353.655 630.316 352.871 630.079 351.946C629.856 350.991 629.555 349.806 629.175 348.39C628.818 346.966 628.344 345.118 627.755 342.846C627.715 342.679 627.756 342.52 627.878 342.368C628.023 342.208 628.212 342.058 628.443 341.916C628.674 341.775 628.936 341.648 629.23 341.534C629.538 341.389 629.828 341.265 630.099 341.16C631.005 340.811 631.797 340.57 632.475 340.438C633.145 340.284 633.732 340.253 634.238 340.344C634.767 340.426 635.241 340.634 635.66 340.967C636.071 341.277 636.476 341.706 636.877 342.255C637.061 342.522 637.302 342.898 637.599 343.382C637.887 343.844 638.307 344.606 638.86 345.668C639.435 346.722 640.199 348.185 641.151 350.056C642.118 351.896 643.383 354.324 644.946 357.34Z" fill="white"/>
<path d="M105.736 449.701C106.06 448.837 107.281 448.835 107.608 449.698L116.431 473.014C116.534 473.287 116.751 473.502 117.026 473.601L140.735 482.18C141.613 482.497 141.615 483.739 140.738 484.059L117.056 492.709C116.781 492.809 116.565 493.024 116.462 493.297L107.712 516.64C107.388 517.504 106.167 517.506 105.84 516.643L97.0171 493.327C96.9138 493.054 96.6964 492.84 96.422 492.74L72.713 484.162C71.8347 483.844 71.8328 482.602 72.71 482.282L96.3922 473.632C96.6663 473.532 96.883 473.317 96.9855 473.044L105.736 449.701Z" fill="#7000FF"/>
<path d="M70.8808 550.673C71.2046 549.809 72.4259 549.807 72.7524 550.67L76.4619 560.473C76.5652 560.746 76.7825 560.96 77.057 561.059L86.9957 564.655C87.8739 564.973 87.8759 566.214 86.9986 566.535L77.0711 570.161C76.797 570.261 76.5803 570.476 76.4779 570.749L72.799 580.563C72.4752 581.427 71.2539 581.429 70.9274 580.566L67.2179 570.763C67.1146 570.49 66.8972 570.276 66.6228 570.177L56.6841 566.581C55.8058 566.263 55.8039 565.021 56.6812 564.701L66.6086 561.075C66.8827 560.975 67.0994 560.76 67.2019 560.487L70.8808 550.673Z" fill="#5282FF"/>
<path fill-rule="evenodd" clip-rule="evenodd" d="M161.89 412.791C161.398 412.539 161.21 411.939 161.47 411.451L179.468 377.622C179.728 377.134 180.336 376.943 180.828 377.196C181.319 377.448 181.507 378.048 181.248 378.535L163.249 412.365C162.989 412.852 162.381 413.043 161.89 412.791Z" fill="#02CCC0"/>
<path fill-rule="evenodd" clip-rule="evenodd" d="M263.956 378.216C263.752 378.729 263.168 378.985 262.653 378.787L193.369 352.217C192.854 352.019 192.601 351.443 192.805 350.929C193.009 350.416 193.592 350.16 194.108 350.358L263.391 376.928C263.907 377.126 264.16 377.702 263.956 378.216Z" fill="#009436"/>
<path d="M218.618 397.318C220 401.231 217.892 405.504 213.909 406.862C209.926 408.22 205.576 406.149 204.194 402.236C202.812 398.322 204.92 394.049 208.903 392.691C212.886 391.333 217.235 393.404 218.618 397.318Z" fill="#FFC700"/>
<path d="M175.927 647.085C177.309 650.999 175.201 655.272 171.218 656.63C167.235 657.988 162.885 655.917 161.503 652.003C160.121 648.09 162.229 643.817 166.212 642.459C170.195 641.101 174.544 643.172 175.927 647.085Z" fill="#FFC700"/>
<path d="M61.5178 329C61.5178 337.284 54.91 344 46.7589 344C38.6078 344 32 337.284 32 329C32 320.716 38.6078 314 46.7589 314C54.91 314 61.5178 320.716 61.5178 329Z" fill="#7000FF"/>
<path d="M168.25 277C168.25 280.866 165.06 284 161.125 284C157.19 284 154 280.866 154 277C154 273.134 157.19 270 161.125 270C165.06 270 168.25 273.134 168.25 277Z" fill="#E20265"/>
<path d="M314.034 206.825C313.831 205.885 314.961 205.244 315.687 205.887L345.893 232.608C346.219 232.896 346.693 232.946 347.069 232.733L382.253 212.775C383.097 212.296 384.077 213.171 383.679 214.049L367.162 250.496C366.984 250.89 367.085 251.354 367.413 251.644L397.599 278.348C398.328 278.992 397.803 280.173 396.833 280.073L356.406 275.898C355.975 275.854 355.565 276.086 355.389 276.475L338.855 312.96C338.458 313.835 337.155 313.69 336.951 312.749L328.506 273.713C328.414 273.289 328.055 272.971 327.619 272.926L287.233 268.755C286.26 268.655 285.979 267.384 286.823 266.905L322.007 246.948C322.383 246.735 322.576 246.306 322.485 245.886L314.034 206.825Z" fill="#FFC700"/>
<path d="M531.139 605.773C531.126 605.128 531.95 604.847 532.346 605.362L548.829 626.745C549.006 626.975 549.312 627.068 549.586 626.974L575.36 618.188C575.978 617.977 576.512 618.68 576.136 619.21L560.553 641.186C560.384 641.424 560.391 641.745 560.571 641.978L577.036 663.34C577.434 663.856 576.94 664.571 576.314 664.385L550.182 656.602C549.905 656.52 549.607 656.621 549.442 656.855L533.833 678.867C533.459 679.394 532.62 679.133 532.607 678.486L532.066 651.696C532.06 651.403 531.864 651.147 531.581 651.062L505.491 643.293C504.862 643.105 504.838 642.229 505.456 642.018L531.23 633.232C531.505 633.138 531.686 632.88 531.68 632.591L531.139 605.773Z" fill="#FFC700"/>
<path d="M605.25 805C605.25 808.866 602.06 812 598.125 812C594.19 812 591 808.866 591 805C591 801.134 594.19 798 598.125 798C602.06 798 605.25 801.134 605.25 805Z" fill="#E20265"/>
<path fill-rule="evenodd" clip-rule="evenodd" d="M248.777 55.791C256.419 55.791 262.553 49.7136 262.553 42.291C262.553 34.8684 256.419 28.791 248.777 28.791C241.135 28.791 235 34.8684 235 42.291C235 49.7136 241.135 55.791 248.777 55.791ZM248.777 57.791C257.49 57.791 264.553 50.8514 264.553 42.291C264.553 33.7306 257.49 26.791 248.777 26.791C240.063 26.791 233 33.7306 233 42.291C233 50.8514 240.063 57.791 248.777 57.791Z" fill="#FF0071"/>
<path fill-rule="evenodd" clip-rule="evenodd" d="M286.482 73.7041C292.11 73.7041 296.609 69.2312 296.609 63.791C296.609 58.3509 292.11 53.878 286.482 53.878C280.854 53.878 276.355 58.3509 276.355 63.791C276.355 69.2312 280.854 73.7041 286.482 73.7041ZM286.482 75.791C293.228 75.791 298.696 70.4184 298.696 63.791C298.696 57.1636 293.228 51.791 286.482 51.791C279.736 51.791 274.268 57.1636 274.268 63.791C274.268 70.4184 279.736 75.791 286.482 75.791Z" fill="#FFC700"/>
<path fill-rule="evenodd" clip-rule="evenodd" d="M448.181 68.791C452.925 68.791 456.868 64.8163 456.868 59.791C456.868 54.7657 452.925 50.791 448.181 50.791C443.437 50.791 439.493 54.7657 439.493 59.791C439.493 64.8163 443.437 68.791 448.181 68.791ZM448.181 70.791C454.083 70.791 458.868 65.8661 458.868 59.791C458.868 53.7159 454.083 48.791 448.181 48.791C442.278 48.791 437.493 53.7159 437.493 59.791C437.493 65.8661 442.278 70.791 448.181 70.791Z" fill="#7000FF"/>
<path fill-rule="evenodd" clip-rule="evenodd" d="M100.687 670C105.431 670 109.375 666.025 109.375 661C109.375 655.975 105.431 652 100.687 652C95.9435 652 92 655.975 92 661C92 666.025 95.9435 670 100.687 670ZM100.687 672C106.59 672 111.375 667.075 111.375 661C111.375 654.925 106.59 650 100.687 650C94.7849 650 90 654.925 90 661C90 667.075 94.7849 672 100.687 672Z" fill="#7000FF"/>
<defs>
<linearGradient id="paint0_linear_118_2774" x1="12.6059" y1="760.392" x2="192.642" y2="800.604" gradientUnits="userSpaceOnUse">
<stop stop-color="#BEFF06"/>
<stop offset="0.58" stop-color="#00A310"/>
<stop offset="0.995" stop-color="#01933B"/>
</linearGradient>
<radialGradient id="paint1_radial_118_2774" cx="0" cy="0" r="1" gradientUnits="userSpaceOnUse" gradientTransform="translate(762.629 400.295) rotate(-146.215) scale(182.492 139.375)">
<stop stop-color="#7500D0"/>
<stop offset="0.390615" stop-color="#BF0049"/>
<stop offset="0.781387" stop-color="#C1000C"/>
<stop offset="1" stop-color="#EA320A"/>
</radialGradient>
</defs>
</svg>
