<?xml version="1.0" standalone="no"?>
<!DOCTYPE svg PUBLIC "-//W3C//DTD SVG 20010904//EN"
 "http://www.w3.org/TR/2001/REC-SVG-20010904/DTD/svg10.dtd">
<svg version="1.0" xmlns="http://www.w3.org/2000/svg"
 width="1056.000000pt" height="1056.000000pt" viewBox="0 0 1056.000000 1056.000000"
 preserveAspectRatio="xMidYMid meet">
<metadata>
Created by potrace 1.14, written by Peter Selinger 2001-2017
</metadata>
<g transform="translate(0.000000,1056.000000) scale(0.100000,-0.100000)"
fill="#000000" stroke="none">
<path d="M6562 9664 c-24 -16 -38 -45 -47 -92 -3 -15 -7 -38 -10 -52 -3 -14
-8 -36 -10 -50 -4 -21 -58 -267 -70 -320 -6 -27 -34 -155 -39 -180 -2 -14 -7
-32 -10 -40 -3 -8 -7 -31 -10 -50 -3 -19 -10 -50 -15 -67 -5 -18 -8 -33 -6
-33 3 0 1 -10 -4 -23 -5 -13 -12 -39 -15 -58 -3 -19 -12 -63 -20 -99 -8 -36
-17 -76 -20 -90 -2 -14 -11 -53 -19 -88 -9 -34 -16 -65 -16 -67 -1 -3 -2 -8
-2 -12 -3 -21 -6 -33 -19 -88 -7 -33 -13 -63 -12 -67 1 -4 -3 -19 -8 -34 -6
-15 -13 -45 -16 -67 -2 -22 -7 -43 -9 -47 -2 -4 -7 -20 -9 -36 -9 -48 -15 -75
-20 -92 -3 -9 -7 -35 -11 -57 -3 -22 -8 -53 -11 -70 -27 -153 -36 -343 -21
-445 21 -144 83 -266 185 -365 156 -153 431 -223 631 -160 30 9 85 37 123 62
67 44 181 158 201 201 6 12 14 22 18 22 5 0 16 14 24 31 9 17 18 29 21 26 3
-3 -21 -134 -41 -217 -35 -147 -38 -170 -25 -200 17 -40 60 -61 181 -85 9 -2
54 -14 100 -26 46 -13 91 -23 99 -23 8 0 17 -4 20 -8 3 -4 32 -10 63 -14 55
-7 58 -6 87 25 17 17 31 41 31 53 2 36 6 59 23 123 8 33 23 96 32 140 10 44
19 85 20 90 1 6 5 24 8 40 11 57 14 70 24 110 6 22 13 56 16 75 3 19 8 46 12
60 7 29 21 94 28 130 3 14 9 39 13 55 4 17 7 32 8 35 1 3 5 25 10 50 10 52 12
59 14 63 2 1 4 14 6 29 2 16 6 37 10 47 6 19 10 37 20 91 3 14 12 57 20 95 9
39 18 81 21 95 2 14 7 31 10 39 2 8 7 30 10 50 4 20 7 41 8 46 1 6 5 16 9 23
5 6 6 12 4 12 -3 0 6 48 19 108 14 59 27 120 30 135 3 16 21 99 40 185 19 86
37 167 39 179 2 12 7 36 11 55 4 18 8 35 9 38 1 3 4 19 8 35 9 37 16 70 22
110 3 17 11 55 19 86 7 32 12 70 10 85 -5 48 -55 80 -154 98 -14 2 -25 5 -25
6 0 2 -5 3 -55 13 -14 3 -40 10 -58 16 -18 5 -34 10 -37 11 -3 0 -10 2 -17 4
-55 17 -168 40 -192 39 -42 -2 -71 -42 -86 -116 -7 -34 -15 -69 -17 -77 -2 -8
-6 -28 -8 -44 -2 -15 -7 -36 -10 -46 -3 -10 -8 -29 -11 -42 -2 -13 -9 -43 -14
-68 -11 -53 -16 -76 -24 -110 -3 -14 -8 -36 -11 -50 -2 -14 -11 -56 -20 -95
-8 -38 -18 -81 -21 -95 -5 -27 -7 -33 -29 -135 -9 -38 -18 -81 -21 -95 -2 -14
-12 -59 -21 -100 -9 -41 -16 -77 -16 -80 0 -3 -3 -15 -8 -27 -5 -13 -11 -44
-15 -70 -3 -27 -10 -56 -15 -65 -6 -10 -8 -18 -5 -18 2 0 0 -17 -5 -37 -11
-43 -17 -70 -33 -142 -37 -165 -128 -347 -210 -419 -109 -96 -263 -98 -362 -6
-60 56 -78 110 -86 254 -1 20 12 158 17 180 9 38 16 71 20 100 3 19 8 43 11
52 3 9 7 25 9 35 2 10 9 41 15 68 6 28 14 59 16 70 6 31 11 52 34 160 12 55
23 111 26 125 2 14 7 31 10 39 2 8 7 30 10 50 3 20 12 60 19 90 8 30 12 58 9
62 -2 4 0 10 5 13 5 3 12 27 17 53 4 27 8 50 9 53 3 10 33 149 41 190 3 14 14
66 25 115 24 105 28 121 34 155 5 27 12 56 20 93 3 12 8 45 12 73 9 79 -13 96
-167 135 -69 17 -136 33 -149 35 -13 3 -33 10 -43 15 -11 6 -26 8 -34 5 -8 -3
-14 0 -14 6 0 6 -3 9 -6 5 -3 -3 -17 -2 -30 3 -50 20 -108 21 -132 4z"/>
<path d="M3626 9323 c-2 -3 -47 -10 -116 -18 -30 -4 -66 -12 -80 -17 -14 -6
-34 -11 -45 -13 -11 -2 -27 -5 -35 -7 -21 -5 -131 -47 -154 -60 -139 -75 -222
-142 -306 -248 -70 -90 -147 -268 -166 -386 -3 -21 -8 -42 -10 -46 -2 -4 0 -9
6 -13 6 -4 8 -10 5 -14 -9 -16 45 -54 82 -57 21 -2 52 -6 68 -9 17 -2 57 -7
90 -10 33 -3 71 -8 85 -10 26 -4 121 -15 175 -20 50 -4 92 42 101 111 2 18 13
49 24 69 11 19 17 35 14 35 -7 0 15 27 67 79 152 153 447 123 536 -54 19 -37
24 -55 38 -125 6 -31 10 -279 4 -284 -2 -2 -38 -7 -79 -11 -102 -9 -122 -12
-220 -24 -134 -18 -155 -22 -368 -67 -43 -9 -117 -36 -189 -69 -78 -36 -203
-114 -203 -127 0 -4 -6 -8 -14 -8 -8 0 -16 -4 -18 -9 -1 -5 -25 -33 -52 -61
-89 -94 -182 -277 -203 -400 -11 -69 -18 -131 -24 -215 -1 -21 10 -162 16
-205 4 -25 18 -80 32 -124 23 -74 36 -101 85 -186 26 -44 145 -160 183 -180
17 -8 37 -20 45 -26 15 -12 127 -53 166 -60 227 -42 483 -7 639 89 40 24 120
82 136 97 8 8 49 48 90 88 l76 73 57 -90 c32 -50 95 -129 141 -177 82 -84 84
-85 122 -79 21 3 40 10 41 15 2 6 8 10 13 10 5 0 33 24 62 53 30 28 105 99
167 157 149 138 140 130 151 157 13 34 -10 108 -42 133 -8 6 -94 151 -94 159
-1 3 -6 15 -12 26 -13 23 -30 83 -39 140 -4 22 -7 310 -8 640 0 330 -4 605 -9
612 -4 6 -3 14 3 18 6 4 8 11 5 16 -3 5 -8 32 -11 59 -3 28 -9 62 -14 76 -5
13 -8 24 -5 24 5 0 -29 99 -51 147 -49 107 -141 210 -248 278 -101 65 -277
123 -426 141 -50 6 -279 12 -284 7z m386 -1663 c-1 -85 -4 -175 -7 -200 -4
-41 -7 -61 -19 -123 -6 -32 -41 -128 -61 -167 -23 -44 -29 -52 -100 -124 -47
-47 -74 -65 -118 -80 -72 -24 -153 -23 -211 3 -50 22 -116 82 -116 106 0 8 -3
15 -8 15 -20 0 -45 109 -47 204 -3 134 29 259 79 312 6 6 18 21 26 33 18 26
116 96 156 112 56 22 160 49 209 55 28 4 51 7 52 8 2 2 40 2 85 2 l82 -1 -2
-155z"/>
<path d="M1497 9214 c-1 -1 -27 -5 -58 -7 -146 -14 -311 -112 -382 -227 -11
-19 -24 -37 -29 -40 -12 -9 -78 -139 -100 -198 -11 -29 -22 -51 -25 -48 -3 3
-5 96 -5 206 0 199 0 201 -25 230 -23 28 -33 31 -105 30 -10 0 -30 0 -45 0
-16 0 -53 0 -83 0 -79 -1 -91 -1 -132 3 -21 1 -38 0 -38 -4 0 -7 -49 -3 -57 4
-9 10 -79 -16 -98 -36 -20 -21 -20 -36 -21 -1337 0 -725 4 -1327 9 -1342 20
-61 24 -62 295 -62 136 0 259 3 273 7 15 4 35 19 45 34 16 26 18 78 20 838 2
445 5 826 8 845 12 98 18 123 45 203 30 88 55 133 100 178 29 29 91 73 91 65
0 -3 15 1 33 8 73 30 200 -4 254 -68 25 -30 62 -102 68 -135 2 -9 4 -16 5 -16
1 0 3 -11 6 -25 2 -14 7 -38 10 -55 4 -16 8 -428 10 -915 1 -604 6 -894 13
-913 19 -48 52 -53 306 -52 127 1 244 5 261 9 66 15 64 -30 60 1066 -2 542 -6
1003 -10 1025 -3 22 -8 60 -11 85 -4 41 -10 77 -15 90 -1 3 -2 9 -1 13 4 20
-44 158 -75 218 -40 76 -117 166 -178 208 -43 30 -141 86 -141 82 0 -2 -20 2
-45 9 -60 16 -223 33 -233 24z"/>
<path d="M9495 8962 c-2 -2 -26 -5 -52 -7 -64 -4 -181 -39 -268 -80 -157 -74
-280 -179 -425 -362 -67 -84 -162 -264 -220 -418 -12 -33 -26 -69 -31 -80 -9
-25 -50 -180 -55 -214 -3 -14 -7 -39 -11 -56 -4 -16 -7 -32 -8 -35 -4 -20 -18
-114 -23 -155 -8 -72 -8 -410 0 -475 9 -72 37 -204 52 -245 81 -224 141 -328
259 -447 99 -101 106 -106 213 -167 73 -42 206 -94 269 -106 11 -2 20 -4 20
-5 0 -7 102 -13 210 -13 121 0 145 2 195 18 10 3 27 8 37 10 144 30 331 159
484 335 33 38 119 168 119 180 0 5 4 10 8 10 9 0 110 207 132 270 6 19 16 44
21 55 5 11 16 43 24 70 9 28 19 57 22 65 3 8 7 24 8 35 2 11 11 49 20 84 9 35
18 76 20 90 2 14 8 49 14 76 18 94 25 190 25 350 0 202 -10 298 -45 429 -6 23
-12 48 -14 56 -6 31 -56 154 -82 204 -73 137 -176 259 -293 346 -37 27 -71 50
-75 50 -4 0 -20 9 -36 21 -16 11 -29 17 -29 14 0 -4 -10 -1 -22 7 -36 23 -137
56 -223 74 -61 13 -231 24 -240 16z m195 -554 c60 -17 112 -61 155 -128 25
-41 33 -65 53 -171 13 -68 5 -311 -12 -397 -3 -15 -8 -43 -11 -62 -5 -35 -10
-62 -21 -110 -3 -14 -7 -36 -10 -50 -53 -278 -165 -620 -221 -678 -7 -7 -13
-17 -13 -21 0 -4 -22 -31 -50 -60 -94 -98 -196 -123 -319 -78 -106 38 -175
120 -197 232 -10 51 -10 262 -1 340 17 132 19 150 22 155 2 3 6 26 10 50 7 53
44 230 50 239 2 4 6 25 9 47 4 23 10 54 15 70 5 16 21 70 35 119 15 50 30 99
35 110 19 44 33 80 31 80 -5 0 83 158 98 176 63 75 113 115 167 135 28 10 141
11 175 2z"/>
<path d="M988 5785 c-1 -1 -27 -5 -56 -9 -97 -11 -127 -17 -197 -39 -38 -11
-72 -21 -75 -22 -172 -52 -376 -216 -467 -376 -40 -70 -90 -194 -100 -249 -2
-14 -8 -41 -12 -62 -6 -25 -4 -45 6 -66 22 -46 42 -52 213 -68 63 -7 95 -11
95 -14 0 -1 77 -8 164 -14 50 -3 67 -1 81 12 18 18 37 62 45 100 17 93 101
197 191 238 49 22 152 43 187 38 9 -1 34 -5 56 -8 114 -16 212 -114 236 -236
10 -54 15 -309 5 -315 -4 -3 -25 -7 -46 -9 -67 -7 -158 -17 -194 -22 -19 -3
-53 -7 -75 -10 -53 -6 -95 -12 -125 -18 -14 -3 -52 -10 -85 -15 -33 -6 -71
-14 -85 -17 -14 -3 -35 -7 -46 -9 -12 -3 -38 -12 -58 -20 -20 -8 -39 -16 -43
-16 -34 -5 -152 -61 -214 -101 -172 -110 -322 -320 -355 -497 -3 -14 -7 -28
-10 -33 -25 -39 -24 -427 0 -467 3 -5 8 -22 10 -38 9 -70 58 -176 124 -266 30
-41 58 -67 169 -157 7 -6 15 -10 19 -10 4 0 26 -9 49 -20 90 -44 180 -58 340
-55 83 2 159 5 170 8 11 3 42 10 69 17 134 30 276 121 422 269 35 36 66 63 68
60 2 -2 18 -28 36 -58 67 -115 206 -269 253 -282 36 -10 75 12 147 80 178 170
218 208 246 231 91 78 92 112 4 245 -58 88 -97 164 -106 208 -3 12 -9 45 -14
72 -5 28 -11 338 -13 690 -2 352 -7 651 -10 665 -4 14 -10 41 -13 60 -10 53
-12 63 -22 95 -33 102 -93 198 -171 274 -54 51 -136 110 -155 109 -5 0 -12 4
-15 9 -8 11 -132 65 -156 68 -5 1 -20 4 -32 9 -24 8 -50 13 -103 22 -19 3 -39
9 -44 12 -10 5 -302 13 -308 7z m377 -1683 c-2 -103 -7 -207 -10 -232 -8 -54
-50 -180 -73 -224 -65 -120 -169 -207 -267 -223 -16 -3 -37 -6 -45 -8 -21 -3
-110 19 -140 34 -61 32 -120 119 -135 196 -21 112 -21 113 -12 210 3 33 10 74
15 91 11 36 43 106 52 114 3 3 17 21 32 41 64 85 225 159 383 174 33 4 60 7
61 8 2 1 34 3 72 4 l71 1 -4 -186z"/>
<path d="M7068 5785 c-1 -2 -28 -6 -58 -9 -58 -6 -65 -8 -145 -25 -66 -15
-179 -54 -183 -63 -2 -5 -9 -8 -15 -8 -15 0 -93 -41 -141 -74 -117 -79 -220
-200 -281 -328 -20 -42 -38 -83 -39 -90 -2 -7 -6 -20 -9 -28 -25 -64 -40 -162
-28 -193 18 -48 42 -56 201 -72 19 -2 55 -6 80 -9 52 -7 89 -11 183 -21 49 -5
71 -4 83 6 16 13 58 89 49 89 -9 0 38 114 59 144 43 60 127 120 184 131 11 2
35 7 53 12 75 19 213 -6 257 -48 12 -10 25 -19 29 -19 4 0 22 -21 39 -48 29
-43 50 -104 60 -172 5 -33 7 -260 3 -265 -2 -1 -31 -6 -64 -9 -33 -4 -89 -11
-125 -16 -36 -5 -92 -12 -125 -16 -33 -3 -69 -8 -80 -10 -10 -2 -35 -6 -55 -9
-20 -3 -47 -8 -60 -11 -14 -3 -34 -7 -45 -8 -54 -9 -101 -19 -110 -25 -5 -3
-16 -7 -22 -8 -96 -21 -226 -81 -323 -147 -47 -32 -190 -172 -190 -186 0 -5
-6 -15 -13 -22 -31 -33 -109 -205 -121 -268 -2 -14 -9 -47 -16 -75 -27 -119
-14 -377 26 -500 40 -123 109 -235 188 -308 33 -31 111 -87 120 -87 3 0 31
-12 62 -26 31 -14 68 -28 83 -30 14 -3 44 -9 66 -14 22 -5 93 -9 158 -8 283 2
443 69 652 272 49 47 89 86 91 86 4 0 67 -105 65 -109 -2 -2 1 -7 6 -10 4 -3
21 -23 37 -45 44 -59 155 -173 169 -173 6 0 17 -2 22 -3 27 -7 54 3 82 28 31
28 236 220 325 305 48 46 50 50 46 91 -4 30 -21 66 -56 118 -60 90 -106 182
-117 235 -5 21 -10 45 -13 53 -2 8 -6 285 -7 615 -2 553 -6 701 -21 766 -3 13
-6 31 -6 39 0 30 -31 126 -57 180 -51 104 -103 169 -198 243 -56 43 -191 114
-232 122 -9 2 -16 4 -16 5 0 1 -7 3 -15 5 -61 16 -108 27 -127 31 -13 2 -35 7
-50 10 -31 6 -309 15 -315 9z m383 -1552 c1 -113 -2 -260 -6 -294 -12 -98 -17
-124 -36 -184 -40 -130 -135 -257 -228 -305 -39 -19 -107 -35 -146 -33 -56 3
-135 29 -135 44 0 5 -6 9 -13 9 -7 0 -21 12 -32 27 -11 14 -25 32 -32 38 -7 7
-22 41 -34 76 -37 109 -32 274 10 384 58 149 221 252 442 280 30 4 55 8 56 8
1 1 36 3 77 5 l76 2 1 -57z"/>
<path d="M3714 5761 c-2 -2 -19 -6 -36 -7 -78 -7 -212 -57 -239 -90 -6 -8 -15
-14 -20 -14 -17 0 -139 -132 -139 -150 0 -6 -3 -10 -7 -10 -9 0 -51 -79 -82
-152 -11 -27 -22 -48 -24 -48 -3 0 -4 80 -3 177 l1 177 -31 33 -32 34 -245 -1
-244 -1 -29 -30 -28 -30 -1 -1312 c-1 -1032 1 -1317 11 -1338 26 -53 28 -53
293 -54 135 -1 259 3 274 8 63 21 59 -25 63 905 1 466 5 867 7 892 9 87 49
216 72 232 5 4 6 8 2 8 -9 0 6 20 52 65 19 19 38 32 43 29 4 -3 8 -1 8 4 0 12
42 24 88 27 17 1 35 4 38 8 3 3 16 2 29 -3 13 -5 25 -7 27 -4 11 10 90 -27
123 -58 83 -75 115 -210 115 -482 -1 -39 0 -80 0 -91 1 -11 1 -27 1 -35 -4
-231 0 -1428 5 -1443 3 -11 15 -30 26 -41 18 -20 29 -21 283 -21 l265 0 27 28
28 27 1 818 c1 716 6 971 19 993 2 3 7 20 10 37 8 48 49 133 79 164 85 88 176
118 296 95 86 -17 155 -83 179 -172 21 -81 24 -174 25 -1047 l1 -888 28 -27
27 -28 254 0 c279 0 298 3 315 59 7 19 11 353 11 891 1 473 1 916 1 985 1 187
-6 268 -35 409 -20 92 -87 210 -163 286 -167 165 -427 230 -648 161 -5 -2 -25
-7 -42 -11 -18 -4 -33 -11 -33 -16 0 -5 -6 -9 -14 -9 -13 0 -75 -32 -101 -52
-102 -80 -170 -163 -221 -273 -20 -41 -38 -75 -40 -75 -2 0 -16 26 -31 58 -76
162 -181 282 -301 345 -40 21 -72 36 -72 33 0 -3 -11 -1 -24 4 -42 16 -231 32
-242 21z"/>
<path d="M8722 5709 c-49 -18 -54 -45 -54 -258 0 -110 3 -214 7 -231 13 -59
29 -61 469 -60 216 0 395 -2 398 -5 3 -3 -27 -55 -66 -115 -39 -60 -93 -146
-121 -190 -27 -45 -56 -87 -62 -95 -7 -7 -13 -16 -13 -20 0 -3 -11 -21 -25
-39 -14 -18 -25 -38 -25 -44 0 -7 -4 -12 -9 -12 -5 0 -14 -13 -21 -30 -7 -16
-16 -30 -20 -30 -4 0 -12 -10 -17 -23 -6 -13 -44 -75 -85 -138 -41 -63 -77
-122 -81 -131 -3 -10 -11 -18 -17 -18 -5 0 -10 -5 -10 -10 0 -6 -22 -44 -50
-85 -27 -41 -50 -79 -50 -85 0 -5 -4 -10 -10 -10 -5 0 -10 -4 -10 -10 0 -8
-122 -203 -148 -235 -13 -17 -77 -128 -89 -155 -23 -51 -32 -116 -32 -229 0
-64 0 -121 -1 -126 -2 -6 -2 -12 -1 -15 1 -3 2 -60 4 -126 2 -102 5 -125 20
-142 33 -37 61 -35 140 6 95 51 239 106 357 137 27 7 122 26 150 30 348 48
680 -5 979 -156 111 -55 135 -55 168 -1 16 26 18 56 17 249 -1 283 -7 301
-128 364 -34 18 -68 36 -76 40 -48 25 -136 59 -168 65 -20 4 -41 9 -47 13 -5
3 -14 6 -20 7 -5 1 -44 9 -85 17 -124 26 -148 28 -405 37 -16 1 -24 4 -17 7 6
2 12 11 12 19 0 8 4 14 9 14 5 0 11 8 15 18 5 16 21 43 39 66 5 6 27 40 50 76
23 36 79 122 125 193 45 70 82 131 82 136 0 5 3 11 8 13 4 2 41 55 81 118 41
63 87 134 103 158 15 24 28 47 28 52 0 4 3 10 8 12 11 5 286 436 315 493 23
48 24 58 24 235 1 192 -6 228 -46 246 -21 10 -1574 12 -1599 3z"/>
<path d="M9417 2794 c-1 -1 -42 -4 -92 -7 -49 -4 -115 -11 -145 -17 -30 -6
-67 -13 -82 -15 -174 -25 -483 -172 -536 -256 -38 -60 -4 -95 82 -85 28 4 71
9 96 11 25 2 68 6 95 9 247 27 543 27 670 1 55 -11 119 -51 139 -84 27 -46 27
-168 1 -291 -2 -14 -7 -34 -9 -45 -2 -11 -12 -49 -21 -85 -9 -36 -19 -72 -20
-80 -2 -8 -4 -16 -5 -17 -2 -2 -3 -6 -4 -10 -1 -5 -10 -35 -21 -68 -10 -33
-19 -62 -19 -65 -1 -3 -9 -27 -19 -55 -19 -52 -24 -67 -25 -75 0 -5 -28 -78
-47 -125 -4 -11 -9 -24 -11 -30 -1 -5 -14 -40 -28 -78 -42 -110 -33 -136 48
-128 18 1 156 134 156 149 0 7 4 12 9 12 4 0 21 19 37 43 16 23 32 44 35 47
21 17 179 310 179 333 0 7 6 24 14 38 22 43 83 237 100 319 3 14 10 43 15 65
11 48 22 125 26 181 1 23 4 46 7 50 5 12 3 97 -6 163 -5 44 -13 59 -39 82 -56
49 -198 89 -367 105 -60 5 -210 11 -213 8z"/>
<path d="M2104 2700 c-36 -14 -51 -67 -30 -108 8 -15 67 -76 132 -137 65 -60
136 -127 157 -147 22 -21 42 -38 46 -38 3 -1 30 -23 60 -50 72 -66 308 -250
321 -250 5 0 10 -4 10 -9 0 -5 15 -18 33 -29 17 -11 70 -46 117 -79 92 -63
224 -149 280 -181 19 -11 73 -42 120 -69 47 -27 144 -78 215 -114 72 -35 132
-67 133 -71 2 -5 9 -8 15 -8 6 0 29 -9 51 -19 44 -21 123 -56 171 -76 168 -70
222 -90 310 -120 44 -14 89 -30 100 -35 11 -5 61 -21 110 -35 50 -15 102 -30
118 -35 15 -5 28 -9 30 -9 1 0 9 -2 17 -5 24 -7 143 -37 165 -41 11 -2 52 -11
90 -20 39 -9 79 -19 90 -21 11 -2 41 -9 67 -15 26 -6 52 -8 58 -4 5 3 10 2 10
-4 0 -5 8 -8 18 -6 9 1 21 0 27 -3 5 -3 23 -7 40 -9 16 -1 59 -7 95 -13 116
-17 144 -21 195 -26 28 -2 64 -6 80 -8 196 -27 840 -28 1040 -1 16 2 53 6 80
9 96 11 183 23 225 31 14 3 41 7 60 9 35 5 46 7 145 26 28 5 64 12 82 15 18 3
43 9 56 14 14 6 28 7 31 4 3 -3 12 -1 19 5 8 7 16 9 19 7 3 -3 17 -1 32 5 15
5 40 12 57 15 48 9 362 97 399 112 8 3 17 7 20 8 65 16 380 137 493 188 42 20
81 37 85 38 63 15 600 315 610 341 2 4 8 8 13 8 12 0 101 61 116 80 7 8 13 11
13 5 0 -6 3 -6 8 1 4 5 25 23 47 40 105 77 135 120 129 184 -4 39 -59 96 -98
102 -34 6 -89 -9 -162 -44 -38 -18 -71 -32 -74 -33 -3 0 -63 -23 -135 -52
-171 -67 -169 -66 -177 -65 -5 1 -8 -3 -8 -9 0 -5 -3 -8 -7 -6 -5 3 -19 0 -33
-6 -14 -5 -29 -11 -35 -13 -5 -2 -71 -24 -145 -49 -74 -25 -144 -47 -155 -49
-11 -3 -56 -16 -100 -30 -44 -14 -91 -28 -105 -31 -14 -2 -68 -16 -120 -31
-52 -14 -106 -28 -120 -31 -50 -10 -55 -11 -55 -13 0 -1 -11 -3 -25 -6 -14 -2
-54 -11 -90 -19 -36 -7 -81 -17 -100 -20 -19 -3 -53 -10 -75 -15 -22 -5 -56
-11 -75 -14 -19 -3 -46 -8 -60 -11 -23 -5 -63 -11 -135 -20 -16 -2 -30 -4 -30
-5 0 -1 -11 -3 -25 -4 -35 -4 -120 -15 -150 -20 -14 -2 -54 -7 -90 -11 -36 -3
-83 -8 -105 -10 -22 -3 -68 -7 -102 -9 -34 -2 -66 -7 -72 -10 -5 -4 -12 -2
-16 4 -4 6 -11 7 -17 4 -17 -11 -131 -15 -408 -16 -320 -2 -544 9 -795 37 -27
3 -66 8 -85 10 -121 13 -417 58 -460 70 -8 2 -31 6 -50 9 -19 3 -80 15 -135
27 -55 12 -109 23 -120 24 -11 1 -27 5 -35 8 -19 7 -338 87 -369 93 -13 3 -32
9 -42 15 -10 5 -29 10 -43 11 -15 1 -26 6 -26 10 0 4 -8 8 -18 8 -16 0 -242
70 -287 89 -11 5 -67 26 -125 46 -99 36 -244 92 -300 117 -14 6 -34 14 -45 19
-11 4 -59 26 -107 47 -48 22 -89 37 -92 34 -3 -3 -6 0 -6 6 0 7 -5 12 -11 12
-14 0 -263 122 -331 162 -27 15 -48 25 -48 22 0 -3 -13 4 -29 15 -15 11 -39
25 -52 31 -13 5 -46 23 -74 40 -27 17 -58 33 -67 37 -10 3 -18 9 -18 13 0 5
-10 12 -22 16 -12 3 -47 23 -77 42 -31 20 -58 37 -61 37 -3 0 -25 14 -50 31
-83 57 -110 67 -146 54z"/>
</g>
</svg>
